<?xml version="1.0" encoding="utf-8"?>
<!-- Generator: Adobe Illustrator 25.4.1, SVG Export Plug-In . SVG Version: 6.00 Build 0)  -->
<svg version="1.1" id="Layer_1" xmlns="http://www.w3.org/2000/svg" xmlns:xlink="http://www.w3.org/1999/xlink" x="0px" y="0px"
	 viewBox="0 0 156.39 84.87" style="enable-background:new 0 0 156.39 84.87;" xml:space="preserve">
<style type="text/css">
	.st0{fill:#00A0AF;}
	.st1{fill:#FFFFFF;}
	.st2{fill:#C4D82E;}
	.st3{fill:#D3DF44;}
	.st4{fill:#00B2BA;}
	.st5{fill:#5BC6CC;}
	.st6{opacity:0.1;}
</style>
<g>
	<g>
		<path class="st0" d="M83.53,67.75c-0.18,0-0.22-0.04-0.22-0.22v-8.14c0-1.52-0.93-2.4-2.55-2.4c-1.95,0-2.21,0.85-2.21,1.69v8.85
			c0,0.15-0.03,0.22-0.24,0.22h-1.82c-0.21,0-0.24-0.06-0.24-0.22v-9.68c0-0.67,0.18-0.95,0.82-1.27c0.67-0.32,2.01-0.67,3.78-0.67
			c1.77,0,4.73,0.44,4.73,3.36v8.25c0,0.18-0.04,0.22-0.22,0.22H83.53z"/>
		<path class="st0" d="M105.19,67.98c-1.77,0-4.74-0.44-4.74-3.36v-8.25c0-0.18,0.04-0.22,0.22-0.22h1.83
			c0.18,0,0.22,0.04,0.22,0.22v8.14c0,1.52,0.93,2.39,2.56,2.39c1.95,0,2.21-0.85,2.21-1.68v-8.85c0-0.15,0.03-0.22,0.24-0.22h1.81
			c0.21,0,0.24,0.06,0.24,0.22v9.68c0,0.67-0.18,0.95-0.82,1.27C108.29,67.63,106.95,67.98,105.19,67.98z"/>
		<path class="st0" d="M93.13,68.05c-2.26,0-4.69-0.8-4.69-3.06c0-3,3.75-3.73,6.49-4.26l0.14-0.03V59c0-1.21-0.74-2.03-1.85-2.03
			c-1.28,0-2.01,0.99-2.28,1.91c-0.11,0.4-0.5,0.66-1,0.66c-0.48,0-1-0.23-1-0.88c0-0.96,1.36-2.74,4.64-2.74
			c1.77,0,3.66,0.87,3.66,3.29v6.47c0,0.99-0.25,1.32-0.8,1.69C95.97,67.7,94.52,68.05,93.13,68.05z M94.87,61.56
			c-2.05,0.42-4.24,1.05-4.24,3.22c0,1.09,0.76,2.19,2.46,2.19c1.24,0,1.98-0.54,1.98-1.46v-3.99L94.87,61.56z"/>
		<path class="st0" d="M114.12,67.75c-0.18,0-0.22-0.04-0.22-0.22V57.34h-1.46c-0.18,0-0.24-0.06-0.24-0.24v-0.67
			c0-0.15,0.04-0.22,0.24-0.22h1.46v-0.17c0-4.94,2.25-5.68,3.59-5.68c0.75,0,1.21,0.34,1.21,0.91c0,0.5-0.32,0.79-0.88,0.79
			c-0.12,0-0.21-0.03-0.32-0.06c-0.14-0.04-0.29-0.08-0.51-0.08c-0.99,0-1.34,1.19-1.34,2.21c0,0.71,0.15,1.47,0.4,1.98l0.05,0.1
			h2.08c0.18,0,0.22,0.04,0.22,0.22v0.67c0,0.21-0.06,0.24-0.22,0.24h-2.03v10.19c0,0.18-0.04,0.22-0.22,0.22H114.12z"/>
		<path class="st0" d="M124.9,68.05c-2.27,0-4.69-0.8-4.69-3.06c0-3,3.75-3.73,6.49-4.26l0.14-0.03V59c0-1.21-0.74-2.03-1.85-2.03
			c-1.28,0-2.02,0.99-2.28,1.91c-0.11,0.4-0.5,0.66-1,0.66c-0.48,0-1-0.23-1-0.88c0-0.96,1.37-2.74,4.65-2.74
			c1.77,0,3.66,0.87,3.66,3.29v6.47c0,0.99-0.24,1.32-0.8,1.69C127.73,67.7,126.28,68.05,124.9,68.05z M126.63,61.56
			c-2.05,0.42-4.24,1.05-4.24,3.22c0,1.09,0.76,2.19,2.46,2.19c1.24,0,1.98-0.54,1.98-1.46v-3.99L126.63,61.56z"/>
		<path class="st0" d="M132.45,67.75c-0.21,0-0.24-0.06-0.24-0.22v-9.68c0-0.68,0.2-0.99,0.84-1.29c0.66-0.3,1.95-0.65,3.43-0.65
			c1.8,0,2.84,0.55,2.84,1.5c0,0.62-0.34,0.97-0.93,0.97c-0.52,0-0.73-0.28-0.97-0.6c-0.27-0.36-0.57-0.77-1.32-0.77
			c-0.98,0-1.6,0.51-1.6,1.34v9.17c0,0.15-0.03,0.22-0.24,0.22H132.45z"/>
	</g>
	<g>
		<path class="st0" d="M91.37,30.44c-0.79,0-1.37-0.46-1.37-1.09c0-0.64,0.58-1.1,1.37-1.1c0.79,0,1.38,0.47,1.38,1.1
			S92.16,30.44,91.37,30.44z"/>
		<path class="st0" d="M77.47,51.32c-0.76,0-1.22-0.34-1.22-0.92c0-0.51,0.33-0.8,0.89-0.8c0.12,0,0.21,0.03,0.32,0.06
			c0.14,0.04,0.29,0.08,0.51,0.08c1,0,1.35-1.2,1.35-2.23c0-0.71-0.12-3.3-0.12-3.41v-9.6c0-0.18,0.04-0.22,0.22-0.22h1.83
			c0.18,0,0.22,0.04,0.22,0.22v8.96h6.4l-0.23-0.28c-0.89-1.11-1.38-2.68-1.38-4.41c0-3.52,2.05-6.13,5.09-6.13
			c3.06,0,5.12,2.61,5.12,6.13c0,2.98-1.53,6.03-4.95,6.14c-0.03,0-0.05,0-0.08,0c-0.03,0-0.06,0-0.09,0c-0.03,0-0.06,0-0.08,0
			c-0.03,0-0.05,0-0.08,0h-9.72v0.67C81.47,50.91,78.4,51.32,77.47,51.32z M91.32,33.75c-1.73,0-2.77,1.97-2.77,4.84
			c0,2.36,0.74,4.88,2.84,4.88c1.82,0,2.82-1.64,2.82-4.61C94.2,36.51,93.45,33.75,91.32,33.75z"/>
		<path class="st0" d="M105.84,51.32c-0.76,0-1.22-0.34-1.22-0.92c0-0.51,0.32-0.8,0.89-0.8c0.12,0,0.22,0.03,0.33,0.06
			c0.13,0.04,0.29,0.08,0.51,0.08c1,0,1.35-1.2,1.35-2.23c0-0.33-0.03-1.13-0.08-2.44l-0.01-0.15h-0.26c-0.13,0-0.31,0.01-0.52,0.01
			c-0.34,0.01-0.77,0.02-1.3,0.02c-0.5,0-0.97-0.01-1.47-0.03c-2.65-0.12-4.24-2.19-4.24-5.53c0-4.11,2.31-6.77,5.88-6.77
			c2.02,0,3.08,0.57,3.35,0.74c0.6,0.38,0.78,0.75,0.78,1.56v8.54h3.6c1.29-0.03,2.02-0.59,2.02-1.54v-7.41
			c0-0.16,0.04-0.23,0.25-0.23h1.77c0.21,0,0.25,0.07,0.25,0.23v7.87c0,1-0.22,1.5-0.85,1.93c-0.5,0.34-1.83,0.62-3.4,0.62l-0.12,0
			c-0.02,0-0.03,0-0.05,0c-0.01,0-0.02,0-0.03,0h-3.44v0.67C109.85,50.91,106.78,51.32,105.84,51.32z M105.6,33.75
			c-1.64,0-3.41,1.58-3.41,5.06c0,2.92,1.11,4.67,2.97,4.67c0.59,0,1.07-0.01,1.47-0.01c0.29,0,0.53-0.01,0.75-0.01h0.17v-8.24
			C107.54,34.29,106.83,33.75,105.6,33.75z"/>
		<path class="st0" d="M116.56,30.44c-0.79,0-1.38-0.47-1.38-1.09s0.59-1.1,1.38-1.1c0.79,0,1.38,0.47,1.38,1.1
			S117.35,30.44,116.56,30.44z"/>
	</g>
</g>
<g>
	<path class="st1" d="M42.49,59.95L42.49,59.95L42.49,59.95L42.49,59.95L42.49,59.95z"/>
	<path class="st2" d="M42.79,67.92c2.26,0,4.45-0.3,6.54-0.84c-7.4-9.79-18.78-15.9-30.99-16.73
		C21.77,60.57,31.43,67.92,42.79,67.92z"/>
	<path class="st3" d="M19.12,50.41c0.03,0,0.05,0.01,0.08,0.01c11.88,1.05,22.9,7.1,30.13,16.66C44.02,53.7,31.58,43.05,17.07,40.41
		c-0.04,0.58-0.06,1.16-0.06,1.75c0,2.86,0.48,5.62,1.34,8.19c0.17,0.01,0.33,0.02,0.5,0.04C18.93,50.39,19.03,50.4,19.12,50.41z"/>
	<path class="st0" d="M40.97,67.86c0.6,0.04,1.2,0.06,1.8,0.06c14.23,0,25.77-11.54,25.77-25.76c0-3.41-0.66-6.66-1.86-9.63
		c-8.91,2.53-16.49,8.4-20.58,16.99c0,0.01-0.02,0.04-0.02,0.04C43.57,54.84,41.9,61.39,40.97,67.86L40.97,67.86z"/>
	<path class="st4" d="M46.08,49.56c0,0,0.02-0.04,0.02-0.04c1.32-2.78,3.01-5.27,4.98-7.45c1.73-1.92,3.69-3.6,5.84-5.04
		c2.96-1.99,6.25-3.5,9.75-4.49c0,0,0,0,0,0c-0.01-0.02-0.01-0.04-0.02-0.06c-2.16-5.39-5.79-9.56-10.58-12.43
		c-10.42,8.05-17.14,20.67-17.14,34.85c0,4.51,0.68,8.86,1.94,12.95c0.04,0,0.06,0,0.09,0.01C41.9,61.39,43.58,54.84,46.08,49.56z"
		/>
	<path class="st5" d="M38.93,54.89c0-14.19,6.72-26.8,17.14-34.85c0.01,0,0.01,0,0.01-0.01c-2.33-1.38-4.98-2.42-7.7-3.02
		C38.86,26.87,34.07,41,36.71,55.5c0.79,4.35,2.21,8.43,4.11,12.17C39.59,63.63,38.93,59.34,38.93,54.89z"/>
	<path class="st6" d="M56.44,20.26c0,0-0.39-0.24-0.37-0.22c0,0,0,0-0.01,0.01C45.65,28.1,38.93,40.71,38.93,54.89
		c0,4.44,0.66,8.73,1.89,12.78c-0.01-0.02,0.02,0.07,0.05,0.18l0.51,0.03c-1.28-4.17-1.96-8.61-1.96-12.99
		C39.41,41.23,45.6,28.63,56.44,20.26z"/>
	<path class="st6" d="M19.21,50.42c-0.03,0-0.06,0-0.08-0.01c-0.09-0.01-0.19-0.02-0.28-0.02c-0.17-0.01-0.33-0.03-0.5-0.04
		c0.03,0.09,0.16,0.46,0.16,0.46c12.06,1.12,22.93,6.66,30.3,16.4l0.53-0.13c-0.88-1.16-1.96-2.43-2.95-3.49
		C39.27,56.05,29.57,51.33,19.21,50.42z"/>
	<path class="st6" d="M66.66,32.47c0.01,0.02,0.01,0.04,0.02,0.06c0,0,0,0,0,0c-3.5,0.99-6.79,2.5-9.75,4.49
		c-2.15,1.44-4.11,3.12-5.84,5.04c-1.98,2.19-3.66,4.68-4.98,7.45c0,0.01-0.02,0.04-0.02,0.04c-2.5,5.28-4.19,11.85-5.12,18.3
		l0.13,0.01l0.39,0.02c1.01-7.03,2.73-13.34,5.05-18.23c0,0,0.01-0.02,0.02-0.03l0.01-0.01c1.28-2.7,2.95-5.19,4.95-7.4
		c1.7-1.88,3.64-3.57,5.79-5c2.87-1.92,6.08-3.39,9.5-4.39l-0.01-0.03C66.79,32.8,66.64,32.43,66.66,32.47z"/>
</g>
</svg>
