<?xml version="1.0" standalone="no"?>
<!DOCTYPE svg PUBLIC "-//W3C//DTD SVG 1.1//EN" "http://www.w3.org/Graphics/SVG/1.1/DTD/svg11.dtd" >
<svg>
<metadata>
Created by FontForge 20090914 at Mon Apr 27 09:41:08 2020
 By www-data
Copyright 2018 Dalton Maag Ltd. Modification of this file requires prior written permission from Dalton Maag Ltd.
</metadata>
<defs>
<font id="AirArabia-Light" horiz-adv-x="652" >
  <font-face 
    font-family="AirArabia"
    font-weight="300"
    font-stretch="normal"
    units-per-em="1000"
    panose-1="2 11 3 3 6 2 2 2 2 4"
    ascent="800"
    descent="-200"
    x-height="493.997"
    cap-height="686.001"
    bbox="-227.997 -435.001 1340.02 1310"
    underline-thickness="55"
    underline-position="-206"
    unicode-range="U+000D-U+FEFC"
  />
<missing-glyph horiz-adv-x="500" 
d="M450 0h-400v750h400v-750zM100 50h300v650h-300v-650z" />
    <glyph glyph-name="uniFDF2" unicode="&#x627;&#xfedf;&#xfee0;&#xfeea;" horiz-adv-x="1311" arabic-form="isolated" 
d="M742 1275l0.000976562 -183.999h-52v164c0 9.33301 2.66699 16.166 8 20.499s11.666 6.5 18.999 6.5c8.66699 0 17 -2.33301 25 -7zM847.001 1026l-0.000976562 -168h-83c-14 0 -23.833 1.5 -29.5 4.5s-11.834 8.5 -18.501 16.5c-12.667 -16 -31 -24 -55 -24
c-7.33301 0 -17.166 1.5 -29.499 4.5s-23.166 10.333 -32.499 22s-14 30.167 -14 55.5v70c0 8 2.5 14 7.5 18s11.167 6 18.5 6c6.66699 0 14 -1.66699 22 -5v-91c0 -12.667 2.83301 -21.5 8.5 -26.5s13.167 -7.5 22.5 -7.5c18.667 0 28 11.333 28 34v72c0 8 2.5 14 7.5 18
s11.167 6 18.5 6c6 0 13.333 -1.66699 22 -5v-91c0 -20.667 7.66699 -31 23 -31h36v103c0 8 2.5 14 7.5 18s11.167 6 18.5 6c6.66699 0 14 -1.66699 22 -5zM947 58.001l0.000976562 695.001c0 10 2.66699 18.167 8 24.5s14 9.5 26 9.5c5.33301 0 10.833 -0.833008 16.5 -2.5
s9.5 -3.16699 11.5 -4.5v-780h-144c-38.667 0 -70.834 7 -96.501 21s-44.167 32.333 -55.5 55c-16.667 -28 -36.667 -47.667 -60 -59s-54 -17 -92 -17h-270c-81.333 0 -141 19.333 -179 58s-57 91.334 -57 158.001c0 49.333 11.5 90.666 34.5 123.999
s53.833 58.666 92.5 75.999s81.667 26 129 26h148v-384h102c35.333 0 61.5 7 78.5 21s28.333 33.667 34 59s8.5 55.333 8.5 90v525c0 10 2.66699 18.167 8 24.5s14 9.5 26 9.5c5.33301 0 10.833 -0.833008 16.5 -2.5s9.5 -3.16699 11.5 -4.5v-553
c0 -34 2.83301 -63.667 8.5 -89s17 -45 34 -59s43.167 -21 78.5 -21h82zM397.001 58.002v326h-90c-34.667 0 -66 -6 -94 -18s-50.333 -30.333 -67 -55s-25 -56.334 -25 -95.001c0 -33.333 5.66699 -62.5 17 -87.5s36 -44.5 74 -58.5
c9.33301 -3.33301 21.5 -6.16602 36.5 -8.49902s29.833 -3.5 44.5 -3.5h104zM1169 0.00195312v753c0 10 2.66699 18.167 8 24.5s14 9.5 26 9.5c5.33301 0 10.833 -0.833008 16.5 -2.5s9.5 -3.16699 11.5 -4.5v-780h-62z" />
    <glyph glyph-name="uniFEF5" unicode="&#xfedf;&#xfe82;" horiz-adv-x="553" arabic-form="isolated" 
d="M411 58v695c0 10 2.66699 18.167 8 24.5s14 9.5 26 9.5c5.33301 0 10.833 -0.833008 16.5 -2.5s9.5 -3.16699 11.5 -4.5v-780h-433v58h107v500c0 10 2.66699 18.167 8 24.5s14 9.5 26 9.5c5.33301 0 10.833 -0.833008 16.5 -2.5s9.5 -3.16699 11.5 -4.5v-527h202z
M110 688h-46.999c0 34 7.16699 57.667 21.5 71s29.833 20 46.5 20c12.667 0 25.167 -3.16699 37.5 -9.5l37 -19c12.333 -6.33301 25.5 -9.5 39.5 -9.5c7.33301 0 13.166 3 17.499 9s6.5 16.333 6.5 31h47c0 -34 -6.5 -57.833 -19.5 -71.5s-28.833 -20.5 -47.5 -20.5
c-12.667 0 -26 3.16699 -40 9.5s-27.333 12.666 -40 18.999s-24 9.5 -34 9.5c-7.33301 0 -13.333 -2.66699 -18 -8s-7 -15.666 -7 -30.999z" />
    <glyph glyph-name="uniFEF6" unicode="&#xfee0;&#xfe82;" horiz-adv-x="620" arabic-form="final" 
d="M290 0h-249.999v58h107v500c0 10 2.66699 18.167 8 24.5s14 9.5 26 9.5c5.33301 0 10.833 -0.833008 16.5 -2.5s9.5 -3.16699 11.5 -4.5v-527h81c34.667 0 60.667 7 78 21s28.833 33.667 34.5 59s8.5 55.333 8.5 90v525c0 10 2.66699 18.167 8 24.5s14 9.5 26 9.5
c5.33301 0 10.833 -0.833008 16.5 -2.5s9.5 -3.16699 11.5 -4.5v-553c0 -34 2.83301 -63.667 8.5 -89s17.167 -45 34.5 -59s43.333 -21 78 -21h41v-58h-41c-38.667 0 -70.834 7 -96.501 21s-44.167 32.333 -55.5 55c-16.667 -28 -36.667 -47.667 -60 -59s-54 -17 -92 -17z
M110.001 688h-46.999c0 34 7.16699 57.667 21.5 71s29.833 20 46.5 20c12.667 0 25.167 -3.16699 37.5 -9.5l37 -19c12.333 -6.33301 25.5 -9.5 39.5 -9.5c7.33301 0 13.166 3 17.499 9s6.5 16.333 6.5 31h47c0 -34 -6.5 -57.833 -19.5 -71.5s-28.833 -20.5 -47.5 -20.5
c-12.667 0 -26 3.16699 -40 9.5s-27.333 12.666 -40 18.999s-24 9.5 -34 9.5c-7.33301 0 -13.333 -2.66699 -18 -8s-7 -15.666 -7 -30.999z" />
    <glyph glyph-name="uniFEF7" unicode="&#xfedf;&#xfe84;" horiz-adv-x="553" arabic-form="isolated" 
d="M411 58v695c0 10 2.66699 18.167 8 24.5s14 9.5 26 9.5c5.33301 0 10.833 -0.833008 16.5 -2.5s9.5 -3.16699 11.5 -4.5v-780h-433v58h107v500c0 10 2.66699 18.167 8 24.5s14 9.5 26 9.5c5.33301 0 10.833 -0.833008 16.5 -2.5s9.5 -3.16699 11.5 -4.5v-527h202zM90 685
l0.000976562 41.999h49c-8 7.33301 -13.833 15.833 -17.5 25.5s-5.5 18.834 -5.5 27.501c0 18 4.66699 32.667 14 44s20.833 19.5 34.5 24.5s27.5 7.5 41.5 7.5c14.667 0 27.667 -2.83301 39 -8.5s17 -13.167 17 -22.5c0 -8 -4.33301 -16.667 -13 -26
c-11.333 10 -25.333 15 -42 15c-11.333 0 -21.333 -3.16699 -30 -9.5s-13 -16.5 -13 -30.5c0 -11.333 4.16699 -22 12.5 -32s21.166 -15 38.499 -15h49v-42h-174z" />
    <glyph glyph-name="uniFEF8" unicode="&#xfee0;&#xfe84;" horiz-adv-x="620" arabic-form="final" 
d="M290 0h-249.999v58h107v500c0 10 2.66699 18.167 8 24.5s14 9.5 26 9.5c5.33301 0 10.833 -0.833008 16.5 -2.5s9.5 -3.16699 11.5 -4.5v-527h81c34.667 0 60.667 7 78 21s28.833 33.667 34.5 59s8.5 55.333 8.5 90v525c0 10 2.66699 18.167 8 24.5s14 9.5 26 9.5
c5.33301 0 10.833 -0.833008 16.5 -2.5s9.5 -3.16699 11.5 -4.5v-553c0 -34 2.83301 -63.667 8.5 -89s17.167 -45 34.5 -59s43.333 -21 78 -21h41v-58h-41c-38.667 0 -70.834 7 -96.501 21s-44.167 32.333 -55.5 55c-16.667 -28 -36.667 -47.667 -60 -59s-54 -17 -92 -17z
M91.001 685l0.000976562 41.999h49c-8 7.33301 -13.833 15.833 -17.5 25.5s-5.5 18.834 -5.5 27.501c0 18 4.66699 32.667 14 44s20.833 19.5 34.5 24.5s27.5 7.5 41.5 7.5c14.667 0 27.667 -2.83301 39 -8.5s17 -13.167 17 -22.5c0 -8 -4.33301 -16.667 -13 -26
c-11.333 10 -25.333 15 -42 15c-11.333 0 -21.333 -3.16699 -30 -9.5s-13 -16.5 -13 -30.5c0 -11.333 4.16699 -22 12.5 -32s21.166 -15 38.499 -15h49v-42h-174z" />
    <glyph glyph-name="uniFEF9" unicode="&#xfedf;&#xfe88;" horiz-adv-x="553" arabic-form="isolated" 
d="M411 58v695c0 10 2.66699 18.167 8 24.5s14 9.5 26 9.5c5.33301 0 10.833 -0.833008 16.5 -2.5s9.5 -3.16699 11.5 -4.5v-780h-433v58h107v500c0 10 2.66699 18.167 8 24.5s14 9.5 26 9.5c5.33301 0 10.833 -0.833008 16.5 -2.5s9.5 -3.16699 11.5 -4.5v-527h202z
M76 -224l0.000976562 41.999h49c-8 7.33301 -13.833 15.833 -17.5 25.5s-5.5 18.834 -5.5 27.501c0 18 4.66699 32.667 14 44s20.833 19.5 34.5 24.5s27.5 7.5 41.5 7.5c14.667 0 27.667 -2.83301 39 -8.5s17 -13.167 17 -22.5c0 -8 -4.33301 -16.667 -13 -26
c-11.333 10 -25.333 15 -42 15c-11.333 0 -21.333 -3.16699 -30 -9.5s-13 -16.5 -13 -30.5c0 -11.333 4.16699 -22 12.5 -32s21.166 -15 38.499 -15h49v-42h-174z" />
    <glyph glyph-name="uniFEFA" unicode="&#xfee0;&#xfe88;" horiz-adv-x="620" arabic-form="final" 
d="M290 0h-249.999v58h107v500c0 10 2.66699 18.167 8 24.5s14 9.5 26 9.5c5.33301 0 10.833 -0.833008 16.5 -2.5s9.5 -3.16699 11.5 -4.5v-527h81c34.667 0 60.667 7 78 21s28.833 33.667 34.5 59s8.5 55.333 8.5 90v525c0 10 2.66699 18.167 8 24.5s14 9.5 26 9.5
c5.33301 0 10.833 -0.833008 16.5 -2.5s9.5 -3.16699 11.5 -4.5v-553c0 -34 2.83301 -63.667 8.5 -89s17.167 -45 34.5 -59s43.333 -21 78 -21h41v-58h-41c-38.667 0 -70.834 7 -96.501 21s-44.167 32.333 -55.5 55c-16.667 -28 -36.667 -47.667 -60 -59s-54 -17 -92 -17z
M76.001 -224l0.000976562 41.999h49c-8 7.33301 -13.833 15.833 -17.5 25.5s-5.5 18.834 -5.5 27.501c0 18 4.66699 32.667 14 44s20.833 19.5 34.5 24.5s27.5 7.5 41.5 7.5c14.667 0 27.667 -2.83301 39 -8.5s17 -13.167 17 -22.5c0 -8 -4.33301 -16.667 -13 -26
c-11.333 10 -25.333 15 -42 15c-11.333 0 -21.333 -3.16699 -30 -9.5s-13 -16.5 -13 -30.5c0 -11.333 4.16699 -22 12.5 -32s21.166 -15 38.499 -15h49v-42h-174z" />
    <glyph glyph-name="uniFEFB" unicode="&#xfedf;&#xfe8e;" horiz-adv-x="553" arabic-form="isolated" 
d="M411 58v695c0 10 2.66699 18.167 8 24.5s14 9.5 26 9.5c5.33301 0 10.833 -0.833008 16.5 -2.5s9.5 -3.16699 11.5 -4.5v-780h-433v58h107v500c0 10 2.66699 18.167 8 24.5s14 9.5 26 9.5c5.33301 0 10.833 -0.833008 16.5 -2.5s9.5 -3.16699 11.5 -4.5v-527h202z" />
    <glyph glyph-name="uniFEFC" unicode="&#xfee0;&#xfe8e;" horiz-adv-x="620" arabic-form="final" 
d="M290 0h-249.999v58h107v500c0 10 2.66699 18.167 8 24.5s14 9.5 26 9.5c5.33301 0 10.833 -0.833008 16.5 -2.5s9.5 -3.16699 11.5 -4.5v-527h81c34.667 0 60.667 7 78 21s28.833 33.667 34.5 59s8.5 55.333 8.5 90v525c0 10 2.66699 18.167 8 24.5s14 9.5 26 9.5
c5.33301 0 10.833 -0.833008 16.5 -2.5s9.5 -3.16699 11.5 -4.5v-553c0 -34 2.83301 -63.667 8.5 -89s17.167 -45 34.5 -59s43.333 -21 78 -21h41v-58h-41c-38.667 0 -70.834 7 -96.501 21s-44.167 32.333 -55.5 55c-16.667 -28 -36.667 -47.667 -60 -59s-54 -17 -92 -17z
" />
    <glyph glyph-name="f_f.liga" unicode="ff" horiz-adv-x="688" 
d="M682 436l-154 -0.00390625v-436h-66v436h-277v-436h-66v436h-61c-9.33301 0 -17.166 2.16699 -23.499 6.5s-9.5 11.833 -9.5 22.5c0 7.33301 1.16699 13.5 3.5 18.5s4.16602 8.5 5.49902 10.5h85v66c0 41.333 8 75 24 101s37.667 45.167 65 57.5s58.333 18.5 93 18.5
s60.167 -3 76.5 -9s27.166 -10.333 32.499 -13c6.66699 -4 11.667 -8.33301 15 -13s5 -10.667 5 -18s-2.33301 -14.166 -7 -20.499s-8.66699 -11.166 -12 -14.499c-9.33301 8 -23.166 15.667 -41.499 23s-39.833 11 -64.5 11c-32.667 0 -57.5 -6 -74.5 -18
s-28.833 -28.167 -35.5 -48.5s-10 -43.833 -10 -70.5v-52h277v66c0 41.333 8 75 24 101s37.667 45.167 65 57.5s58.333 18.5 93 18.5s60.167 -3 76.5 -9s27.166 -10.333 32.499 -13c6.66699 -4 11.667 -8.33301 15 -13s5 -10.667 5 -18s-2.33301 -14.166 -7 -20.499
s-8.66699 -11.166 -12 -14.499c-9.33301 8 -23.166 15.667 -41.499 23s-39.833 11 -64.5 11c-32 0 -56.667 -6 -74 -18s-29.333 -28.167 -36 -48.5s-10 -43.833 -10 -70.5v-52h130c9.33301 0 17.166 -2.16699 23.499 -6.5s9.5 -11.833 9.5 -22.5
c0 -7.33301 -1.16699 -13.5 -3.5 -18.5s-4.16602 -8.5 -5.49902 -10.5z" />
    <glyph glyph-name="f_i.liga" unicode="fi" horiz-adv-x="619" 
d="M185 494h303c22 0 33 -12 33 -36v-458h-66v436h-270v-436h-66v436h-61c-9.33301 0 -17.166 2.16699 -23.499 6.5s-9.5 11.833 -9.5 22.5c0 7.33301 1.16699 13.5 3.5 18.5s4.16602 8.5 5.49902 10.5h85v53c0 48.667 9.66699 86.834 29 114.501s44.833 47.167 76.5 58.5
s65.5 17 101.5 17s64.5 -2.66699 85.5 -8s35.5 -10.333 43.5 -15c6 -3.33301 11.167 -7.33301 15.5 -12s6.5 -11.334 6.5 -20.001c0 -6 -1.66699 -11.833 -5 -17.5s-7.33301 -10.167 -12 -13.5c-13.333 9.33301 -32.5 17 -57.5 23s-50.833 9 -77.5 9
c-50 0 -85.833 -12.333 -107.5 -37s-32.5 -63.667 -32.5 -117v-35z" />
    <glyph glyph-name="f_l.liga" unicode="fl" horiz-adv-x="604" 
d="M440 0v670.001c-3.33301 1.33301 -14.833 3.83301 -34.5 7.5s-43.5 5.5 -71.5 5.5c-51.333 0 -89 -11.833 -113 -35.5s-36 -62.167 -36 -115.5v-38h130c9.33301 0 17.166 -2.16699 23.499 -6.5s9.5 -11.833 9.5 -22.5c0 -7.33301 -1.16699 -13.5 -3.5 -18.5
s-4.16602 -8.5 -5.49902 -10.5h-154v-436h-66v436h-61c-9.33301 0 -17.166 2.16699 -23.499 6.5s-9.5 11.833 -9.5 22.5c0 7.33301 1.16699 13.5 3.5 18.5s4.16602 8.5 5.49902 10.5h85v42c0 52 10.167 92.667 30.5 122s47 49.833 80 61.5s68.167 17.5 105.5 17.5
c30 0 57.667 -2.16699 83 -6.5s46 -8.83301 62 -13.5s24.667 -7.33398 26 -8.00098v-709h-66z" />
    <glyph glyph-name="f_f_i.liga" unicode="ffi" horiz-adv-x="962" 
d="M528 494l303.001 -0.00195312c22 0 33 -12 33 -36v-458h-66v436h-270v-436h-66v436h-277v-436h-66v436h-61c-9.33301 0 -17.166 2.16699 -23.499 6.5s-9.5 11.833 -9.5 22.5c0 7.33301 1.16699 13.5 3.5 18.5s4.16602 8.5 5.49902 10.5h85v66c0 41.333 8 75 24 101
s37.667 45.167 65 57.5s58.333 18.5 93 18.5s60.167 -3 76.5 -9s27.166 -10.333 32.499 -13c6.66699 -4 11.667 -8.33301 15 -13s5 -10.667 5 -18s-2.33301 -14.166 -7 -20.499s-8.66699 -11.166 -12 -14.499c-9.33301 8 -23.166 15.667 -41.499 23s-39.833 11 -64.5 11
c-32.667 0 -57.5 -6 -74.5 -18s-28.833 -28.167 -35.5 -48.5s-10 -43.833 -10 -70.5v-52h277v53c0 48.667 9.66699 86.834 29 114.501s44.666 47.167 75.999 58.5s65.333 17 102 17c36 0 64.5 -2.66699 85.5 -8s35.5 -10.333 43.5 -15c6 -3.33301 11.167 -7.33301 15.5 -12
s6.5 -11.334 6.5 -20.001c0 -6 -1.66699 -11.833 -5 -17.5s-7.33301 -10.167 -12 -13.5c-13.333 9.33301 -32.5 17 -57.5 23s-50.833 9 -77.5 9c-50 0 -85.833 -12.333 -107.5 -37s-32.5 -63.667 -32.5 -117v-35z" />
    <glyph glyph-name="f_f_l.liga" unicode="ffl" horiz-adv-x="947" 
d="M783 0v669.999c-3.33301 1.33301 -14.833 3.83301 -34.5 7.5s-43.5 5.5 -71.5 5.5c-51.333 0 -89 -11.833 -113 -35.5s-36 -62.167 -36 -115.5v-38h130c9.33301 0 17.166 -2.16699 23.499 -6.5s9.5 -11.833 9.5 -22.5c0 -7.33301 -1.16699 -13.5 -3.5 -18.5
s-4.16602 -8.5 -5.49902 -10.5h-154v-436h-66v436h-277v-436h-66v436h-61c-9.33301 0 -17.166 2.16699 -23.499 6.5s-9.5 11.833 -9.5 22.5c0 7.33301 1.16699 13.5 3.5 18.5s4.16602 8.5 5.49902 10.5h85v66c0 41.333 8 75 24 101s37.667 45.167 65 57.5
s58.333 18.5 93 18.5s60.167 -3 76.5 -9s27.166 -10.333 32.499 -13c6.66699 -4 11.667 -8.33301 15 -13s5 -10.667 5 -18s-2.33301 -14.166 -7 -20.499s-8.66699 -11.166 -12 -14.499c-9.33301 8 -23.166 15.667 -41.499 23s-39.833 11 -64.5 11
c-32.667 0 -57.5 -6 -74.5 -18s-28.833 -28.167 -35.5 -48.5s-10 -43.833 -10 -70.5v-52h277v42c0 52 10.167 92.667 30.5 122s47 49.833 80 61.5s68.167 17.5 105.5 17.5c30.667 0 58.5 -2.16699 83.5 -6.5s45.333 -8.83301 61 -13.5s24.5 -7.33398 26.5 -8.00098v-709h-66
z" />
    <glyph glyph-name="uniFEDF_uniFB51.rlig" unicode="&#xfedf;&#xfb51;" horiz-adv-x="553" 
d="M411 58v695c0 10 2.66699 18.167 8 24.5s14 9.5 26 9.5c5.33301 0 10.833 -0.833008 16.5 -2.5s9.5 -3.16699 11.5 -4.5v-780h-433v58h107v500c0 10 2.66699 18.167 8 24.5s14 9.5 26 9.5c5.33301 0 10.833 -0.833008 16.5 -2.5s9.5 -3.16699 11.5 -4.5v-527h202zM76 717
c4.66699 37.333 18 66.167 40 86.5s50 30.5 84 30.5c24 0 45.167 -7.33301 63.5 -22s27.5 -38.667 27.5 -72v-65h-247v42h32zM122 717.001l123 0.000976562v22c0 17.333 -4.83301 30.166 -14.5 38.499s-21.834 12.5 -36.501 12.5c-17.333 0 -33.166 -6 -47.499 -18
s-22.5 -30.333 -24.5 -55z" />
    <glyph glyph-name="uniFEE0_uniFB51.rlig" unicode="&#xfee0;&#xfb51;" horiz-adv-x="620" 
d="M290 0h-249.999v58h107v500c0 10 2.66699 18.167 8 24.5s14 9.5 26 9.5c5.33301 0 10.833 -0.833008 16.5 -2.5s9.5 -3.16699 11.5 -4.5v-527h81c34.667 0 60.667 7 78 21s28.833 33.667 34.5 59s8.5 55.333 8.5 90v525c0 10 2.66699 18.167 8 24.5s14 9.5 26 9.5
c5.33301 0 10.833 -0.833008 16.5 -2.5s9.5 -3.16699 11.5 -4.5v-553c0 -34 2.83301 -63.667 8.5 -89s17.167 -45 34.5 -59s43.333 -21 78 -21h41v-58h-41c-38.667 0 -70.834 7 -96.501 21s-44.167 32.333 -55.5 55c-16.667 -28 -36.667 -47.667 -60 -59s-54 -17 -92 -17z
M76.001 717c4.66699 37.333 18 66.167 40 86.5s50 30.5 84 30.5c24 0 45.167 -7.33301 63.5 -22s27.5 -38.667 27.5 -72v-65h-247v42h32zM122.001 717.001l123 0.000976562v22c0 17.333 -4.83301 30.166 -14.5 38.499s-21.834 12.5 -36.501 12.5
c-17.333 0 -33.166 -6 -47.499 -18s-22.5 -30.333 -24.5 -55z" />
    <glyph glyph-name="uniFEDF_uniFEE0_uniFEEA.rlig" unicode="&#xfedf;&#xfee0;&#xfeea;" horiz-adv-x="1089" 
d="M742 1275l0.000976562 -183.999h-52v164c0 9.33301 2.66699 16.166 8 20.499s11.666 6.5 18.999 6.5c8.66699 0 17 -2.33301 25 -7zM847.001 1026l-0.000976562 -168h-83c-14 0 -23.833 1.5 -29.5 4.5s-11.834 8.5 -18.501 16.5c-12.667 -16 -31 -24 -55 -24
c-7.33301 0 -17.166 1.5 -29.499 4.5s-23.166 10.333 -32.499 22s-14 30.167 -14 55.5v70c0 8 2.5 14 7.5 18s11.167 6 18.5 6c6.66699 0 14 -1.66699 22 -5v-91c0 -12.667 2.83301 -21.5 8.5 -26.5s13.167 -7.5 22.5 -7.5c18.667 0 28 11.333 28 34v72c0 8 2.5 14 7.5 18
s11.167 6 18.5 6c6 0 13.333 -1.66699 22 -5v-91c0 -20.667 7.66699 -31 23 -31h36v103c0 8 2.5 14 7.5 18s11.167 6 18.5 6c6.66699 0 14 -1.66699 22 -5zM947 58.001l0.000976562 695.001c0 10 2.66699 18.167 8 24.5s14 9.5 26 9.5c5.33301 0 10.833 -0.833008 16.5 -2.5
s9.5 -3.16699 11.5 -4.5v-780h-144c-38.667 0 -70.834 7 -96.501 21s-44.167 32.333 -55.5 55c-16.667 -28 -36.667 -47.667 -60 -59s-54 -17 -92 -17h-270c-81.333 0 -141 19.333 -179 58s-57 91.334 -57 158.001c0 49.333 11.5 90.666 34.5 123.999
s53.833 58.666 92.5 75.999s81.667 26 129 26h148v-384h102c35.333 0 61.5 7 78.5 21s28.333 33.667 34 59s8.5 55.333 8.5 90v525c0 10 2.66699 18.167 8 24.5s14 9.5 26 9.5c5.33301 0 10.833 -0.833008 16.5 -2.5s9.5 -3.16699 11.5 -4.5v-553
c0 -34 2.83301 -63.667 8.5 -89s17 -45 34 -59s43.167 -21 78.5 -21h82zM397.001 58.002v326h-90c-34.667 0 -66 -6 -94 -18s-50.333 -30.333 -67 -55s-25 -56.334 -25 -95.001c0 -33.333 5.66699 -62.5 17 -87.5s36 -44.5 74 -58.5
c9.33301 -3.33301 21.5 -6.16602 36.5 -8.49902s29.833 -3.5 44.5 -3.5h104z" />
    <glyph glyph-name="uniFEDB_uniFE8E.rlig" unicode="&#xfedb;&#xfe8e;" horiz-adv-x="613" 
d="M565 765l-311.002 -323h12c32 0 65.167 -4.5 99.5 -13.5s66.5 -24.5 96.5 -46.5s54.333 -51.833 73 -89.5s28 -85.5 28 -143.5v-149h-483v753c0 10 2.66699 18.167 8 24.5s14 9.5 26 9.5c5.33301 0 10.666 -0.833008 15.999 -2.5s9.33301 -3.16699 12 -4.5v-367l333 352
c10.667 11.333 19.834 17.833 27.501 19.5s14.834 2.5 21.501 2.5c16.667 0 30.334 -7.33301 41.001 -22zM500.998 58l-0.00390625 73.999c0 49.333 -6.83301 90.333 -20.5 123s-31.667 58.334 -54 77.001s-47.166 32 -74.499 40s-54.666 12 -81.999 12
c-23.333 0 -46.666 -3 -69.999 -9s-42.666 -13.667 -57.999 -23v-294h359z" />
    <glyph glyph-name="uniFEDC_uniFE8E.rlig" unicode="&#xfedc;&#xfe8e;" horiz-adv-x="681" 
d="M254 442h11.998c32 0 65.167 -4.5 99.5 -13.5s66.5 -24.5 96.5 -46.5s54.333 -51.833 73 -89.5s28 -85.5 28 -143.5v-91h133v-58h-616v753c0 10 2.66699 18.167 8 24.5s14 9.5 26 9.5c5.33301 0 10.666 -0.833008 15.999 -2.5s9.33301 -3.16699 12 -4.5v-367l333 352
c10.667 11.333 19.834 17.833 27.501 19.5s14.834 2.5 21.501 2.5c16.667 0 30.334 -7.33301 41.001 -22zM500.998 58l-0.00390625 73.999c0 49.333 -6.83301 90.333 -20.5 123s-31.667 58.334 -54 77.001s-47.166 32 -74.499 40s-54.666 12 -81.999 12
c-23.333 0 -46.666 -3 -69.999 -9s-42.666 -13.667 -57.999 -23v-294h359z" />
    <glyph glyph-name="uniFEDB_uniFE82.rlig" unicode="&#xfedb;&#xfe82;" horiz-adv-x="613" 
d="M565 765l-311.002 -323h12c32 0 65.167 -4.5 99.5 -13.5s66.5 -24.5 96.5 -46.5s54.333 -51.833 73 -89.5s28 -85.5 28 -143.5v-149h-483v753c0 10 2.66699 18.167 8 24.5s14 9.5 26 9.5c5.33301 0 10.666 -0.833008 15.999 -2.5s9.33301 -3.16699 12 -4.5v-367l333 352
c10.667 11.333 19.834 17.833 27.501 19.5s14.834 2.5 21.501 2.5c16.667 0 30.334 -7.33301 41.001 -22zM500.998 58l-0.00390625 73.999c0 49.333 -6.83301 90.333 -20.5 123s-31.667 58.334 -54 77.001s-47.166 32 -74.499 40s-54.666 12 -81.999 12
c-23.333 0 -46.666 -3 -69.999 -9s-42.666 -13.667 -57.999 -23v-294h359zM38.9941 863.999h-46.999c0 34 7.16699 57.667 21.5 71s29.833 20 46.5 20c12.667 0 25.167 -3.16699 37.5 -9.5l37 -19c12.333 -6.33301 25.5 -9.5 39.5 -9.5c7.33301 0 13.166 3 17.499 9
s6.5 16.333 6.5 31h47c0 -34 -6.5 -57.833 -19.5 -71.5s-28.833 -20.5 -47.5 -20.5c-12.667 0 -26 3.16699 -40 9.5s-27.333 12.666 -40 18.999s-24 9.5 -34 9.5c-7.33301 0 -13.333 -2.66699 -18 -8s-7 -15.666 -7 -30.999z" />
    <glyph glyph-name="uniFEDC_uniFE82.rlig" unicode="&#xfedc;&#xfe82;" horiz-adv-x="681" 
d="M254 442h11.998c32 0 65.167 -4.5 99.5 -13.5s66.5 -24.5 96.5 -46.5s54.333 -51.833 73 -89.5s28 -85.5 28 -143.5v-91h133v-58h-616v753c0 10 2.66699 18.167 8 24.5s14 9.5 26 9.5c5.33301 0 10.666 -0.833008 15.999 -2.5s9.33301 -3.16699 12 -4.5v-367l333 352
c10.667 11.333 19.834 17.833 27.501 19.5s14.834 2.5 21.501 2.5c16.667 0 30.334 -7.33301 41.001 -22zM500.998 58l-0.00390625 73.999c0 49.333 -6.83301 90.333 -20.5 123s-31.667 58.334 -54 77.001s-47.166 32 -74.499 40s-54.666 12 -81.999 12
c-23.333 0 -46.666 -3 -69.999 -9s-42.666 -13.667 -57.999 -23v-294h359zM39.9941 863.999h-46.999c0 34 7.16699 57.667 21.5 71s29.833 20 46.5 20c12.667 0 25.167 -3.16699 37.5 -9.5l37 -19c12.333 -6.33301 25.5 -9.5 39.5 -9.5c7.33301 0 13.166 3 17.499 9
s6.5 16.333 6.5 31h47c0 -34 -6.5 -57.833 -19.5 -71.5s-28.833 -20.5 -47.5 -20.5c-12.667 0 -26 3.16699 -40 9.5s-27.333 12.666 -40 18.999s-24 9.5 -34 9.5c-7.33301 0 -13.333 -2.66699 -18 -8s-7 -15.666 -7 -30.999z" />
    <glyph glyph-name="uniFEDB_uniFE84.rlig" unicode="&#xfedb;&#xfe84;" horiz-adv-x="613" 
d="M565 765l-311.002 -323h12c32 0 65.167 -4.5 99.5 -13.5s66.5 -24.5 96.5 -46.5s54.333 -51.833 73 -89.5s28 -85.5 28 -143.5v-149h-483v753c0 10 2.66699 18.167 8 24.5s14 9.5 26 9.5c5.33301 0 10.666 -0.833008 15.999 -2.5s9.33301 -3.16699 12 -4.5v-367l333 352
c10.667 11.333 19.834 17.833 27.501 19.5s14.834 2.5 21.501 2.5c16.667 0 30.334 -7.33301 41.001 -22zM500.998 58l-0.00390625 73.999c0 49.333 -6.83301 90.333 -20.5 123s-31.667 58.334 -54 77.001s-47.166 32 -74.499 40s-54.666 12 -81.999 12
c-23.333 0 -46.666 -3 -69.999 -9s-42.666 -13.667 -57.999 -23v-294h359zM35.9941 857.999l0.000976562 41.999h49c-8 7.33301 -13.833 15.833 -17.5 25.5s-5.5 18.834 -5.5 27.501c0 18 4.66699 32.667 14 44s20.833 19.5 34.5 24.5s27.5 7.5 41.5 7.5
c14.667 0 27.667 -2.83301 39 -8.5s17 -13.167 17 -22.5c0 -8 -4.33301 -16.667 -13 -26c-11.333 10 -25.333 15 -42 15c-11.333 0 -21.333 -3.16699 -30 -9.5s-13 -16.5 -13 -30.5c0 -11.333 4.16699 -22 12.5 -32s21.166 -15 38.499 -15h49v-42h-174z" />
    <glyph glyph-name="uniFEDC_uniFE84.rlig" unicode="&#xfedc;&#xfe84;" horiz-adv-x="681" 
d="M254 442h11.998c32 0 65.167 -4.5 99.5 -13.5s66.5 -24.5 96.5 -46.5s54.333 -51.833 73 -89.5s28 -85.5 28 -143.5v-91h133v-58h-616v753c0 10 2.66699 18.167 8 24.5s14 9.5 26 9.5c5.33301 0 10.666 -0.833008 15.999 -2.5s9.33301 -3.16699 12 -4.5v-367l333 352
c10.667 11.333 19.834 17.833 27.501 19.5s14.834 2.5 21.501 2.5c16.667 0 30.334 -7.33301 41.001 -22zM500.998 58l-0.00390625 73.999c0 49.333 -6.83301 90.333 -20.5 123s-31.667 58.334 -54 77.001s-47.166 32 -74.499 40s-54.666 12 -81.999 12
c-23.333 0 -46.666 -3 -69.999 -9s-42.666 -13.667 -57.999 -23v-294h359zM35.9941 857.999l0.000976562 41.999h49c-8 7.33301 -13.833 15.833 -17.5 25.5s-5.5 18.834 -5.5 27.501c0 18 4.66699 32.667 14 44s20.833 19.5 34.5 24.5s27.5 7.5 41.5 7.5
c14.667 0 27.667 -2.83301 39 -8.5s17 -13.167 17 -22.5c0 -8 -4.33301 -16.667 -13 -26c-11.333 10 -25.333 15 -42 15c-11.333 0 -21.333 -3.16699 -30 -9.5s-13 -16.5 -13 -30.5c0 -11.333 4.16699 -22 12.5 -32s21.166 -15 38.499 -15h49v-42h-174z" />
    <glyph glyph-name="uniFEDB_uniFE88.rlig" unicode="&#xfedb;&#xfe88;" horiz-adv-x="613" 
d="M565 765l-311.002 -323h12c32 0 65.167 -4.5 99.5 -13.5s66.5 -24.5 96.5 -46.5s54.333 -51.833 73 -89.5s28 -85.5 28 -143.5v-149h-483v753c0 10 2.66699 18.167 8 24.5s14 9.5 26 9.5c5.33301 0 10.666 -0.833008 15.999 -2.5s9.33301 -3.16699 12 -4.5v-367l333 352
c10.667 11.333 19.834 17.833 27.501 19.5s14.834 2.5 21.501 2.5c16.667 0 30.334 -7.33301 41.001 -22zM500.998 58l-0.00390625 73.999c0 49.333 -6.83301 90.333 -20.5 123s-31.667 58.334 -54 77.001s-47.166 32 -74.499 40s-54.666 12 -81.999 12
c-23.333 0 -46.666 -3 -69.999 -9s-42.666 -13.667 -57.999 -23v-294h359zM80.9941 -224.001l0.000976562 41.999h49c-8 7.33301 -13.833 15.833 -17.5 25.5s-5.5 18.834 -5.5 27.501c0 18 4.66699 32.667 14 44s20.833 19.5 34.5 24.5s27.5 7.5 41.5 7.5
c14.667 0 27.667 -2.83301 39 -8.5s17 -13.167 17 -22.5c0 -8 -4.33301 -16.667 -13 -26c-11.333 10 -25.333 15 -42 15c-11.333 0 -21.333 -3.16699 -30 -9.5s-13 -16.5 -13 -30.5c0 -11.333 4.16699 -22 12.5 -32s21.166 -15 38.499 -15h49v-42h-174z" />
    <glyph glyph-name="uniFEDC_uniFE88.rlig" unicode="&#xfedc;&#xfe88;" horiz-adv-x="681" 
d="M254 442h11.998c32 0 65.167 -4.5 99.5 -13.5s66.5 -24.5 96.5 -46.5s54.333 -51.833 73 -89.5s28 -85.5 28 -143.5v-91h133v-58h-616v753c0 10 2.66699 18.167 8 24.5s14 9.5 26 9.5c5.33301 0 10.666 -0.833008 15.999 -2.5s9.33301 -3.16699 12 -4.5v-367l333 352
c10.667 11.333 19.834 17.833 27.501 19.5s14.834 2.5 21.501 2.5c16.667 0 30.334 -7.33301 41.001 -22zM500.998 58l-0.00390625 73.999c0 49.333 -6.83301 90.333 -20.5 123s-31.667 58.334 -54 77.001s-47.166 32 -74.499 40s-54.666 12 -81.999 12
c-23.333 0 -46.666 -3 -69.999 -9s-42.666 -13.667 -57.999 -23v-294h359zM80.9941 -224.001l0.000976562 41.999h49c-8 7.33301 -13.833 15.833 -17.5 25.5s-5.5 18.834 -5.5 27.501c0 18 4.66699 32.667 14 44s20.833 19.5 34.5 24.5s27.5 7.5 41.5 7.5
c14.667 0 27.667 -2.83301 39 -8.5s17 -13.167 17 -22.5c0 -8 -4.33301 -16.667 -13 -26c-11.333 10 -25.333 15 -42 15c-11.333 0 -21.333 -3.16699 -30 -9.5s-13 -16.5 -13 -30.5c0 -11.333 4.16699 -22 12.5 -32s21.166 -15 38.499 -15h49v-42h-174z" />
    <glyph glyph-name="uniFEDB_uniFB51.rlig" unicode="&#xfedb;&#xfb51;" horiz-adv-x="613" 
d="M565 765l-311.002 -323h12c32 0 65.167 -4.5 99.5 -13.5s66.5 -24.5 96.5 -46.5s54.333 -51.833 73 -89.5s28 -85.5 28 -143.5v-149h-483v753c0 10 2.66699 18.167 8 24.5s14 9.5 26 9.5c5.33301 0 10.666 -0.833008 15.999 -2.5s9.33301 -3.16699 12 -4.5v-367l333 352
c10.667 11.333 19.834 17.833 27.501 19.5s14.834 2.5 21.501 2.5c16.667 0 30.334 -7.33301 41.001 -22zM500.998 58l-0.00390625 73.999c0 49.333 -6.83301 90.333 -20.5 123s-31.667 58.334 -54 77.001s-47.166 32 -74.499 40s-54.666 12 -81.999 12
c-23.333 0 -46.666 -3 -69.999 -9s-42.666 -13.667 -57.999 -23v-294h359zM4.99414 899.999c4.66699 37.333 18 66.167 40 86.5s50 30.5 84 30.5c24 0 45.167 -7.33301 63.5 -22s27.5 -38.667 27.5 -72v-65h-247v42h32zM50.9941 900l123 0.000976562v22
c0 17.333 -4.83301 30.166 -14.5 38.499s-21.834 12.5 -36.501 12.5c-17.333 0 -33.166 -6 -47.499 -18s-22.5 -30.333 -24.5 -55z" />
    <glyph glyph-name="uniFEDC_uniFB51.rlig" unicode="&#xfedc;&#xfb51;" horiz-adv-x="681" 
d="M254 442h11.998c32 0 65.167 -4.5 99.5 -13.5s66.5 -24.5 96.5 -46.5s54.333 -51.833 73 -89.5s28 -85.5 28 -143.5v-91h133v-58h-616v753c0 10 2.66699 18.167 8 24.5s14 9.5 26 9.5c5.33301 0 10.666 -0.833008 15.999 -2.5s9.33301 -3.16699 12 -4.5v-367l333 352
c10.667 11.333 19.834 17.833 27.501 19.5s14.834 2.5 21.501 2.5c16.667 0 30.334 -7.33301 41.001 -22zM500.998 58l-0.00390625 73.999c0 49.333 -6.83301 90.333 -20.5 123s-31.667 58.334 -54 77.001s-47.166 32 -74.499 40s-54.666 12 -81.999 12
c-23.333 0 -46.666 -3 -69.999 -9s-42.666 -13.667 -57.999 -23v-294h359zM4.99414 899.999c4.66699 37.333 18 66.167 40 86.5s50 30.5 84 30.5c24 0 45.167 -7.33301 63.5 -22s27.5 -38.667 27.5 -72v-65h-247v42h32zM50.9941 900l123 0.000976562v22
c0 17.333 -4.83301 30.166 -14.5 38.499s-21.834 12.5 -36.501 12.5c-17.333 0 -33.166 -6 -47.499 -18s-22.5 -30.333 -24.5 -55z" />
    <glyph glyph-name="uniFEDB_uniFEDE.rlig" unicode="&#xfedb;&#xfede;" horiz-adv-x="1018" 
d="M659 442h11.9971c32 0 65.167 -4.5 99.5 -13.5s66.5 -24.5 96.5 -46.5s54.333 -51.833 73 -89.5s28 -85.5 28 -143.5v-149h-300c-29.333 -0 -54 3.33301 -74 10s-36 17.334 -48 32.001c-3.33301 -88 -26 -155 -68 -201s-103.333 -69 -184 -69
c-50 0 -91.5 7.83301 -124.5 23.5s-58.833 36.334 -77.5 62.001s-32 54.167 -40 85.5s-12 62.666 -12 93.999c0 16 1.16699 37.667 3.5 65s7.5 53 15.5 77c3.33301 10 7.83301 17.667 13.5 23s13.5 8 23.5 8c4.66699 0 10.167 -0.666992 16.5 -2s11.833 -3.33301 16.5 -6
c-8.66699 -26.667 -15 -53.334 -19 -80.001s-6 -52.667 -6 -78c0 -42 6 -79.5 18 -112.5s32 -59 60 -78s65.667 -28.5 113 -28.5c25.333 0 49.333 3.33301 72 10s42.834 19.167 60.501 37.5s31.667 44.5 42 78.5s15.5 78.333 15.5 133v669c0 10 2.66699 18.167 8 24.5
s14 9.5 26 9.5c5.33301 0 10.666 -0.833008 15.999 -2.5s9.33301 -3.16699 12 -4.5v-367l333 352c10.667 11.333 19.834 17.833 27.501 19.5s14.834 2.5 21.501 2.5c16.667 0 30.334 -7.33301 41.001 -22zM667.997 58l237.998 -0.000976562v74
c0 49.333 -6.83301 90.333 -20.5 123s-31.667 58.334 -54 77.001s-47.166 32 -74.499 40s-54.666 12 -81.999 12c-23.333 0 -46.666 -3 -69.999 -9s-42.666 -13.667 -57.999 -23v-140c0 -31.333 3.16699 -58.5 9.5 -81.5s18.166 -40.833 35.499 -53.5s42.666 -19 75.999 -19
z" />
    <glyph glyph-name="uniFEDC_uniFEDE.rlig" unicode="&#xfedc;&#xfede;" horiz-adv-x="1086" 
d="M659 442h11.9971c32 0 65.167 -4.5 99.5 -13.5s66.5 -24.5 96.5 -46.5s54.333 -51.833 73 -89.5s28 -85.5 28 -143.5v-91h133v-58h-433c-29.333 -0 -54 3.33301 -74 10s-36 17.334 -48 32.001c-3.33301 -88 -26 -155 -68 -201s-103.333 -69 -184 -69
c-50 0 -91.5 7.83301 -124.5 23.5s-58.833 36.334 -77.5 62.001s-32 54.167 -40 85.5s-12 62.666 -12 93.999c0 16 1.16699 37.667 3.5 65s7.5 53 15.5 77c3.33301 10 7.83301 17.667 13.5 23s13.5 8 23.5 8c4.66699 0 10.167 -0.666992 16.5 -2s11.833 -3.33301 16.5 -6
c-8.66699 -26.667 -15 -53.334 -19 -80.001s-6 -52.667 -6 -78c0 -42 6 -79.5 18 -112.5s32 -59 60 -78s65.667 -28.5 113 -28.5c25.333 0 49.333 3.33301 72 10s42.834 19.167 60.501 37.5s31.667 44.5 42 78.5s15.5 78.333 15.5 133v669c0 10 2.66699 18.167 8 24.5
s14 9.5 26 9.5c5.33301 0 10.666 -0.833008 15.999 -2.5s9.33301 -3.16699 12 -4.5v-367l333 352c10.667 11.333 19.834 17.833 27.501 19.5s14.834 2.5 21.501 2.5c16.667 0 30.334 -7.33301 41.001 -22zM667.997 58l237.998 -0.000976562v74
c0 49.333 -6.83301 90.333 -20.5 123s-31.667 58.334 -54 77.001s-47.166 32 -74.499 40s-54.666 12 -81.999 12c-23.333 0 -46.666 -3 -69.999 -9s-42.666 -13.667 -57.999 -23v-140c0 -31.333 3.16699 -58.5 9.5 -81.5s18.166 -40.833 35.499 -53.5s42.666 -19 75.999 -19
z" />
    <glyph glyph-name="uniFEDB_uniFEE0.rlig" unicode="&#xfedb;&#xfee0;" horiz-adv-x="671" 
d="M312 442h11.999c32 0 65.167 -4.5 99.5 -13.5s66.5 -24.5 96.5 -46.5s54.333 -51.833 73 -89.5s28 -85.5 28 -143.5v-149h-300c-38.667 0 -70.834 7 -96.501 21s-44.167 32.333 -55.5 55c-16.667 -28 -36.667 -47.667 -60 -59s-54 -17 -92 -17h-32v58h32
c35.333 0 61.5 7 78.5 21s28.333 33.667 34 59s8.5 55.333 8.5 90v525c0 10 2.66699 18.167 8 24.5s14 9.5 26 9.5c5.33301 0 10.666 -0.833008 15.999 -2.5s9.33301 -3.16699 12 -4.5v-367l333 352c10.667 11.333 19.834 17.833 27.501 19.5s14.834 2.5 21.501 2.5
c16.667 0 30.334 -7.33301 41.001 -22zM199.999 352l-0.00390625 -125.001c0 -34 2.83301 -63.667 8.5 -89s17 -45 34 -59s43.167 -21 78.5 -21h238v74c0 49.333 -6.83301 90.333 -20.5 123s-31.667 58.334 -54 77.001s-47.166 32 -74.499 40s-54.666 12 -81.999 12
c-23.333 0 -46.666 -3 -69.999 -9s-42.666 -13.667 -57.999 -23z" />
    <glyph glyph-name="uniFEDC_uniFEE0.rlig" unicode="&#xfedc;&#xfee0;" horiz-adv-x="738" 
d="M312 442h11.999c32 0 65.167 -4.5 99.5 -13.5s66.5 -24.5 96.5 -46.5s54.333 -51.833 73 -89.5s28 -85.5 28 -143.5v-91h132v-58h-432c-38.667 0 -70.834 7 -96.501 21s-44.167 32.333 -55.5 55c-16.667 -28 -36.667 -47.667 -60 -59s-54 -17 -92 -17h-32v58h32
c35.333 0 61.5 7 78.5 21s28.333 33.667 34 59s8.5 55.333 8.5 90v525c0 10 2.66699 18.167 8 24.5s14 9.5 26 9.5c5.33301 0 10.666 -0.833008 15.999 -2.5s9.33301 -3.16699 12 -4.5v-367l333 352c10.667 11.333 19.834 17.833 27.501 19.5s14.834 2.5 21.501 2.5
c16.667 0 30.334 -7.33301 41.001 -22zM199.999 352l-0.00390625 -125.001c0 -34 2.83301 -63.667 8.5 -89s17 -45 34 -59s43.167 -21 78.5 -21h238v74c0 49.333 -6.83301 90.333 -20.5 123s-31.667 58.334 -54 77.001s-47.166 32 -74.499 40s-54.666 12 -81.999 12
c-23.333 0 -46.666 -3 -69.999 -9s-42.666 -13.667 -57.999 -23z" />
    <glyph glyph-name="uni06A1.init" unicode="&#x6a1;" horiz-adv-x="589" 
d="M529 216v-215.998h-544v58h190c-21.333 18.667 -38 41.334 -50 68.001s-18 56.667 -18 90c0 49.333 9.33301 90.666 28 123.999s44 58.666 76 75.999s68 26 108 26c42 0 78.667 -9.16699 110 -27.5s55.833 -44.333 73.5 -78s26.5 -73.834 26.5 -120.501zM467 58.002
l-0.00195312 148c0 59.333 -13.833 103.833 -41.5 133.5s-63.167 44.5 -106.5 44.5s-78.5 -13 -105.5 -39s-40.5 -69 -40.5 -129c0 -29.333 5.83301 -55.833 17.5 -79.5s28.334 -42.667 50.001 -57s47.834 -21.5 78.501 -21.5h148z" />
    <glyph glyph-name="uni06A1.medi" unicode="&#x6a1;" horiz-adv-x="635" 
d="M-15 0l0.000976562 58.002h189c-22.667 21.333 -39.5 45.666 -50.5 72.999s-16.5 56.333 -16.5 87c0 38 8.16699 74 24.5 108s40.166 61.833 71.499 83.5s69.333 32.5 114 32.5c46.667 0 85.667 -9.83301 117 -29.5s54.833 -46 70.5 -79s23.5 -69.167 23.5 -108.5
c0 -31.333 -5.66699 -61.333 -17 -90s-28.333 -54.334 -51 -77.001h190v-58h-665zM463.001 221.002c0 56 -13.333 97.167 -40 123.5s-62 39.5 -106 39.5c-32 0 -58.667 -7.5 -80 -22.5s-37.333 -35 -48 -60s-16 -52.5 -16 -82.5c0 -28 5.33301 -54.5 16 -79.5
s26.5 -45.167 47.5 -60.5s47.833 -23 80.5 -23c44 0 79.333 14.5 106 43.5s40 69.5 40 121.5z" />
    <glyph glyph-name="uni06A1.fina" unicode="&#x6a1;" horiz-adv-x="1006" 
d="M1021 58l-0.00195312 -57.998h-685c-59.333 0 -108.166 8 -146.499 24s-68.5 36.833 -90.5 62.5s-37.333 53.167 -46 82.5s-13 57.333 -13 84c0 38.667 4.16699 65 12.5 79s18.5 21 30.5 21c11.333 0 22.333 -2.66699 33 -8c-5.33301 -16.667 -9 -32.5 -11 -47.5
s-3 -29.5 -3 -43.5c0 -59.333 19.333 -106.833 58 -142.5s102.667 -53.5 192 -53.5h182c-21.333 18.667 -38 41.334 -50 68.001s-18 56.667 -18 90c0 49.333 9.33301 90.666 28 123.999s44 58.666 76 75.999s68 26 108 26c41.333 0 77.833 -9.16699 109.5 -27.5
s56.334 -44.333 74.001 -78s26.5 -73.834 26.5 -120.501v-158h133zM825.998 58.002l-0.00195312 148c0 59.333 -14 103.833 -42 133.5s-63.333 44.5 -106 44.5s-77.667 -13 -105 -39s-41 -69 -41 -129c0 -29.333 5.83301 -55.833 17.5 -79.5s28.334 -42.667 50.001 -57
s47.834 -21.5 78.501 -21.5h148z" />
    <glyph glyph-name="uni06C2.fina" unicode="&#x6c2;" horiz-adv-x="430" 
d="M116 280c30.667 0 57.499 -8.33301 80.499 -25s43.833 -36 62.5 -58c18.667 -21.333 34.834 -45 48.501 -71l36.5 -68h101v-58h-136l-55.5 100.5c-13.667 24.333 -26.5 43.166 -38.5 56.499c-15.333 18 -32 33.333 -50 46s-36.667 19 -56 19
c-7.33301 0 -14.5 -0.666992 -21.5 -2s-13.5 -3.66602 -19.5 -6.99902c-12 8.66699 -18 19 -18 31s7 21 21 27s29 9 45 9zM107.999 359l0.000976562 41.999h49c-8 7.33301 -13.833 15.833 -17.5 25.5s-5.5 18.834 -5.5 27.501c0 18 4.66699 32.667 14 44
s20.833 19.5 34.5 24.5s27.5 7.5 41.5 7.5c14.667 0 27.667 -2.83301 39 -8.5s17 -13.167 17 -22.5c0 -8 -4.33301 -16.667 -13 -26c-11.333 10 -25.333 15 -42 15c-11.333 0 -21.333 -3.16699 -30 -9.5s-13 -16.5 -13 -30.5c0 -11.333 4.16699 -22 12.5 -32
s21.166 -15 38.499 -15h49v-42h-174z" />
    <glyph glyph-name="uni06C3.fina" unicode="&#x6c3;" horiz-adv-x="430" 
d="M116 280c30.667 0 57.499 -8.33301 80.499 -25s43.833 -36 62.5 -58c18.667 -21.333 34.834 -45 48.501 -71l36.5 -68h101v-58h-136l-55.5 100.5c-13.667 24.333 -26.5 43.166 -38.5 56.499c-15.333 18 -32 33.333 -50 46s-36.667 19 -56 19
c-7.33301 0 -14.5 -0.666992 -21.5 -2s-13.5 -3.66602 -19.5 -6.99902c-12 8.66699 -18 19 -18 31s7 21 21 27s29 9 45 9zM62.999 420c0 14 4.66699 25.833 14 35.5s20.666 14.5 33.999 14.5s24.5 -4.83301 33.5 -14.5s13.5 -21.5 13.5 -35.5s-4.5 -25.833 -13.5 -35.5
s-20.167 -14.5 -33.5 -14.5s-24.666 4.83301 -33.999 14.5s-14 21.5 -14 35.5zM211.999 420c0 14 4.66699 25.833 14 35.5s20.666 14.5 33.999 14.5s24.5 -4.83301 33.5 -14.5s13.5 -21.5 13.5 -35.5s-4.5 -25.833 -13.5 -35.5s-20.167 -14.5 -33.5 -14.5
s-24.666 4.83301 -33.999 14.5s-14 21.5 -14 35.5z" />
    <glyph glyph-name="uni06D5.fina" unicode="&#x6d5;" horiz-adv-x="582" 
d="M597 0l-301 0.000976562c-81.333 0 -141 19.333 -179 58s-57 91.334 -57 158.001c0 49.333 11.5 90.666 34.5 123.999s54 58.666 93 75.999s81.833 26 128.5 26h148v-384h133v-58zM402 58.001v326h-90c-34.667 0 -66 -6 -94 -18s-50.333 -30.333 -67 -55
s-25 -56.334 -25 -95.001c0 -33.333 5.66699 -62.5 17 -87.5s36 -44.5 74 -58.5c9.33301 -3.33301 21.5 -6.16602 36.5 -8.49902s29.833 -3.5 44.5 -3.5h104z" />
    <glyph glyph-name="uniFB50" unicode="&#x671;" horiz-adv-x="222" arabic-form="isolated" 
d="M75 0v753c0 10 2.66699 18.167 8 24.5s14 9.5 26 9.5c5.33301 0 10.833 -0.833008 16.5 -2.5s9.5 -3.16699 11.5 -4.5v-780h-62zM7 900c4.66699 37.333 18 66.167 40 86.5s50 30.5 84 30.5c24 0 45.167 -7.33301 63.5 -22s27.5 -38.667 27.5 -72v-65h-247v42h32z
M53 900.001l123 0.000976562v22c0 17.333 -4.83301 30.166 -14.5 38.499s-21.834 12.5 -36.501 12.5c-17.333 0 -33.166 -6 -47.499 -18s-22.5 -30.333 -24.5 -55z" />
    <glyph glyph-name="uniFB51" unicode="&#x671;" horiz-adv-x="274" arabic-form="final" 
d="M77 0l0.000976562 753c0 10 2.66699 18.167 8 24.5s14 9.5 26 9.5c5.33301 0 10.666 -0.833008 15.999 -2.5s9.33301 -3.16699 12 -4.5v-722h147v-58h-209zM7.00098 900c4.66699 37.333 18 66.167 40 86.5s50 30.5 84 30.5c24 0 45.167 -7.33301 63.5 -22
s27.5 -38.667 27.5 -72v-65h-247v42h32zM53.001 900.001l123 0.000976562v22c0 17.333 -4.83301 30.166 -14.5 38.499s-21.834 12.5 -36.501 12.5c-17.333 0 -33.166 -6 -47.499 -18s-22.5 -30.333 -24.5 -55z" />
    <glyph glyph-name="uniFB56" unicode="&#x67e;" horiz-adv-x="790" arabic-form="isolated" 
d="M117 345c-5.33301 -16.667 -9.00098 -32.5 -11.001 -47.5s-3 -29.5 -3 -43.5c0 -59.333 19.333 -106.833 58 -142.5s102.667 -53.5 192 -53.5h306v350c0 10 2.83301 18.167 8.5 24.5s14.167 9.5 25.5 9.5c6 0 11.5 -0.833008 16.5 -2.5s8.83301 -3.16699 11.5 -4.5v-435
h-384c-59.333 0 -108.166 8 -146.499 24s-68.5 36.833 -90.5 62.5s-37.333 53.167 -46 82.5s-13 57.333 -13 84c0 38.667 4.16699 65 12.5 79s18.5 21 30.5 21c11.333 0 22.333 -2.66699 33 -8zM302.999 -131c0 14 4.66699 25.833 14 35.5s20.666 14.5 33.999 14.5
c12.667 0 23.667 -4.83301 33 -14.5s14 -21.5 14 -35.5s-4.66699 -25.833 -14 -35.5s-20.333 -14.5 -33 -14.5c-13.333 0 -24.666 4.83301 -33.999 14.5s-14 21.5 -14 35.5zM451.999 -131c0 14 4.66699 25.833 14 35.5s20.666 14.5 33.999 14.5s24.5 -4.83301 33.5 -14.5
s13.5 -21.5 13.5 -35.5s-4.5 -25.833 -13.5 -35.5s-20.167 -14.5 -33.5 -14.5s-24.666 4.83301 -33.999 14.5s-14 21.5 -14 35.5zM378.999 -261c0 14 4.66699 25.833 14 35.5s20.666 14.5 33.999 14.5c12.667 0 23.667 -4.83301 33 -14.5s14 -21.5 14 -35.5
s-4.66699 -25.833 -14 -35.5s-20.333 -14.5 -33 -14.5c-13.333 0 -24.666 4.83301 -33.999 14.5s-14 21.5 -14 35.5z" />
    <glyph glyph-name="uniFB57" unicode="&#x67e;" horiz-adv-x="853" arabic-form="final" 
d="M117 345c-5.33301 -16.667 -9.00098 -32.5 -11.001 -47.5s-3 -29.5 -3 -43.5c0 -59.333 19.333 -106.833 58 -142.5s102.667 -53.5 192 -53.5h306v350c0 10 2.83301 18.167 8.5 24.5s14.167 9.5 25.5 9.5c6 0 11.5 -0.833008 16.5 -2.5s8.83301 -3.16699 11.5 -4.5v-377
h148v-58h-532c-59.333 0 -108.166 8 -146.499 24s-68.5 36.833 -90.5 62.5s-37.333 53.167 -46 82.5s-13 57.333 -13 84c0 38.667 4.16699 65 12.5 79s18.5 21 30.5 21c11.333 0 22.333 -2.66699 33 -8zM302.999 -131c0 14 4.66699 25.833 14 35.5s20.666 14.5 33.999 14.5
c12.667 0 23.667 -4.83301 33 -14.5s14 -21.5 14 -35.5s-4.66699 -25.833 -14 -35.5s-20.333 -14.5 -33 -14.5c-13.333 0 -24.666 4.83301 -33.999 14.5s-14 21.5 -14 35.5zM451.999 -131c0 14 4.66699 25.833 14 35.5s20.666 14.5 33.999 14.5s24.5 -4.83301 33.5 -14.5
s13.5 -21.5 13.5 -35.5s-4.5 -25.833 -13.5 -35.5s-20.167 -14.5 -33.5 -14.5s-24.666 4.83301 -33.999 14.5s-14 21.5 -14 35.5zM378.999 -261c0 14 4.66699 25.833 14 35.5s20.666 14.5 33.999 14.5c12.667 0 23.667 -4.83301 33 -14.5s14 -21.5 14 -35.5
s-4.66699 -25.833 -14 -35.5s-20.333 -14.5 -33 -14.5c-13.333 0 -24.666 4.83301 -33.999 14.5s-14 21.5 -14 35.5z" />
    <glyph glyph-name="uniFB58" unicode="&#x67e;" horiz-adv-x="264" arabic-form="initial" 
d="M132 58v350c0 10 2.66699 18.167 8 24.5s14 9.5 26 9.5c5.33301 0 10.833 -0.833008 16.5 -2.5s9.5 -3.16699 11.5 -4.5v-435h-209v58h147zM-23 -131c0 14 4.66699 25.833 14 35.5s20.666 14.5 33.999 14.5c12.667 0 23.667 -4.83301 33 -14.5s14 -21.5 14 -35.5
s-4.66699 -25.833 -14 -35.5s-20.333 -14.5 -33 -14.5c-13.333 0 -24.666 4.83301 -33.999 14.5s-14 21.5 -14 35.5zM126 -131c0 14 4.66699 25.833 14 35.5s20.666 14.5 33.999 14.5s24.5 -4.83301 33.5 -14.5s13.5 -21.5 13.5 -35.5s-4.5 -25.833 -13.5 -35.5
s-20.167 -14.5 -33.5 -14.5s-24.666 4.83301 -33.999 14.5s-14 21.5 -14 35.5zM53 -261c0 14 4.66699 25.833 14 35.5s20.666 14.5 33.999 14.5c12.667 0 23.667 -4.83301 33 -14.5s14 -21.5 14 -35.5s-4.66699 -25.833 -14 -35.5s-20.333 -14.5 -33 -14.5
c-13.333 0 -24.666 4.83301 -33.999 14.5s-14 21.5 -14 35.5z" />
    <glyph glyph-name="uniFB59" unicode="&#x67e;" horiz-adv-x="346" arabic-form="medial" 
d="M171 76c-16.667 -28 -36.666 -47.667 -59.999 -59s-54 -17 -92 -17h-34v58h34c35.333 0 61.5 7 78.5 21s28.333 33.667 34 59s8.5 55.333 8.5 90v180c0 10 2.66699 18.167 8 24.5s14 9.5 26 9.5c5.33301 0 10.833 -0.833008 16.5 -2.5s9.5 -3.16699 11.5 -4.5v-208
c0 -34 2.83301 -63.667 8.5 -89s17 -45 34 -59s43.167 -21 78.5 -21h38v-58h-38c-38.667 0 -70.834 7 -96.501 21s-44.167 32.333 -55.5 55zM52.001 -131c0 14 4.66699 25.833 14 35.5s20.666 14.5 33.999 14.5c12.667 0 23.667 -4.83301 33 -14.5s14 -21.5 14 -35.5
s-4.66699 -25.833 -14 -35.5s-20.333 -14.5 -33 -14.5c-13.333 0 -24.666 4.83301 -33.999 14.5s-14 21.5 -14 35.5zM201.001 -131c0 14 4.66699 25.833 14 35.5s20.666 14.5 33.999 14.5s24.5 -4.83301 33.5 -14.5s13.5 -21.5 13.5 -35.5s-4.5 -25.833 -13.5 -35.5
s-20.167 -14.5 -33.5 -14.5s-24.666 4.83301 -33.999 14.5s-14 21.5 -14 35.5zM128.001 -261c0 14 4.66699 25.833 14 35.5s20.666 14.5 33.999 14.5c12.667 0 23.667 -4.83301 33 -14.5s14 -21.5 14 -35.5s-4.66699 -25.833 -14 -35.5s-20.333 -14.5 -33 -14.5
c-13.333 0 -24.666 4.83301 -33.999 14.5s-14 21.5 -14 35.5z" />
    <glyph glyph-name="uniFB66" unicode="&#x679;" horiz-adv-x="790" arabic-form="isolated" 
d="M117 345c-5.33301 -16.667 -9.00098 -32.5 -11.001 -47.5s-3 -29.5 -3 -43.5c0 -59.333 19.333 -106.833 58 -142.5s102.667 -53.5 192 -53.5h306v350c0 10 2.83301 18.167 8.5 24.5s14.167 9.5 25.5 9.5c6 0 11.5 -0.833008 16.5 -2.5s8.83301 -3.16699 11.5 -4.5v-435
h-384c-59.333 0 -108.166 8 -146.499 24s-68.5 36.833 -90.5 62.5s-37.333 53.167 -46 82.5s-13 57.333 -13 84c0 38.667 4.16699 65 12.5 79s18.5 21 30.5 21c11.333 0 22.333 -2.66699 33 -8zM336.999 619l0.00292969 -96c9.33301 13.333 20.666 23.333 33.999 30
s27.333 10 42 10c24 0 45.167 -7.33301 63.5 -22s27.5 -38.667 27.5 -72v-65h-247v42h34v157c0 6 2.16699 11.333 6.5 16s10.166 7 17.499 7c2.66699 0 6.16699 -0.5 10.5 -1.5s8.16602 -2.83301 11.499 -5.5zM337.002 446l121.001 0.000976562v22
c0 17.333 -4.83301 30.166 -14.5 38.499s-21.167 12.5 -34.5 12.5c-16.667 0 -32.834 -5.83301 -48.501 -17.5s-23.5 -30.167 -23.5 -55.5z" />
    <glyph glyph-name="uniFB67" unicode="&#x679;" horiz-adv-x="852" arabic-form="final" 
d="M117 345c-5.33301 -16.667 -9.00098 -32.5 -11.001 -47.5s-3 -29.5 -3 -43.5c0 -59.333 19.333 -106.833 58 -142.5s102.667 -53.5 192 -53.5h306v350c0 10 2.83301 18.167 8.5 24.5s14.167 9.5 25.5 9.5c6 0 11.5 -0.833008 16.5 -2.5s8.83301 -3.16699 11.5 -4.5v-377
h148v-58h-532c-59.333 0 -108.166 8 -146.499 24s-68.5 36.833 -90.5 62.5s-37.333 53.167 -46 82.5s-13 57.333 -13 84c0 38.667 4.16699 65 12.5 79s18.5 21 30.5 21c11.333 0 22.333 -2.66699 33 -8zM336.999 619l0.00292969 -96c9.33301 13.333 20.666 23.333 33.999 30
s27.333 10 42 10c24 0 45.167 -7.33301 63.5 -22s27.5 -38.667 27.5 -72v-65h-247v42h34v157c0 6 2.16699 11.333 6.5 16s10.166 7 17.499 7c2.66699 0 6.16699 -0.5 10.5 -1.5s8.16602 -2.83301 11.499 -5.5zM337.002 446l121.001 0.000976562v22
c0 17.333 -4.83301 30.166 -14.5 38.499s-21.167 12.5 -34.5 12.5c-16.667 0 -32.834 -5.83301 -48.501 -17.5s-23.5 -30.167 -23.5 -55.5z" />
    <glyph glyph-name="uniFB68" unicode="&#x679;" horiz-adv-x="264" arabic-form="initial" 
d="M132 58v350c0 10 2.66699 18.167 8 24.5s14 9.5 26 9.5c5.33301 0 10.833 -0.833008 16.5 -2.5s9.5 -3.16699 11.5 -4.5v-435h-209v58h147zM108 742l0.00292969 -96c9.33301 13.333 20.666 23.333 33.999 30s27.333 10 42 10c24 0 45.167 -7.33301 63.5 -22
s27.5 -38.667 27.5 -72v-65h-247v42h34v157c0 6 2.16699 11.333 6.5 16s10.166 7 17.499 7c2.66699 0 6.16699 -0.5 10.5 -1.5s8.16602 -2.83301 11.499 -5.5zM108.003 569l121.001 0.000976562v22c0 17.333 -4.83301 30.166 -14.5 38.499s-21.167 12.5 -34.5 12.5
c-16.667 0 -32.834 -5.83301 -48.501 -17.5s-23.5 -30.167 -23.5 -55.5z" />
    <glyph glyph-name="uniFB69" unicode="&#x679;" horiz-adv-x="346" arabic-form="medial" 
d="M171 76c-16.667 -28 -36.666 -47.667 -59.999 -59s-54 -17 -92 -17h-34v58h34c35.333 0 61.5 7 78.5 21s28.333 33.667 34 59s8.5 55.333 8.5 90v180c0 10 2.66699 18.167 8 24.5s14 9.5 26 9.5c5.33301 0 10.833 -0.833008 16.5 -2.5s9.5 -3.16699 11.5 -4.5v-208
c0 -34 2.83301 -63.667 8.5 -89s17 -45 34 -59s43.167 -21 78.5 -21h38v-58h-38c-38.667 0 -70.834 7 -96.501 21s-44.167 32.333 -55.5 55zM124.001 741l0.00292969 -96c9.33301 13.333 20.666 23.333 33.999 30s27.333 10 42 10c24 0 45.167 -7.33301 63.5 -22
s27.5 -38.667 27.5 -72v-65h-247v42h34v157c0 6 2.16699 11.333 6.5 16s10.166 7 17.499 7c2.66699 0 6.16699 -0.5 10.5 -1.5s8.16602 -2.83301 11.499 -5.5zM124.004 568l121.001 0.000976562v22c0 17.333 -4.83301 30.166 -14.5 38.499s-21.167 12.5 -34.5 12.5
c-16.667 0 -32.834 -5.83301 -48.501 -17.5s-23.5 -30.167 -23.5 -55.5z" />
    <glyph glyph-name="uniFB6A" unicode="&#x6a4;" horiz-adv-x="948" arabic-form="isolated" 
d="M888 216l-0.00195312 -215.998h-552c-59.333 0 -108.166 8 -146.499 24s-68.5 36.833 -90.5 62.5s-37.333 53.167 -46 82.5s-13 57.333 -13 84c0 38.667 4.16699 65 12.5 79s18.5 21 30.5 21c11.333 0 22.333 -2.66699 33 -8c-5.33301 -16.667 -9 -32.5 -11 -47.5
s-3 -29.5 -3 -43.5c0 -59.333 19.333 -106.833 58 -142.5s102.667 -53.5 192 -53.5h182c-21.333 18.667 -38 41.334 -50 68.001s-18 56.667 -18 90c0 49.333 9.33301 90.666 28 123.999s44 58.666 76 75.999s68 26 108 26c41.333 0 77.833 -9.16699 109.5 -27.5
s56.334 -44.333 74.001 -78s26.5 -73.834 26.5 -120.501zM825.998 58.002l-0.00195312 148c0 59.333 -14 103.833 -42 133.5s-63.333 44.5 -106 44.5s-77.667 -13 -105 -39s-41 -69 -41 -129c0 -29.333 5.83301 -55.833 17.5 -79.5s28.334 -42.667 50.001 -57
s47.834 -21.5 78.501 -21.5h148zM638.996 700.002c0 14 4.66699 25.833 14 35.5s20.666 14.5 33.999 14.5s24.5 -4.83301 33.5 -14.5s13.5 -21.5 13.5 -35.5s-4.5 -25.833 -13.5 -35.5s-20.167 -14.5 -33.5 -14.5s-24.666 4.83301 -33.999 14.5s-14 21.5 -14 35.5z
M711.996 570.002c0 14 4.66699 25.833 14 35.5s20.666 14.5 33.999 14.5s24.5 -4.83301 33.5 -14.5s13.5 -21.5 13.5 -35.5s-4.5 -25.833 -13.5 -35.5s-20.167 -14.5 -33.5 -14.5s-24.666 4.83301 -33.999 14.5s-14 21.5 -14 35.5zM562.996 570.002
c0 14 4.66699 25.833 14 35.5s20.666 14.5 33.999 14.5s24.5 -4.83301 33.5 -14.5s13.5 -21.5 13.5 -35.5s-4.5 -25.833 -13.5 -35.5s-20.167 -14.5 -33.5 -14.5s-24.666 4.83301 -33.999 14.5s-14 21.5 -14 35.5z" />
    <glyph glyph-name="uniFB6B" unicode="&#x6a4;" horiz-adv-x="1006" arabic-form="final" 
d="M1021 58l-0.00195312 -57.998h-685c-59.333 0 -108.166 8 -146.499 24s-68.5 36.833 -90.5 62.5s-37.333 53.167 -46 82.5s-13 57.333 -13 84c0 38.667 4.16699 65 12.5 79s18.5 21 30.5 21c11.333 0 22.333 -2.66699 33 -8c-5.33301 -16.667 -9 -32.5 -11 -47.5
s-3 -29.5 -3 -43.5c0 -59.333 19.333 -106.833 58 -142.5s102.667 -53.5 192 -53.5h182c-21.333 18.667 -38 41.334 -50 68.001s-18 56.667 -18 90c0 49.333 9.33301 90.666 28 123.999s44 58.666 76 75.999s68 26 108 26c41.333 0 77.833 -9.16699 109.5 -27.5
s56.334 -44.333 74.001 -78s26.5 -73.834 26.5 -120.501v-158h133zM825.998 58.002l-0.00195312 148c0 59.333 -14 103.833 -42 133.5s-63.333 44.5 -106 44.5s-77.667 -13 -105 -39s-41 -69 -41 -129c0 -29.333 5.83301 -55.833 17.5 -79.5s28.334 -42.667 50.001 -57
s47.834 -21.5 78.501 -21.5h148zM639.996 691.002c0 14 4.66699 25.833 14 35.5s20.666 14.5 33.999 14.5s24.5 -4.83301 33.5 -14.5s13.5 -21.5 13.5 -35.5s-4.5 -25.833 -13.5 -35.5s-20.167 -14.5 -33.5 -14.5s-24.666 4.83301 -33.999 14.5s-14 21.5 -14 35.5z
M712.996 561.002c0 14 4.66699 25.833 14 35.5s20.666 14.5 33.999 14.5s24.5 -4.83301 33.5 -14.5s13.5 -21.5 13.5 -35.5s-4.5 -25.833 -13.5 -35.5s-20.167 -14.5 -33.5 -14.5s-24.666 4.83301 -33.999 14.5s-14 21.5 -14 35.5zM563.996 561.002
c0 14 4.66699 25.833 14 35.5s20.666 14.5 33.999 14.5s24.5 -4.83301 33.5 -14.5s13.5 -21.5 13.5 -35.5s-4.5 -25.833 -13.5 -35.5s-20.167 -14.5 -33.5 -14.5s-24.666 4.83301 -33.999 14.5s-14 21.5 -14 35.5z" />
    <glyph glyph-name="uniFB6C" unicode="&#x6a4;" horiz-adv-x="589" arabic-form="initial" 
d="M529 216v-215.998h-544v58h190c-21.333 18.667 -38 41.334 -50 68.001s-18 56.667 -18 90c0 49.333 9.33301 90.666 28 123.999s44 58.666 76 75.999s68 26 108 26c42 0 78.667 -9.16699 110 -27.5s55.833 -44.333 73.5 -78s26.5 -73.834 26.5 -120.501zM467 58.002
l-0.00195312 148c0 59.333 -13.833 103.833 -41.5 133.5s-63.167 44.5 -106.5 44.5s-78.5 -13 -105.5 -39s-40.5 -69 -40.5 -129c0 -29.333 5.83301 -55.833 17.5 -79.5s28.334 -42.667 50.001 -57s47.834 -21.5 78.501 -21.5h148zM274.998 700.002
c0 14 4.66699 25.833 14 35.5s20.666 14.5 33.999 14.5s24.5 -4.83301 33.5 -14.5s13.5 -21.5 13.5 -35.5s-4.5 -25.833 -13.5 -35.5s-20.167 -14.5 -33.5 -14.5s-24.666 4.83301 -33.999 14.5s-14 21.5 -14 35.5zM347.998 570.002c0 14 4.66699 25.833 14 35.5
s20.666 14.5 33.999 14.5s24.5 -4.83301 33.5 -14.5s13.5 -21.5 13.5 -35.5s-4.5 -25.833 -13.5 -35.5s-20.167 -14.5 -33.5 -14.5s-24.666 4.83301 -33.999 14.5s-14 21.5 -14 35.5zM198.998 570.002c0 14 4.66699 25.833 14 35.5s20.666 14.5 33.999 14.5
s24.5 -4.83301 33.5 -14.5s13.5 -21.5 13.5 -35.5s-4.5 -25.833 -13.5 -35.5s-20.167 -14.5 -33.5 -14.5s-24.666 4.83301 -33.999 14.5s-14 21.5 -14 35.5z" />
    <glyph glyph-name="uniFB6D" unicode="&#x6a4;" horiz-adv-x="635" arabic-form="medial" 
d="M-15 0l0.000976562 58.002h189c-22.667 21.333 -39.5 45.666 -50.5 72.999s-16.5 56.333 -16.5 87c0 38 8.16699 74 24.5 108s40.166 61.833 71.499 83.5s69.333 32.5 114 32.5c46.667 0 85.667 -9.83301 117 -29.5s54.833 -46 70.5 -79s23.5 -69.167 23.5 -108.5
c0 -31.333 -5.66699 -61.333 -17 -90s-28.333 -54.334 -51 -77.001h190v-58h-665zM463.001 221.002c0 56 -13.333 97.167 -40 123.5s-62 39.5 -106 39.5c-32 0 -58.667 -7.5 -80 -22.5s-37.333 -35 -48 -60s-16 -52.5 -16 -82.5c0 -28 5.33301 -54.5 16 -79.5
s26.5 -45.167 47.5 -60.5s47.833 -23 80.5 -23c44 0 79.333 14.5 106 43.5s40 69.5 40 121.5zM280.001 700.002c0 14 4.66699 25.833 14 35.5s20.666 14.5 33.999 14.5s24.5 -4.83301 33.5 -14.5s13.5 -21.5 13.5 -35.5s-4.5 -25.833 -13.5 -35.5s-20.167 -14.5 -33.5 -14.5
s-24.666 4.83301 -33.999 14.5s-14 21.5 -14 35.5zM353.001 570.002c0 14 4.66699 25.833 14 35.5s20.666 14.5 33.999 14.5s24.5 -4.83301 33.5 -14.5s13.5 -21.5 13.5 -35.5s-4.5 -25.833 -13.5 -35.5s-20.167 -14.5 -33.5 -14.5s-24.666 4.83301 -33.999 14.5
s-14 21.5 -14 35.5zM204.001 570.002c0 14 4.66699 25.833 14 35.5s20.666 14.5 33.999 14.5s24.5 -4.83301 33.5 -14.5s13.5 -21.5 13.5 -35.5s-4.5 -25.833 -13.5 -35.5s-20.167 -14.5 -33.5 -14.5s-24.666 4.83301 -33.999 14.5s-14 21.5 -14 35.5z" />
    <glyph glyph-name="uniFB7A" unicode="&#x686;" horiz-adv-x="613" arabic-form="isolated" 
d="M205 442c32.667 0 63.998 -8.66992 93.998 -26.0029s58.167 -40.166 84.5 -68.499s50.666 -59.5 72.999 -93.5s42.5 -68.167 60.5 -102.5s33.333 -65.5 46 -93.5v-58h-241c-143.333 0 -215 -60.667 -215 -182c0 -41.333 9.83301 -75 29.5 -101s45.5 -45.167 77.5 -57.5
s67 -18.5 105 -18.5c72 0 142.333 19.667 211 59l29 -47c-28.667 -18.667 -64.667 -34.667 -108 -48s-87.666 -20 -132.999 -20c-35.333 0 -69.5 4.33301 -102.5 13s-62.667 22.167 -89 40.5s-47.333 42.333 -63 72s-23.5 65.834 -23.5 108.501
c0 74.667 22.833 133.167 68.5 175.5s112.834 63.5 201.501 63.5h185c-36 68.667 -69.833 127.334 -101.5 176.001s-63.167 85.834 -94.5 111.501s-64.666 38.5 -99.999 38.5c-23.333 0 -42.333 -4 -57 -12c-10 10.667 -15 21 -15 31c0 11.333 7 20.666 21 27.999
s33 11 57 11zM372.998 -120.003c0 14 4.5 25.833 13.5 35.5s20.167 14.5 33.5 14.5s24.666 -4.83301 33.999 -14.5s14 -21.5 14 -35.5s-4.66699 -25.833 -14 -35.5s-20.666 -14.5 -33.999 -14.5s-24.5 4.83301 -33.5 14.5s-13.5 21.5 -13.5 35.5zM223.998 -120.003
c0 14 4.66699 25.833 14 35.5s20.333 14.5 33 14.5c13.333 0 24.666 -4.83301 33.999 -14.5s14 -21.5 14 -35.5s-4.66699 -25.833 -14 -35.5s-20.666 -14.5 -33.999 -14.5c-12.667 0 -23.667 4.83301 -33 14.5s-14 21.5 -14 35.5zM299.998 -250.003
c0 14 4.66699 25.833 14 35.5s20.333 14.5 33 14.5c13.333 0 24.666 -4.83301 33.999 -14.5s14 -21.5 14 -35.5s-4.66699 -25.833 -14 -35.5s-20.666 -14.5 -33.999 -14.5c-12.667 0 -23.667 4.83301 -33 14.5s-14 21.5 -14 35.5z" />
    <glyph glyph-name="uniFB7B" unicode="&#x686;" horiz-adv-x="650" arabic-form="final" 
d="M205 442c32.667 0 63.998 -8.66992 93.998 -26.0029s58.167 -40.166 84.5 -68.499s50.666 -59.5 72.999 -93.5s42.5 -68.167 60.5 -102.5s33.333 -65.5 46 -93.5h102v-58h-343c-143.333 0 -215 -60.667 -215 -182c0 -41.333 9.83301 -75 29.5 -101
s45.5 -45.167 77.5 -57.5s67 -18.5 105 -18.5c72 0 142.333 19.667 211 59l29 -47c-28.667 -18.667 -64.667 -34.667 -108 -48s-87.666 -20 -132.999 -20c-35.333 0 -69.5 4.33301 -102.5 13s-62.667 22.167 -89 40.5s-47.333 42.333 -63 72s-23.5 65.834 -23.5 108.501
c0 74.667 22.833 133.167 68.5 175.5s112.834 63.5 201.501 63.5h185c-36 68.667 -69.833 127.334 -101.5 176.001s-63.167 85.834 -94.5 111.501s-64.666 38.5 -99.999 38.5c-23.333 0 -42.333 -4 -57 -12c-10 10.667 -15 21 -15 31c0 11.333 7 20.666 21 27.999
s33 11 57 11zM372.998 -120.003c0 14 4.5 25.833 13.5 35.5s20.167 14.5 33.5 14.5s24.666 -4.83301 33.999 -14.5s14 -21.5 14 -35.5s-4.66699 -25.833 -14 -35.5s-20.666 -14.5 -33.999 -14.5s-24.5 4.83301 -33.5 14.5s-13.5 21.5 -13.5 35.5zM223.998 -120.003
c0 14 4.66699 25.833 14 35.5s20.333 14.5 33 14.5c13.333 0 24.666 -4.83301 33.999 -14.5s14 -21.5 14 -35.5s-4.66699 -25.833 -14 -35.5s-20.666 -14.5 -33.999 -14.5c-12.667 0 -23.667 4.83301 -33 14.5s-14 21.5 -14 35.5zM299.998 -250.003
c0 14 4.66699 25.833 14 35.5s20.333 14.5 33 14.5c13.333 0 24.666 -4.83301 33.999 -14.5s14 -21.5 14 -35.5s-4.66699 -25.833 -14 -35.5s-20.666 -14.5 -33.999 -14.5c-12.667 0 -23.667 4.83301 -33 14.5s-14 21.5 -14 35.5z" />
    <glyph glyph-name="uniFB7C" unicode="&#x686;" horiz-adv-x="534" arabic-form="initial" 
d="M-15 58h426.998c-21.333 38.667 -43.166 76 -65.499 112s-43.166 65.667 -62.499 89c-34.667 41.333 -65.667 72.5 -93 93.5s-57.333 31.5 -90 31.5c-23.333 0 -42.333 -4 -57 -12c-10 10.667 -15 21 -15 31c0 11.333 8.16699 20.666 24.5 27.999s36.5 11 60.5 11
c44 0 84.5 -15.167 121.5 -45.5s72.833 -67.166 107.5 -110.499c18 -22.667 36 -48.167 54 -76.5s34.333 -56.333 49 -84l38 -72.5v-53h-499v58zM97.998 -131c0 14 4.66699 25.833 14 35.5s20.666 14.5 33.999 14.5c12.667 0 23.667 -4.83301 33 -14.5s14 -21.5 14 -35.5
s-4.66699 -25.833 -14 -35.5s-20.333 -14.5 -33 -14.5c-13.333 0 -24.666 4.83301 -33.999 14.5s-14 21.5 -14 35.5zM246.998 -131c0 14 4.66699 25.833 14 35.5s20.666 14.5 33.999 14.5s24.5 -4.83301 33.5 -14.5s13.5 -21.5 13.5 -35.5s-4.5 -25.833 -13.5 -35.5
s-20.167 -14.5 -33.5 -14.5s-24.666 4.83301 -33.999 14.5s-14 21.5 -14 35.5zM173.998 -261c0 14 4.66699 25.833 14 35.5s20.666 14.5 33.999 14.5c12.667 0 23.667 -4.83301 33 -14.5s14 -21.5 14 -35.5s-4.66699 -25.833 -14 -35.5s-20.333 -14.5 -33 -14.5
c-13.333 0 -24.666 4.83301 -33.999 14.5s-14 21.5 -14 35.5z" />
    <glyph glyph-name="uniFB7D" unicode="&#x686;" horiz-adv-x="559" arabic-form="medial" 
d="M-15 58h434.001c-20.667 38.667 -42.334 76 -65.001 112s-43.667 65.667 -63 89c-35.333 41.333 -66.333 72.5 -93 93.5s-56.667 31.5 -90 31.5c-22.667 0 -41.667 -4 -57 -12c-10 10.667 -15 21 -15 31c0 11.333 8.16699 20.666 24.5 27.999s36.5 11 60.5 11
c44 0 84.5 -15.167 121.5 -45.5s72.833 -67.166 107.5 -110.499c18.667 -22.667 36.667 -47.667 54 -75s33.333 -54.333 48 -81s27 -50.667 37 -72h85v-58h-589v58zM105.001 -131c0 14 4.66699 25.833 14 35.5s20.666 14.5 33.999 14.5c12.667 0 23.667 -4.83301 33 -14.5
s14 -21.5 14 -35.5s-4.66699 -25.833 -14 -35.5s-20.333 -14.5 -33 -14.5c-13.333 0 -24.666 4.83301 -33.999 14.5s-14 21.5 -14 35.5zM254.001 -131c0 14 4.66699 25.833 14 35.5s20.666 14.5 33.999 14.5s24.5 -4.83301 33.5 -14.5s13.5 -21.5 13.5 -35.5
s-4.5 -25.833 -13.5 -35.5s-20.167 -14.5 -33.5 -14.5s-24.666 4.83301 -33.999 14.5s-14 21.5 -14 35.5zM181.001 -261c0 14 4.66699 25.833 14 35.5s20.666 14.5 33.999 14.5c12.667 0 23.667 -4.83301 33 -14.5s14 -21.5 14 -35.5s-4.66699 -25.833 -14 -35.5
s-20.333 -14.5 -33 -14.5c-13.333 0 -24.666 4.83301 -33.999 14.5s-14 21.5 -14 35.5z" />
    <glyph glyph-name="uniFB88" unicode="&#x688;" horiz-adv-x="602" arabic-form="isolated" 
d="M480 58l-0.00292969 73.998c0 49.333 -6.83301 90.333 -20.5 123s-31.667 58.334 -54 77.001s-47.166 32 -74.499 40s-54.666 12 -81.999 12c-23.333 0 -45.666 -2.66699 -66.999 -8s-40.333 -12.333 -57 -21c-6.66699 6.66699 -11 12.834 -13 18.501s-3 11.167 -3 16.5
c0 15.333 13.167 27.833 39.5 37.5s58.5 14.5 96.5 14.5c32 0 65.167 -4.5 99.5 -13.5s66.5 -24.5 96.5 -46.5s54.333 -51.833 73 -89.5s28 -85.5 28 -143.5v-149h-492v58h430zM251.997 740.998l0.00292969 -96c9.33301 13.333 20.666 23.333 33.999 30s27.333 10 42 10
c24 0 45.167 -7.33301 63.5 -22s27.5 -38.667 27.5 -72v-65h-247v42h34v157c0 6 2.16699 11.333 6.5 16s10.166 7 17.499 7c2.66699 0 6.16699 -0.5 10.5 -1.5s8.16602 -2.83301 11.499 -5.5zM252 567.998l121.001 0.000976562v22c0 17.333 -4.83301 30.166 -14.5 38.499
s-21.167 12.5 -34.5 12.5c-16.667 0 -32.834 -5.83301 -48.501 -17.5s-23.5 -30.167 -23.5 -55.5z" />
    <glyph glyph-name="uniFB89" unicode="&#x688;" horiz-adv-x="661" arabic-form="final" 
d="M480 58l-0.00292969 73.998c0 49.333 -6.83301 90.333 -20.5 123s-31.667 58.334 -54 77.001s-47.166 32 -74.499 40s-54.666 12 -81.999 12c-23.333 0 -45.666 -2.66699 -66.999 -8s-40.333 -12.333 -57 -21c-6.66699 6.66699 -11 12.834 -13 18.501s-3 11.167 -3 16.5
c0 15.333 13.167 27.833 39.5 37.5s58.5 14.5 96.5 14.5c32 0 65.167 -4.5 99.5 -13.5s66.5 -24.5 96.5 -46.5s54.333 -51.833 73 -89.5s28 -85.5 28 -143.5v-91h134v-58h-626v58h430zM251.997 740.998l0.00292969 -96c9.33301 13.333 20.666 23.333 33.999 30
s27.333 10 42 10c24 0 45.167 -7.33301 63.5 -22s27.5 -38.667 27.5 -72v-65h-247v42h34v157c0 6 2.16699 11.333 6.5 16s10.166 7 17.499 7c2.66699 0 6.16699 -0.5 10.5 -1.5s8.16602 -2.83301 11.499 -5.5zM252 567.998l121.001 0.000976562v22
c0 17.333 -4.83301 30.166 -14.5 38.499s-21.167 12.5 -34.5 12.5c-16.667 0 -32.834 -5.83301 -48.501 -17.5s-23.5 -30.167 -23.5 -55.5z" />
    <glyph glyph-name="uniFB8A" unicode="&#x698;" horiz-adv-x="341" arabic-form="isolated" 
d="M199 -67l0.000976562 475.001c0 10 2.66699 18.167 8 24.5s14 9.5 26 9.5c5.33301 0 10.833 -0.833008 16.5 -2.5s9.5 -3.16699 11.5 -4.5v-499c0 -42.667 -7.5 -76.167 -22.5 -100.5s-34.5 -41.333 -58.5 -51s-49 -14.5 -75 -14.5c-20.667 0 -39.5 2.16699 -56.5 6.5
s-29.833 8.16602 -38.5 11.499l17 52c7.33301 -2.66699 17 -5.66699 29 -9s26.667 -5 44 -5c14.667 0 29.667 2.33301 45 7s28.166 14.5 38.499 29.5s15.5 38.5 15.5 70.5zM186.001 700.001c0 14 4.66699 25.833 14 35.5s20.666 14.5 33.999 14.5s24.5 -4.83301 33.5 -14.5
s13.5 -21.5 13.5 -35.5s-4.5 -25.833 -13.5 -35.5s-20.167 -14.5 -33.5 -14.5s-24.666 4.83301 -33.999 14.5s-14 21.5 -14 35.5zM259.001 570.001c0 14 4.66699 25.833 14 35.5s20.666 14.5 33.999 14.5s24.5 -4.83301 33.5 -14.5s13.5 -21.5 13.5 -35.5
s-4.5 -25.833 -13.5 -35.5s-20.167 -14.5 -33.5 -14.5s-24.666 4.83301 -33.999 14.5s-14 21.5 -14 35.5zM110.001 570.001c0 14 4.66699 25.833 14 35.5s20.666 14.5 33.999 14.5s24.5 -4.83301 33.5 -14.5s13.5 -21.5 13.5 -35.5s-4.5 -25.833 -13.5 -35.5
s-20.167 -14.5 -33.5 -14.5s-24.666 4.83301 -33.999 14.5s-14 21.5 -14 35.5z" />
    <glyph glyph-name="uniFB8B" unicode="&#x698;" horiz-adv-x="413" arabic-form="final" 
d="M199 -67l0.000976562 475.001c0 10 2.66699 18.167 8 24.5s14 9.5 26 9.5c5.33301 0 10.833 -0.833008 16.5 -2.5s9.5 -3.16699 11.5 -4.5v-377h167v-58h-167v-64c0 -42.667 -7.5 -76.167 -22.5 -100.5s-34.5 -41.333 -58.5 -51s-49 -14.5 -75 -14.5
c-20.667 0 -39.5 2.16699 -56.5 6.5s-29.833 8.16602 -38.5 11.499l17 52c7.33301 -2.66699 17 -5.66699 29 -9s26.667 -5 44 -5c14.667 0 29.667 2.33301 45 7s28.166 14.5 38.499 29.5s15.5 38.5 15.5 70.5zM185.001 700.001c0 14 4.66699 25.833 14 35.5
s20.666 14.5 33.999 14.5s24.5 -4.83301 33.5 -14.5s13.5 -21.5 13.5 -35.5s-4.5 -25.833 -13.5 -35.5s-20.167 -14.5 -33.5 -14.5s-24.666 4.83301 -33.999 14.5s-14 21.5 -14 35.5zM258.001 570.001c0 14 4.66699 25.833 14 35.5s20.666 14.5 33.999 14.5
s24.5 -4.83301 33.5 -14.5s13.5 -21.5 13.5 -35.5s-4.5 -25.833 -13.5 -35.5s-20.167 -14.5 -33.5 -14.5s-24.666 4.83301 -33.999 14.5s-14 21.5 -14 35.5zM109.001 570.001c0 14 4.66699 25.833 14 35.5s20.666 14.5 33.999 14.5s24.5 -4.83301 33.5 -14.5
s13.5 -21.5 13.5 -35.5s-4.5 -25.833 -13.5 -35.5s-20.167 -14.5 -33.5 -14.5s-24.666 4.83301 -33.999 14.5s-14 21.5 -14 35.5z" />
    <glyph glyph-name="uniFB8C" unicode="&#x691;" horiz-adv-x="327" arabic-form="isolated" 
d="M199 -67l0.000976562 475.001c0 10 2.66699 18.167 8 24.5s14 9.5 26 9.5c5.33301 0 10.833 -0.833008 16.5 -2.5s9.5 -3.16699 11.5 -4.5v-499c0 -42.667 -7.5 -76.167 -22.5 -100.5s-34.5 -41.333 -58.5 -51s-49 -14.5 -75 -14.5c-20.667 0 -39.5 2.16699 -56.5 6.5
s-29.833 8.16602 -38.5 11.499l17 52c7.33301 -2.66699 17 -5.66699 29 -9s26.667 -5 44 -5c14.667 0 29.667 2.33301 45 7s28.166 14.5 38.499 29.5s15.5 38.5 15.5 70.5zM178.001 741.001l0.00292969 -96c9.33301 13.333 20.666 23.333 33.999 30s27.333 10 42 10
c24 0 45.167 -7.33301 63.5 -22s27.5 -38.667 27.5 -72v-65h-247v42h34v157c0 6 2.16699 11.333 6.5 16s10.166 7 17.499 7c2.66699 0 6.16699 -0.5 10.5 -1.5s8.16602 -2.83301 11.499 -5.5zM178.004 568.001l121.001 0.000976562v22
c0 17.333 -4.83301 30.166 -14.5 38.499s-21.167 12.5 -34.5 12.5c-16.667 0 -32.834 -5.83301 -48.501 -17.5s-23.5 -30.167 -23.5 -55.5z" />
    <glyph glyph-name="uniFB8D" unicode="&#x691;" horiz-adv-x="413" arabic-form="final" 
d="M199 -67l0.000976562 475.001c0 10 2.66699 18.167 8 24.5s14 9.5 26 9.5c5.33301 0 10.833 -0.833008 16.5 -2.5s9.5 -3.16699 11.5 -4.5v-377h167v-58h-167v-64c0 -42.667 -7.5 -76.167 -22.5 -100.5s-34.5 -41.333 -58.5 -51s-49 -14.5 -75 -14.5
c-20.667 0 -39.5 2.16699 -56.5 6.5s-29.833 8.16602 -38.5 11.499l17 52c7.33301 -2.66699 17 -5.66699 29 -9s26.667 -5 44 -5c14.667 0 29.667 2.33301 45 7s28.166 14.5 38.499 29.5s15.5 38.5 15.5 70.5zM192.001 741.001l0.00292969 -96
c9.33301 13.333 20.666 23.333 33.999 30s27.333 10 42 10c24 0 45.167 -7.33301 63.5 -22s27.5 -38.667 27.5 -72v-65h-247v42h34v157c0 6 2.16699 11.333 6.5 16s10.166 7 17.499 7c2.66699 0 6.16699 -0.5 10.5 -1.5s8.16602 -2.83301 11.499 -5.5zM192.004 568.001
l121.001 0.000976562v22c0 17.333 -4.83301 30.166 -14.5 38.499s-21.167 12.5 -34.5 12.5c-16.667 0 -32.834 -5.83301 -48.501 -17.5s-23.5 -30.167 -23.5 -55.5z" />
    <glyph glyph-name="uniFB8E" unicode="&#x6a9;" horiz-adv-x="856" arabic-form="isolated" 
d="M824 765l-337.007 -323.002h12c32 0 65.167 -4.5 99.5 -13.5s66.5 -24.5 96.5 -46.5s54.333 -51.833 73 -89.5s28 -85.5 28 -143.5v-149h-460c-59.333 0 -108.166 8 -146.499 24s-68.5 36.833 -90.5 62.5s-37.333 53.167 -46 82.5s-13 57.333 -13 84
c0 38.667 4.16699 65 12.5 79s18.5 21 30.5 21c11.333 0 22.333 -2.66699 33 -8c-5.33301 -16.667 -9 -32.5 -11 -47.5s-3 -29.5 -3 -43.5c0 -59.333 19.333 -106.833 58 -142.5s102.667 -53.5 192 -53.5h382v74c0 49.333 -6.83301 90.333 -20.5 123
s-31.667 58.334 -54 77.001s-47.166 32 -74.499 40s-54.666 12 -81.999 12c-23.333 0 -45.666 -2.66699 -66.999 -8s-40.333 -12.333 -57 -21c-6.66699 6.66699 -11 12.834 -13 18.501s-3 11.167 -3 16.5c0 8 3.33301 15 10 21l361 354c10.667 10.667 19.834 17 27.501 19
s14.834 3 21.501 3c16.667 0 30.334 -7.33301 41.001 -22z" />
    <glyph glyph-name="uniFB8F" unicode="&#x6a9;" horiz-adv-x="914" arabic-form="final" 
d="M929 0l-593.007 -0.00195312c-59.333 0 -108.166 8 -146.499 24s-68.5 36.833 -90.5 62.5s-37.333 53.167 -46 82.5s-13 57.333 -13 84c0 38.667 4.16699 65 12.5 79s18.5 21 30.5 21c11.333 0 22.333 -2.66699 33 -8c-5.33301 -16.667 -9 -32.5 -11 -47.5
s-3 -29.5 -3 -43.5c0 -59.333 19.333 -106.833 58 -142.5s102.667 -53.5 192 -53.5h382v74c0 49.333 -6.83301 90.333 -20.5 123s-31.667 58.334 -54 77.001s-47.166 32 -74.499 40s-54.666 12 -81.999 12c-23.333 0 -45.666 -2.66699 -66.999 -8s-40.333 -12.333 -57 -21
c-6.66699 6.66699 -11 12.834 -13 18.501s-3 11.167 -3 16.5c0 8 3.33301 15 10 21l361 354c10.667 10.667 19.834 17 27.501 19s14.834 3 21.501 3c16.667 0 30.334 -7.33301 41.001 -22l-337 -323h12c32 0 65.167 -4.5 99.5 -13.5s66.5 -24.5 96.5 -46.5
s54.333 -51.833 73 -89.5s28 -85.5 28 -143.5v-91h133v-58z" />
    <glyph glyph-name="uniFB90" unicode="&#x6a9;" horiz-adv-x="537" arabic-form="initial" 
d="M505 765l-337.003 -323.002h12c32 0 65.167 -4.5 99.5 -13.5s66.5 -24.5 96.5 -46.5s54.333 -51.833 73 -89.5s28 -85.5 28 -143.5v-149h-492v58h430v74c0 49.333 -6.83301 90.333 -20.5 123s-31.667 58.334 -54 77.001s-47.166 32 -74.499 40s-54.666 12 -81.999 12
c-23.333 0 -45.666 -2.66699 -66.999 -8s-40.333 -12.333 -57 -21c-6.66699 6.66699 -11 12.834 -13 18.501s-3 11.167 -3 16.5c0 8 3.33301 15 10 21l361 354c11.333 10.667 20.666 17 27.999 19s14.333 3 21 3c16.667 0 30.334 -7.33301 41.001 -22z" />
    <glyph glyph-name="uniFB91" unicode="&#x6a9;" horiz-adv-x="595" arabic-form="medial" 
d="M610 0l-625.003 -0.00195312v58h430v74c0 49.333 -6.83301 90.333 -20.5 123s-31.667 58.334 -54 77.001s-47.166 32 -74.499 40s-54.666 12 -81.999 12c-23.333 0 -45.666 -2.66699 -66.999 -8s-40.333 -12.333 -57 -21c-6.66699 6.66699 -11 12.834 -13 18.501
s-3 11.167 -3 16.5c0 8 3.33301 15 10 21l361 354c11.333 10.667 20.666 17 27.999 19s14.333 3 21 3c16.667 0 30.334 -7.33301 41.001 -22l-337 -323h12c32 0 65.167 -4.5 99.5 -13.5s66.5 -24.5 96.5 -46.5s54.333 -51.833 73 -89.5s28 -85.5 28 -143.5v-91h133v-58z" />
    <glyph glyph-name="uniFB92" unicode="&#x6af;" horiz-adv-x="856" arabic-form="isolated" 
d="M824 765l-337.007 -323.002h12c32 0 65.167 -4.5 99.5 -13.5s66.5 -24.5 96.5 -46.5s54.333 -51.833 73 -89.5s28 -85.5 28 -143.5v-149h-460c-59.333 0 -108.166 8 -146.499 24s-68.5 36.833 -90.5 62.5s-37.333 53.167 -46 82.5s-13 57.333 -13 84
c0 38.667 4.16699 65 12.5 79s18.5 21 30.5 21c11.333 0 22.333 -2.66699 33 -8c-5.33301 -16.667 -9 -32.5 -11 -47.5s-3 -29.5 -3 -43.5c0 -59.333 19.333 -106.833 58 -142.5s102.667 -53.5 192 -53.5h382v74c0 49.333 -6.83301 90.333 -20.5 123
s-31.667 58.334 -54 77.001s-47.166 32 -74.499 40s-54.666 12 -81.999 12c-23.333 0 -45.666 -2.66699 -66.999 -8s-40.333 -12.333 -57 -21c-6.66699 6.66699 -11 12.834 -13 18.501s-3 11.167 -3 16.5c0 8 3.33301 15 10 21l361 354c10.667 10.667 19.834 17 27.501 19
s14.834 3 21.501 3c16.667 0 30.334 -7.33301 41.001 -22zM321.993 544.998l295.997 290.999c10.667 10 19.834 16.167 27.501 18.5s14.834 3.5 21.501 3.5c16.667 0 30.334 -7.33301 41.001 -22l-403 -393c-8 7.33301 -13.333 14.333 -16 21s-4 13.334 -4 20.001
c0 11.333 3.66699 22 11 32s16 19.667 26 29z" />
    <glyph glyph-name="uniFB93" unicode="&#x6af;" horiz-adv-x="914" arabic-form="final" 
d="M929 0l-593.007 -0.00195312c-59.333 0 -108.166 8 -146.499 24s-68.5 36.833 -90.5 62.5s-37.333 53.167 -46 82.5s-13 57.333 -13 84c0 38.667 4.16699 65 12.5 79s18.5 21 30.5 21c11.333 0 22.333 -2.66699 33 -8c-5.33301 -16.667 -9 -32.5 -11 -47.5
s-3 -29.5 -3 -43.5c0 -59.333 19.333 -106.833 58 -142.5s102.667 -53.5 192 -53.5h382v74c0 49.333 -6.83301 90.333 -20.5 123s-31.667 58.334 -54 77.001s-47.166 32 -74.499 40s-54.666 12 -81.999 12c-23.333 0 -45.666 -2.66699 -66.999 -8s-40.333 -12.333 -57 -21
c-6.66699 6.66699 -11 12.834 -13 18.501s-3 11.167 -3 16.5c0 8 3.33301 15 10 21l361 354c10.667 10.667 19.834 17 27.501 19s14.834 3 21.501 3c16.667 0 30.334 -7.33301 41.001 -22l-337 -323h12c32 0 65.167 -4.5 99.5 -13.5s66.5 -24.5 96.5 -46.5
s54.333 -51.833 73 -89.5s28 -85.5 28 -143.5v-91h133v-58zM321.993 544.998l295.997 290.999c10.667 10 19.834 16.167 27.501 18.5s14.834 3.5 21.501 3.5c16.667 0 30.334 -7.33301 41.001 -22l-403 -393c-8 7.33301 -13.333 14.333 -16 21s-4 13.334 -4 20.001
c0 11.333 3.66699 22 11 32s16 19.667 26 29z" />
    <glyph glyph-name="uniFB94" unicode="&#x6af;" horiz-adv-x="619" arabic-form="initial" 
d="M587 765l-337.003 -323.002h12c32 0 65.167 -4.5 99.5 -13.5s66.5 -24.5 96.5 -46.5s54.333 -51.833 73 -89.5s28 -85.5 28 -143.5v-149h-574v58h512v74c0 49.333 -6.83301 90.333 -20.5 123s-31.667 58.334 -54 77.001s-47.166 32 -74.499 40s-54.666 12 -81.999 12
c-23.333 0 -45.666 -2.66699 -66.999 -8s-40.333 -12.333 -57 -21c-6.66699 6.66699 -11 12.834 -13 18.501s-3 11.167 -3 16.5c0 8 3.33301 15 10 21l361 354c11.333 10.667 20.666 17 27.999 19s14.333 3 21 3c16.667 0 30.334 -7.33301 41.001 -22zM85.9971 544.998
l295.997 290.999c10.667 10 19.834 16.167 27.501 18.5s14.834 3.5 21.501 3.5c16.667 0 30.334 -7.33301 41.001 -22l-403 -393c-8 7.33301 -13.333 14.333 -16 21s-4 13.334 -4 20.001c0 11.333 3.66699 22 11 32s16 19.667 26 29z" />
    <glyph glyph-name="uniFB95" unicode="&#x6af;" horiz-adv-x="678" arabic-form="medial" 
d="M693 0l-708.006 -0.00195312v58h513v74c0 49.333 -6.83301 90.333 -20.5 123s-31.667 58.334 -54 77.001s-47.166 32 -74.499 40s-54.666 12 -81.999 12c-23.333 0 -45.666 -2.66699 -66.999 -8s-40.333 -12.333 -57 -21c-6.66699 6.66699 -11 12.834 -13 18.501
s-3 11.167 -3 16.5c0 8 3.33301 15 10 21l361 354c10.667 10.667 19.834 17 27.501 19s14.834 3 21.501 3c16.667 0 30.334 -7.33301 41.001 -22l-337 -323h12c32 0 65.167 -4.5 99.5 -13.5s66.5 -24.5 96.5 -46.5s54.333 -51.833 73 -89.5s28 -85.5 28 -143.5v-91h133v-58z
M86.9941 544.998l295.997 290.999c10.667 10 19.834 16.167 27.501 18.5s14.834 3.5 21.501 3.5c16.667 0 30.334 -7.33301 41.001 -22l-403 -393c-8 7.33301 -13.333 14.333 -16 21s-4 13.334 -4 20.001c0 11.333 3.66699 22 11 32s16 19.667 26 29z" />
    <glyph glyph-name="uniFB9E" unicode="&#x6ba;" horiz-adv-x="617" arabic-form="isolated" 
d="M547 435v-366.999c0 -96.667 -21 -170.167 -63 -220.5s-105.333 -75.5 -190 -75.5c-50 0 -91.5 7.83301 -124.5 23.5s-58.833 36.334 -77.5 62.001s-32 54.167 -40 85.5s-12 62.666 -12 93.999c0 16 1.16699 37.667 3.5 65s7.5 53 15.5 77
c3.33301 10 7.83301 17.667 13.5 23s13.5 8 23.5 8c4.66699 0 10.167 -0.666992 16.5 -2s11.833 -3.33301 16.5 -6c-8.66699 -26.667 -15 -53.334 -19 -80.001s-6 -52.667 -6 -78c0 -42 6 -79.5 18 -112.5s32 -59 60 -78s65.667 -28.5 113 -28.5
c25.333 0 49.333 3.33301 72 10s42.834 19.167 60.501 37.5s31.667 44.5 42 78.5s15.5 78.333 15.5 133v324c0 10 2.66699 18.167 8 24.5s14 9.5 26 9.5c5.33301 0 10.666 -0.833008 15.999 -2.5s9.33301 -3.16699 12 -4.5z" />
    <glyph glyph-name="uniFB9F" unicode="&#x6ba;" horiz-adv-x="694" arabic-form="final" 
d="M547 435l0.00195312 -223c0 -31.333 3.16699 -58.5 9.5 -81.5s18.166 -40.833 35.499 -53.5s42.666 -19 75.999 -19h41v-58h-41c-29.333 -0 -54 3.33301 -74 10s-36 17.334 -48 32.001c-3.33301 -88 -26 -155 -68 -201s-103.333 -69 -184 -69
c-50 0 -91.5 7.83301 -124.5 23.5s-58.833 36.334 -77.5 62.001s-32 54.167 -40 85.5s-12 62.666 -12 93.999c0 16 1.16699 37.667 3.5 65s7.5 53 15.5 77c3.33301 10 7.83301 17.667 13.5 23s13.5 8 23.5 8c4.66699 0 10.167 -0.666992 16.5 -2s11.833 -3.33301 16.5 -6
c-8.66699 -26.667 -15 -53.334 -19 -80.001s-6 -52.667 -6 -78c0 -42 6 -79.5 18 -112.5s32 -59 60 -78s65.667 -28.5 113 -28.5c25.333 0 49.333 3.33301 72 10s42.834 19.167 60.501 37.5s31.667 44.5 42 78.5s15.5 78.333 15.5 133v324c0 10 2.66699 18.167 8 24.5
s14 9.5 26 9.5c5.33301 0 10.666 -0.833008 15.999 -2.5s9.33301 -3.16699 12 -4.5z" />
    <glyph glyph-name="uniFBA4" unicode="&#x6c0;" horiz-adv-x="534" arabic-form="isolated" 
d="M464 0l-168 0.000976562c-81.333 0 -141 19.333 -179 58s-57 91.334 -57 158.001c0 49.333 11.5 90.666 34.5 123.999s54 58.666 93 75.999s81.833 26 128.5 26h148v-442zM402 58.001v326h-90c-34.667 0 -66 -6 -94 -18s-50.333 -30.333 -67 -55s-25 -56.334 -25 -95.001
c0 -33.333 5.66699 -62.5 17 -87.5s36 -44.5 74 -58.5c9.33301 -3.33301 21.5 -6.16602 36.5 -8.49902s29.833 -3.5 44.5 -3.5h104zM207 535.001l0.000976562 41.999h49c-8 7.33301 -13.833 15.833 -17.5 25.5s-5.5 18.834 -5.5 27.501c0 18 4.66699 32.667 14 44
s20.833 19.5 34.5 24.5s27.5 7.5 41.5 7.5c14.667 0 27.667 -2.83301 39 -8.5s17 -13.167 17 -22.5c0 -8 -4.33301 -16.667 -13 -26c-11.333 10 -25.333 15 -42 15c-11.333 0 -21.333 -3.16699 -30 -9.5s-13 -16.5 -13 -30.5c0 -11.333 4.16699 -22 12.5 -32
s21.166 -15 38.499 -15h49v-42h-174z" />
    <glyph glyph-name="uniFBA5" unicode="&#x6c0;" horiz-adv-x="582" arabic-form="final" 
d="M597 0l-301 0.000976562c-81.333 0 -141 19.333 -179 58s-57 91.334 -57 158.001c0 49.333 11.5 90.666 34.5 123.999s54 58.666 93 75.999s81.833 26 128.5 26h148v-384h133v-58zM402 58.001v326h-90c-34.667 0 -66 -6 -94 -18s-50.333 -30.333 -67 -55
s-25 -56.334 -25 -95.001c0 -33.333 5.66699 -62.5 17 -87.5s36 -44.5 74 -58.5c9.33301 -3.33301 21.5 -6.16602 36.5 -8.49902s29.833 -3.5 44.5 -3.5h104zM207 535.001l0.000976562 41.999h49c-8 7.33301 -13.833 15.833 -17.5 25.5s-5.5 18.834 -5.5 27.501
c0 18 4.66699 32.667 14 44s20.833 19.5 34.5 24.5s27.5 7.5 41.5 7.5c14.667 0 27.667 -2.83301 39 -8.5s17 -13.167 17 -22.5c0 -8 -4.33301 -16.667 -13 -26c-11.333 10 -25.333 15 -42 15c-11.333 0 -21.333 -3.16699 -30 -9.5s-13 -16.5 -13 -30.5
c0 -11.333 4.16699 -22 12.5 -32s21.166 -15 38.499 -15h49v-42h-174z" />
    <glyph glyph-name="uniFBA6" unicode="&#x6c1;" horiz-adv-x="534" arabic-form="isolated" 
d="M464 0l-168 0.000976562c-81.333 0 -141 19.333 -179 58s-57 91.334 -57 158.001c0 49.333 11.5 90.666 34.5 123.999s54 58.666 93 75.999s81.833 26 128.5 26h148v-442zM402 58.001v326h-90c-34.667 0 -66 -6 -94 -18s-50.333 -30.333 -67 -55s-25 -56.334 -25 -95.001
c0 -33.333 5.66699 -62.5 17 -87.5s36 -44.5 74 -58.5c9.33301 -3.33301 21.5 -6.16602 36.5 -8.49902s29.833 -3.5 44.5 -3.5h104z" />
    <glyph glyph-name="uniFBA7" unicode="&#x6c1;" horiz-adv-x="430" arabic-form="final" 
d="M116 280c30.667 0 57.499 -8.33301 80.499 -25s43.833 -36 62.5 -58c18.667 -21.333 34.834 -45 48.501 -71l36.5 -68h101v-58h-136l-55.5 100.5c-13.667 24.333 -26.5 43.166 -38.5 56.499c-15.333 18 -32 33.333 -50 46s-36.667 19 -56 19
c-7.33301 0 -14.5 -0.666992 -21.5 -2s-13.5 -3.66602 -19.5 -6.99902c-12 8.66699 -18 19 -18 31s7 21 21 27s29 9 45 9z" />
    <glyph glyph-name="uniFBA8" unicode="&#x6c1;" horiz-adv-x="264" arabic-form="initial" 
d="M132 58v350c0 10 2.66699 18.167 8 24.5s14 9.5 26 9.5c5.33301 0 10.833 -0.833008 16.5 -2.5s9.5 -3.16699 11.5 -4.5v-435h-209v58h147zM117 -67l31.002 -23.998c-7.33301 -7.33301 -16.833 -17.5 -28.5 -30.5s-18.834 -28.833 -21.501 -47.5
c32 -3.33301 48 -19.333 48 -48c0 -12.667 -4.16699 -23.5 -12.5 -32.5s-19.833 -13.5 -34.5 -13.5c-12.667 0 -24.334 5.16699 -35.001 15.5s-16 26.833 -16 49.5c0 21.333 4.16699 40.666 12.5 57.999s18 32.166 29 44.499s20.167 21.833 27.5 28.5z" />
    <glyph glyph-name="uniFBA9" unicode="&#x6c1;" horiz-adv-x="346" arabic-form="medial" 
d="M175 -17c16.667 28 36.666 47.667 59.999 59s54 17 92 17h34v-58h-34c-35.333 0 -61.5 -7 -78.5 -21s-28.333 -33.667 -34 -59s-8.5 -55.333 -8.5 -90v-89h-62v90c0 34 -2.83301 63.667 -8.5 89s-17 45 -34 59s-43.167 21 -78.5 21h-38v58h38
c38.667 0 70.834 -6.83301 96.501 -20.5s44.167 -32.167 55.5 -55.5zM46.999 -117l31.002 -23.998c-7.33301 -7.33301 -16.833 -17.5 -28.5 -30.5s-18.834 -28.833 -21.501 -47.5c32 -3.33301 48 -19.333 48 -48c0 -12.667 -4.16699 -23.5 -12.5 -32.5
s-19.833 -13.5 -34.5 -13.5c-12.667 0 -24.334 5.16699 -35.001 15.5s-16 26.833 -16 49.5c0 21.333 4.16699 40.666 12.5 57.999s18 32.166 29 44.499s20.167 21.833 27.5 28.5z" />
    <glyph glyph-name="uniFBAA" unicode="&#x6be;" horiz-adv-x="808" arabic-form="isolated" 
d="M382 442v105.001c0 10 2.66699 18.167 8 24.5s14 9.5 26 9.5c5.33301 0 10.833 -0.833008 16.5 -2.5s9.5 -3.16699 11.5 -4.5v-132h294v-442h-442c-81.333 0 -141 19.333 -179 58s-57 91.334 -57 158.001c0 49.333 11.5 90.666 34.5 123.999s54 58.666 93 75.999
s81.833 26 128.5 26h66zM444 58.001h232v326h-232v-326zM382 58.001v326h-70c-34.667 0 -66 -6 -94 -18s-50.333 -30.333 -67 -55s-25 -56.334 -25 -95.001c0 -33.333 5.66699 -62.5 17 -87.5s36 -44.5 74 -58.5c9.33301 -3.33301 21.5 -6.16602 36.5 -8.49902
s29.833 -3.5 44.5 -3.5h84z" />
    <glyph glyph-name="uniFBAB" unicode="&#x6be;" horiz-adv-x="870" arabic-form="final" 
d="M382 442v105.001c0 10 2.66699 18.167 8 24.5s14 9.5 26 9.5c5.33301 0 10.833 -0.833008 16.5 -2.5s9.5 -3.16699 11.5 -4.5v-132h294v-384h147v-58h-589c-81.333 0 -141 19.333 -179 58s-57 91.334 -57 158.001c0 49.333 11.5 90.666 34.5 123.999s54 58.666 93 75.999
s81.833 26 128.5 26h66zM444 58.001h232v326h-232v-326zM382 58.001v326h-70c-34.667 0 -66 -6 -94 -18s-50.333 -30.333 -67 -55s-25 -56.334 -25 -95.001c0 -33.333 5.66699 -62.5 17 -87.5s36 -44.5 74 -58.5c9.33301 -3.33301 21.5 -6.16602 36.5 -8.49902
s29.833 -3.5 44.5 -3.5h84z" />
    <glyph glyph-name="uniFBAC" unicode="&#x6be;" horiz-adv-x="855" arabic-form="initial" 
d="M785 0l-800 0.00195312v58h188c-22 19.333 -38.5 42.5 -49.5 69.5s-16.5 56.5 -16.5 88.5c0 49.333 11.5 90.666 34.5 123.999s53.833 58.666 92.5 75.999s81.667 26 129 26h66v105c0 10 2.66699 18.167 8 24.5s14 9.5 26 9.5c5.33301 0 10.833 -0.833008 16.5 -2.5
s9.5 -3.16699 11.5 -4.5v-132h294v-442zM491 58.002h232v326h-232v-326zM429 58.002v326h-70c-34.667 0 -66 -6 -94 -18s-50.333 -30.333 -67 -55s-25 -56.334 -25 -95.001c0 -18.667 2.33301 -37.5 7 -56.5s13.5 -36.333 26.5 -52s32.167 -28.167 57.5 -37.5
c9.33301 -3.33301 21.5 -6.16602 36.5 -8.49902s29.833 -3.5 44.5 -3.5h84z" />
    <glyph glyph-name="uniFBAD" unicode="&#x6be;" horiz-adv-x="917" arabic-form="medial" 
d="M932 0l-947 0.00195312v58h188c-22 19.333 -38.5 42.5 -49.5 69.5s-16.5 56.5 -16.5 88.5c0 49.333 11.5 90.666 34.5 123.999s53.833 58.666 92.5 75.999s81.667 26 129 26h66v105c0 10 2.66699 18.167 8 24.5s14 9.5 26 9.5c5.33301 0 10.833 -0.833008 16.5 -2.5
s9.5 -3.16699 11.5 -4.5v-132h294v-384h147v-58zM491 58.002h232v326h-232v-326zM429 58.002v326h-70c-34.667 0 -66 -6 -94 -18s-50.333 -30.333 -67 -55s-25 -56.334 -25 -95.001c0 -18.667 2.33301 -37.5 7 -56.5s13.5 -36.333 26.5 -52s32.167 -28.167 57.5 -37.5
c9.33301 -3.33301 21.5 -6.16602 36.5 -8.49902s29.833 -3.5 44.5 -3.5h84z" />
    <glyph glyph-name="uniFBAE" unicode="&#x6d2;" horiz-adv-x="696" arabic-form="isolated" 
d="M50 53l268 291c9.33301 10 17.833 16 25.5 18s14.5 3 20.5 3c15.333 0 28 -7 38 -21l-273 -286h517v-58h-596v53z" />
    <glyph glyph-name="uniFBAF" unicode="&#x6d2;" horiz-adv-x="572" arabic-form="final" 
d="M116 -139c0 -27.333 5.66602 -51.332 16.999 -71.999s30.5 -36.834 57.5 -48.501s63.833 -17.5 110.5 -17.5h186v-58h-181c-84.667 0 -148.5 17.667 -191.5 53s-64.5 83 -64.5 143s19.833 107.833 59.5 143.5s101.834 53.5 186.501 53.5h291v-58h-286
c-46.667 0 -83.5 -5.83301 -110.5 -17.5s-46.167 -28 -57.5 -49s-17 -45.167 -17 -72.5z" />
    <glyph glyph-name="uniFBB0" unicode="&#x6d3;" horiz-adv-x="696" arabic-form="isolated" 
d="M50 53l268 291c9.33301 10 17.833 16 25.5 18s14.5 3 20.5 3c15.333 0 28 -7 38 -21l-273 -286h517v-58h-596v53zM46 365l0.000976562 41.999h49c-8 7.33301 -13.833 15.833 -17.5 25.5s-5.5 18.834 -5.5 27.501c0 18 4.66699 32.667 14 44s20.833 19.5 34.5 24.5
s27.5 7.5 41.5 7.5c14.667 0 27.667 -2.83301 39 -8.5s17 -13.167 17 -22.5c0 -8 -4.33301 -16.667 -13 -26c-11.333 10 -25.333 15 -42 15c-11.333 0 -21.333 -3.16699 -30 -9.5s-13 -16.5 -13 -30.5c0 -11.333 4.16699 -22 12.5 -32s21.166 -15 38.499 -15h49v-42h-174z
" />
    <glyph glyph-name="uniFBB1" unicode="&#x6d3;" horiz-adv-x="572" arabic-form="final" 
d="M116 -139c0 -27.333 5.66602 -51.332 16.999 -71.999s30.5 -36.834 57.5 -48.501s63.833 -17.5 110.5 -17.5h186v-58h-181c-84.667 0 -148.5 17.667 -191.5 53s-64.5 83 -64.5 143s19.833 107.833 59.5 143.5s101.834 53.5 186.501 53.5h291v-58h-286
c-46.667 0 -83.5 -5.83301 -110.5 -17.5s-46.167 -28 -57.5 -49s-17 -45.167 -17 -72.5zM33.999 138.001l0.000976562 41.999h49c-8 7.33301 -13.833 15.833 -17.5 25.5s-5.5 18.834 -5.5 27.501c0 18 4.66699 32.667 14 44s20.833 19.5 34.5 24.5s27.5 7.5 41.5 7.5
c14.667 0 27.667 -2.83301 39 -8.5s17 -13.167 17 -22.5c0 -8 -4.33301 -16.667 -13 -26c-11.333 10 -25.333 15 -42 15c-11.333 0 -21.333 -3.16699 -30 -9.5s-13 -16.5 -13 -30.5c0 -11.333 4.16699 -22 12.5 -32s21.166 -15 38.499 -15h49v-42h-174z" />
    <glyph glyph-name="uniFBE8" unicode="&#x649;" horiz-adv-x="264" arabic-form="initial" 
d="M132 58v350c0 10 2.66699 18.167 8 24.5s14 9.5 26 9.5c5.33301 0 10.833 -0.833008 16.5 -2.5s9.5 -3.16699 11.5 -4.5v-435h-209v58h147z" />
    <glyph glyph-name="uniFBE9" unicode="&#x649;" horiz-adv-x="346" arabic-form="medial" 
d="M171 76c-16.667 -28 -36.666 -47.667 -59.999 -59s-54 -17 -92 -17h-34v58h34c35.333 0 61.5 7 78.5 21s28.333 33.667 34 59s8.5 55.333 8.5 90v180c0 10 2.66699 18.167 8 24.5s14 9.5 26 9.5c5.33301 0 10.833 -0.833008 16.5 -2.5s9.5 -3.16699 11.5 -4.5v-208
c0 -34 2.83301 -63.667 8.5 -89s17 -45 34 -59s43.167 -21 78.5 -21h38v-58h-38c-38.667 0 -70.834 7 -96.501 21s-44.167 32.333 -55.5 55z" />
    <glyph glyph-name="uniFBFC" unicode="&#x6cc;" horiz-adv-x="716" arabic-form="isolated" 
d="M530 -230h-231.998c-50.667 0 -92.834 7.83301 -126.501 23.5s-60 36.5 -79 62.5s-32.5 54.833 -40.5 86.5s-12 63.167 -12 94.5c0 16 1.16699 37.667 3.5 65s7.5 53 15.5 77c3.33301 10 7.83301 17.667 13.5 23s13.5 8 23.5 8c4.66699 0 10.167 -0.666992 16.5 -2
s11.833 -3.33301 16.5 -6c-8.66699 -26.667 -15 -53.334 -19 -80.001s-6 -52.667 -6 -78c0 -42 6.16699 -79.167 18.5 -111.5s32.333 -57.833 60 -76.5s63.834 -28 108.501 -28h177v586c18.667 8.66699 41.334 15.5 68.001 20.5s52 7.5 76 7.5c23.333 0 43.166 -3 59.499 -9
s24.5 -16 24.5 -30c0 -10 -5 -20.333 -15 -31c-10.667 4.66699 -21.167 7.83398 -31.5 9.50098s-20.833 2.5 -31.5 2.5c-14.667 0 -29.334 -1.5 -44.001 -4.5s-29.334 -6.5 -44.001 -10.5v-599z" />
    <glyph glyph-name="uniFBFD" unicode="&#x6cc;" horiz-adv-x="959" arabic-form="final" 
d="M530 -230l-232.001 0.000976562c-50.667 0 -92.834 7.83301 -126.501 23.5s-60 36.5 -79 62.5s-32.5 54.833 -40.5 86.5s-12 63.167 -12 94.5c0 16 1.16699 37.667 3.5 65s7.5 53 15.5 77c3.33301 10 7.83301 17.667 13.5 23s13.5 8 23.5 8
c4.66699 0 10.167 -0.666992 16.5 -2s11.833 -3.33301 16.5 -6c-8.66699 -26.667 -15 -53.334 -19 -80.001s-6 -52.667 -6 -78c0 -42 6.16699 -79.167 18.5 -111.5s32.333 -57.833 60 -76.5s63.834 -28 108.501 -28h177v575c9.33301 4 23.833 9.16699 43.5 15.5
s42 11.833 67 16.5s50.5 7 76.5 7c64.667 0 111.834 -16 141.501 -48s44.5 -79.333 44.5 -142v-194h133v-58h-195v224c0 58 -8.66699 99.167 -26 123.5s-50 36.5 -98 36.5c-28.667 0 -54.5 -3.33301 -77.5 -10s-38.833 -11.667 -47.5 -15v-589z" />
    <glyph glyph-name="uniFBFE" unicode="&#x6cc;" horiz-adv-x="264" arabic-form="initial" 
d="M132 58v350c0 10 2.66699 18.167 8 24.5s14 9.5 26 9.5c5.33301 0 10.833 -0.833008 16.5 -2.5s9.5 -3.16699 11.5 -4.5v-435h-209v58h147zM-13 -131c0 14 4.66699 25.833 14 35.5s20.666 14.5 33.999 14.5s24.5 -4.83301 33.5 -14.5s13.5 -21.5 13.5 -35.5
s-4.5 -25.833 -13.5 -35.5s-20.167 -14.5 -33.5 -14.5s-24.666 4.83301 -33.999 14.5s-14 21.5 -14 35.5zM136 -131c0 14 4.66699 25.833 14 35.5s20.666 14.5 33.999 14.5c12.667 0 23.667 -4.83301 33 -14.5s14 -21.5 14 -35.5s-4.66699 -25.833 -14 -35.5
s-20.333 -14.5 -33 -14.5c-13.333 0 -24.666 4.83301 -33.999 14.5s-14 21.5 -14 35.5z" />
    <glyph glyph-name="uniFBFF" unicode="&#x6cc;" horiz-adv-x="346" arabic-form="medial" 
d="M171 76c-16.667 -28 -36.666 -47.667 -59.999 -59s-54 -17 -92 -17h-34v58h34c35.333 0 61.5 7 78.5 21s28.333 33.667 34 59s8.5 55.333 8.5 90v180c0 10 2.66699 18.167 8 24.5s14 9.5 26 9.5c5.33301 0 10.833 -0.833008 16.5 -2.5s9.5 -3.16699 11.5 -4.5v-208
c0 -34 2.83301 -63.667 8.5 -89s17 -45 34 -59s43.167 -21 78.5 -21h38v-58h-38c-38.667 0 -70.834 7 -96.501 21s-44.167 32.333 -55.5 55zM49.001 -131c0 14 4.66699 25.833 14 35.5s20.666 14.5 33.999 14.5s24.5 -4.83301 33.5 -14.5s13.5 -21.5 13.5 -35.5
s-4.5 -25.833 -13.5 -35.5s-20.167 -14.5 -33.5 -14.5s-24.666 4.83301 -33.999 14.5s-14 21.5 -14 35.5zM198.001 -131c0 14 4.66699 25.833 14 35.5s20.666 14.5 33.999 14.5c12.667 0 23.667 -4.83301 33 -14.5s14 -21.5 14 -35.5s-4.66699 -25.833 -14 -35.5
s-20.333 -14.5 -33 -14.5c-13.333 0 -24.666 4.83301 -33.999 14.5s-14 21.5 -14 35.5z" />
    <glyph glyph-name="uniFDFA" unicode="&#xfdfa;" horiz-adv-x="1065" arabic-form="isolated" 
d="M639 335l0.00488281 -40.001c6 12.667 14.167 22.834 24.5 30.501s24.833 11.5 43.5 11.5c14 0 28.167 -4.33301 42.5 -13s21.5 -26.334 21.5 -53.001v-37h-193c-18.667 0 -31.334 6.33301 -38.001 19c-7.33301 -12.667 -20 -19 -38 -19h-64
c-17.333 0 -29.333 -3.33301 -36 -10s-10 -15 -10 -25s3.33301 -18.167 10 -24.5s18.667 -9.5 36 -9.5h206v-14h-207c-21.333 0 -37 4.33301 -47 13s-15 20.334 -15 35.001s5 26.5 15 35.5s25.667 13.5 47 13.5h65c13.333 0 21.666 3.66699 24.999 11s5 17.333 5 30v254
c0 6 3 9 9 9c3.33301 0 5.66602 -0.666992 6.99902 -2v-261c0 -12.667 1.66699 -22.667 5 -30s11.666 -11 24.999 -11h46v81c0 5.33301 2.66699 8 8 8c3.33301 0 5.66602 -0.666992 6.99902 -2zM601.005 545.999l-0.00195312 -22c0 -7.33301 3 -11 9 -11s9 3.33301 9 10v19
c0 4 2.33301 6 7 6c2 0 3.66699 -0.666992 5 -2v-23c0 -6 3 -9 9 -9h9v28c0 4 2 6 6 6c1.33301 0 3.33301 -0.666992 6 -2v-43h-20c-7.33301 0 -12.666 2.33301 -15.999 7c-3.33301 -5.33301 -8.66602 -8 -15.999 -8c-3.33301 0 -7.5 1.16699 -12.5 3.5s-7.5 8.5 -7.5 18.5
v18c0 4 2 6 6 6c1.33301 0 3.33301 -0.666992 6 -2zM291.003 545.999l-0.00195312 -22c0 -7.33301 3 -11 9 -11s9 3.33301 9 10v19c0 4 2.33301 6 7 6c2 0 3.66699 -0.666992 5 -2v-23c0 -6 3 -9 9 -9h9v28c0 4 2 6 6 6c2.66699 0 4.66699 -0.666992 6 -2v-43h-20
c-7.33301 0 -12.666 2.33301 -15.999 7c-3.33301 -5.33301 -8.66602 -8 -15.999 -8c-3.33301 0 -7.5 1.16699 -12.5 3.5s-7.5 8.5 -7.5 18.5v18c0 4 2 6 6 6c2.66699 0 4.66699 -0.666992 6 -2zM447.001 290.999l0.000976562 221c0 6 3 9 9 9
c3.33301 0 5.66602 -0.666992 6.99902 -2v-228h-16zM316.002 309.999c-7.33301 -12.667 -19.9961 -19 -37.9961 -19h-65c-18 0 -32.667 3.66699 -44 11s-17 20.333 -17 39c0 14.667 5.33301 27.167 16 37.5s27.334 15.5 50.001 15.5h35v-89h25
c13.333 0 21.666 3.66699 24.999 11s5 17.333 5 30v118c0 6 3 9 9 9c3.33301 0 5.66602 -0.666992 6.99902 -2v-125c0 -12.667 1.66699 -22.667 5 -30s11.666 -11 24.999 -11h31v188c0 6 3 9 9 9c3.33301 0 5.66602 -0.666992 6.99902 -2v-209h-47
c-18.667 0 -31.334 6.33301 -38.001 19zM1012.01 61.999l-114.992 -0.00292969c-18.667 0 -31.334 6.33301 -38.001 19c-7.33301 -12.667 -20 -19 -38 -19h-22c-18.667 0 -31.334 6 -38.001 18c-7.33301 -12 -20 -18 -38 -18h-399v-140c0 -12.667 1.66699 -22.667 5 -30
s11.666 -11 24.999 -11h242c12 0 20 4.16699 24 12.5s6 18.5 6 30.5v38c0 5.33301 3 8 9 8c1.33301 0 2.66602 -0.166992 3.99902 -0.5s2.33301 -0.5 3 -0.5v-45c0 -15.333 1 -26.666 3 -33.999s8.33301 -11 19 -11s17.5 3.66699 20.5 11s4.5 18 4.5 32v40
c0 5.33301 3 8 9 8c1.33301 0 2.66602 -0.166992 3.99902 -0.5s2.33301 -0.5 3 -0.5v-47c0 -13.333 1.33301 -23.5 4 -30.5s9.66699 -10.5 21 -10.5h22v81c0 5.33301 3 8 9 8c1.33301 0 2.66602 -0.166992 3.99902 -0.5s2.33301 -0.5 3 -0.5v-102h-38
c-16 0 -27 6.33301 -33 19c-6 -13.333 -16.667 -20 -32 -20c-16.667 0 -27.334 7.33301 -32.001 22c-3.33301 -6 -8 -11 -14 -15s-13.667 -6 -23 -6h-242c-18.667 0 -31.334 6.33301 -38.001 19c-8 -12.667 -20 -19 -36 -19h-123c-9.33301 0 -14 -5.33301 -14 -16v-37h-15
v39c0 7.33301 1.66699 13.833 5 19.5s10.333 8.5 21 8.5h17c-11.333 9.33301 -17 22 -17 38c0 14.667 4.33301 26.834 13 36.501s20.667 14.5 36 14.5c16 0 28.167 -4.83301 36.5 -14.5s12.5 -21.834 12.5 -36.501v-38h26c13.333 0 21.666 3.66699 24.999 11s5 17.333 5 30
v140h-197c-18 0 -32.667 3.66699 -44 11s-17 20.333 -17 39c0 14.667 5.33301 27.167 16 37.5s27.334 15.5 50.001 15.5h35v-89h157v181c0 6 3 9 9 9c3.33301 0 5.66602 -0.666992 6.99902 -2v-188h399c12.667 0 20.834 3.66699 24.501 11s5.5 17 5.5 29v41
c0 5.33301 3 8 9 8c3.33301 0 5.66602 -0.666992 6.99902 -2v-47c0 -12 1.83301 -21.667 5.5 -29s11.834 -11 24.501 -11h22c12.667 0 20.834 3.66699 24.501 11s5.5 17.333 5.5 30v347c0 6 3 9 9 9c3.33301 0 5.66602 -0.666992 6.99902 -2v-354
c0 -12.667 1.83301 -22.667 5.5 -30s11.834 -11 24.501 -11h37c-11.333 9.33301 -17 22 -17 38c0 15.333 4.83301 27.666 14.5 36.999s22.167 14 37.5 14c19.333 0 30.666 -2.5 33.999 -7.5s5 -8.16699 5 -9.5c0 -2.66699 -1.66699 -5.66699 -5 -9
c-3.33301 2.66699 -7.66602 5.33398 -12.999 8.00098s-12.333 4 -21 4c-12 0 -21 -3.66699 -27 -11s-9 -15.666 -9 -24.999c0 -11.333 3.66699 -20.666 11 -27.999s16.666 -11 27.999 -11h40v-14zM769.014 430.996l-138 -50c-2.66699 -1.33301 -5 -2 -7 -2
c-4.66699 0 -7 3.66699 -7 11l138 50c1.33301 0.666992 3.33301 1 6 1c5.33301 0 8 -3.33301 8 -10zM238.014 304.996v75h-23c-15.333 0 -27 -4 -35 -12s-12 -17.333 -12 -28c0 -14.667 5 -24.167 15 -28.5s22.333 -6.5 37 -6.5h18zM639.014 247.996l116 -0.000976562v21
c0 36 -16.333 54 -49 54c-21.333 0 -37.833 -7.16699 -49.5 -21.5s-17.5 -32.166 -17.5 -53.499zM280.014 230.995l-97 -35c-2.66699 -1.33301 -5 -2 -7 -2c-4.66699 0 -7 3.66699 -7 11l97 35c1.33301 0.666992 3.33301 1 6 1c5.33301 0 8 -3.33301 8 -10zM1015.01 229.995
l-88 -33c-2.66699 -1.33301 -5 -2 -7 -2c-4.66699 0 -7 3.66699 -7 11l88 33c1.33301 0.666992 3.33301 1 6 1c5.33301 0 8 -3.33301 8 -10zM136.014 75.9951v75h-23c-15.333 0 -27 -3.83301 -35 -11.5s-12 -17.167 -12 -28.5c0 -14.667 5 -24.167 15 -28.5
s22.333 -6.5 37 -6.5h18zM418.014 -7.00488c0 8 4 12 12 12s12 -4 12 -12s-4 -12 -12 -12s-12 4 -12 12zM461.014 -7.00488c0 8 4 12 12 12s12 -4 12 -12s-4 -12 -12 -12s-12 4 -12 12zM891.014 -141.005l-0.00195312 7.99707h-29c-17.333 0 -30.5 4.83301 -39.5 14.5
s-13.5 22.167 -13.5 37.5c0 14.667 4.33301 26.834 13 36.501s20.667 14.5 36 14.5s27.166 -4.66699 35.499 -14s12.5 -21.666 12.5 -36.999v-60c0 -18.667 -5.16699 -31.334 -15.5 -38.001s-21.166 -10 -32.499 -10c-7.33301 0 -13.666 0.833008 -18.999 2.5
s-9.33301 2.83398 -12 3.50098l6 13c2 -1.33301 5 -2.66602 9 -3.99902s9.33301 -2 16 -2s13.834 2 21.501 6s11.5 13.667 11.5 29zM891.012 -119.008v36c0 11.333 -2.83301 20.833 -8.5 28.5s-13.834 11.5 -24.501 11.5s-18.667 -3.66699 -24 -11s-8 -16.333 -8 -27
c0 -12.667 3.33301 -22.167 10 -28.5s15.334 -9.5 26.001 -9.5h29zM236.012 -119.008l-0.00195312 36c0 11.333 -2.66699 20.833 -8 28.5s-13.666 11.5 -24.999 11.5c-10.667 0 -18.667 -3.66699 -24 -11s-8 -16.333 -8 -27s3.33301 -19.667 10 -27s15.334 -11 26.001 -11
h29z" />
    <glyph glyph-name="uniFE80" unicode="&#x621;" horiz-adv-x="387" arabic-form="isolated" 
d="M60 0l0.000976562 49h103c-22.667 13.333 -39.334 29.5 -50.001 48.5s-16 38.167 -16 57.5c0 28.667 6.66699 51.334 20 68.001s30 28.667 50 36s40 11 60 11c23.333 0 43.833 -4 61.5 -12s26.5 -17.333 26.5 -28c0 -5.33301 -0.833008 -10.333 -2.5 -15
s-4.83398 -10 -9.50098 -16c-21.333 14.667 -43.666 22 -66.999 22c-22.667 0 -42 -6.83301 -58 -20.5s-24 -31.834 -24 -54.501c0 -15.333 4.33301 -30.5 13 -45.5s21.667 -27.333 39 -37s38.333 -14.5 63 -14.5h58v-49h-267z" />
    <glyph glyph-name="uniFE81" unicode="&#x622;" horiz-adv-x="222" arabic-form="isolated" 
d="M80 0v753c0 10 2.66699 18.167 8 24.5s14 9.5 26 9.5c5.33301 0 10.833 -0.833008 16.5 -2.5s9.5 -3.16699 11.5 -4.5v-780h-62zM36 864h-46.999c0 34 7.16699 57.667 21.5 71s29.833 20 46.5 20c12.667 0 25.167 -3.16699 37.5 -9.5l37 -19
c12.333 -6.33301 25.5 -9.5 39.5 -9.5c7.33301 0 13.166 3 17.499 9s6.5 16.333 6.5 31h47c0 -34 -6.5 -57.833 -19.5 -71.5s-28.833 -20.5 -47.5 -20.5c-12.667 0 -26 3.16699 -40 9.5s-27.333 12.666 -40 18.999s-24 9.5 -34 9.5c-7.33301 0 -13.333 -2.66699 -18 -8
s-7 -15.666 -7 -30.999z" />
    <glyph glyph-name="uniFE82" unicode="&#x622;" horiz-adv-x="274" arabic-form="final" 
d="M80 0l0.000976562 753c0 10 2.66699 18.167 8 24.5s14 9.5 26 9.5c5.33301 0 10.666 -0.833008 15.999 -2.5s9.33301 -3.16699 12 -4.5v-722h147v-58h-209zM36.001 864h-46.999c0 34 7.16699 57.667 21.5 71s29.833 20 46.5 20c12.667 0 25.167 -3.16699 37.5 -9.5
l37 -19c12.333 -6.33301 25.5 -9.5 39.5 -9.5c7.33301 0 13.166 3 17.499 9s6.5 16.333 6.5 31h47c0 -34 -6.5 -57.833 -19.5 -71.5s-28.833 -20.5 -47.5 -20.5c-12.667 0 -26 3.16699 -40 9.5s-27.333 12.666 -40 18.999s-24 9.5 -34 9.5
c-7.33301 0 -13.333 -2.66699 -18 -8s-7 -15.666 -7 -30.999z" />
    <glyph glyph-name="uniFE83" unicode="&#x623;" horiz-adv-x="222" arabic-form="isolated" 
d="M80 0v753c0 10 2.66699 18.167 8 24.5s14 9.5 26 9.5c5.33301 0 10.833 -0.833008 16.5 -2.5s9.5 -3.16699 11.5 -4.5v-780h-62zM21 858l0.000976562 41.999h49c-8 7.33301 -13.833 15.833 -17.5 25.5s-5.5 18.834 -5.5 27.501c0 18 4.66699 32.667 14 44
s20.833 19.5 34.5 24.5s27.5 7.5 41.5 7.5c14.667 0 27.667 -2.83301 39 -8.5s17 -13.167 17 -22.5c0 -8 -4.33301 -16.667 -13 -26c-11.333 10 -25.333 15 -42 15c-11.333 0 -21.333 -3.16699 -30 -9.5s-13 -16.5 -13 -30.5c0 -11.333 4.16699 -22 12.5 -32
s21.166 -15 38.499 -15h49v-42h-174z" />
    <glyph glyph-name="uniFE84" unicode="&#x623;" horiz-adv-x="274" arabic-form="final" 
d="M80 0l0.000976562 753c0 10 2.66699 18.167 8 24.5s14 9.5 26 9.5c5.33301 0 10.666 -0.833008 15.999 -2.5s9.33301 -3.16699 12 -4.5v-722h147v-58h-209zM21.001 858l0.000976562 41.999h49c-8 7.33301 -13.833 15.833 -17.5 25.5s-5.5 18.834 -5.5 27.501
c0 18 4.66699 32.667 14 44s20.833 19.5 34.5 24.5s27.5 7.5 41.5 7.5c14.667 0 27.667 -2.83301 39 -8.5s17 -13.167 17 -22.5c0 -8 -4.33301 -16.667 -13 -26c-11.333 10 -25.333 15 -42 15c-11.333 0 -21.333 -3.16699 -30 -9.5s-13 -16.5 -13 -30.5
c0 -11.333 4.16699 -22 12.5 -32s21.166 -15 38.499 -15h49v-42h-174z" />
    <glyph glyph-name="uniFE85" unicode="&#x624;" horiz-adv-x="552" arabic-form="isolated" 
d="M482 216l-0.000976562 -241c0 -52 -10.167 -93.667 -30.5 -125s-46 -54 -77 -68s-62.167 -21 -93.5 -21c-28.667 0 -53.334 3.16699 -74.001 9.5s-36.334 12.5 -47.001 18.5l21 53c8.66699 -4.66699 21.334 -10.167 38.001 -16.5s37.334 -9.5 62.001 -9.5
c22 0 43.667 5.33301 65 16s39 28 53 52s21 56.667 21 98v18h-134c-44.667 -0 -84 8.33301 -118 25s-60.5 40.667 -79.5 72s-28.5 69.333 -28.5 114c0 48.667 9.33301 90.334 28 125.001s44 61 76 79s68 27 108 27c41.333 0 77.833 -9.16699 109.5 -27.5
s56.334 -44.333 74.001 -78s26.5 -73.834 26.5 -120.501zM419.999 58v147.999c0 59.333 -14 103.833 -42 133.5s-63.333 44.5 -106 44.5s-77.667 -13.833 -105 -41.5s-41 -71.5 -41 -131.5c0 -43.333 12.833 -79.666 38.5 -108.999s61.5 -44 107.5 -44h148zM195.999 534.999
l0.000976562 41.999h49c-8 7.33301 -13.833 15.833 -17.5 25.5s-5.5 18.834 -5.5 27.501c0 18 4.66699 32.667 14 44s20.833 19.5 34.5 24.5s27.5 7.5 41.5 7.5c14.667 0 27.667 -2.83301 39 -8.5s17 -13.167 17 -22.5c0 -8 -4.33301 -16.667 -13 -26
c-11.333 10 -25.333 15 -42 15c-11.333 0 -21.333 -3.16699 -30 -9.5s-13 -16.5 -13 -30.5c0 -11.333 4.16699 -22 12.5 -32s21.166 -15 38.499 -15h49v-42h-174z" />
    <glyph glyph-name="uniFE86" unicode="&#x624;" horiz-adv-x="595" arabic-form="final" 
d="M478 0l-0.000976562 -25c0 -52 -10.167 -93.667 -30.5 -125s-46 -54 -77 -68s-62.167 -21 -93.5 -21c-28.667 0 -53.334 3.16699 -74.001 9.5s-36.334 12.5 -47.001 18.5l21 53c8.66699 -4.66699 21.334 -10.167 38.001 -16.5s37.334 -9.5 62.001 -9.5
c22 0 43.667 5.33301 65 16s39 28 53 52s21 56.667 21 98v18h-134c-44.667 -0 -84 8.33301 -118 25s-60.5 40.667 -79.5 72s-28.5 69.333 -28.5 114c0 48.667 9.33301 90.334 28 125.001s44 61 76 79s68 27 108 27c41.333 0 77.833 -9.16699 109.5 -27.5
s56.334 -44.333 74.001 -78s26.5 -73.834 26.5 -120.501v-158h133v-58h-133zM415.999 58v147.999c0 59.333 -14 103.833 -42 133.5s-63.333 44.5 -106 44.5s-77.667 -13.833 -105 -41.5s-41 -71.5 -41 -131.5c0 -43.333 12.833 -79.666 38.5 -108.999s61.5 -44 107.5 -44
h148zM190.999 534.999l0.000976562 41.999h49c-8 7.33301 -13.833 15.833 -17.5 25.5s-5.5 18.834 -5.5 27.501c0 18 4.66699 32.667 14 44s20.833 19.5 34.5 24.5s27.5 7.5 41.5 7.5c14.667 0 27.667 -2.83301 39 -8.5s17 -13.167 17 -22.5c0 -8 -4.33301 -16.667 -13 -26
c-11.333 10 -25.333 15 -42 15c-11.333 0 -21.333 -3.16699 -30 -9.5s-13 -16.5 -13 -30.5c0 -11.333 4.16699 -22 12.5 -32s21.166 -15 38.499 -15h49v-42h-174z" />
    <glyph glyph-name="uniFE87" unicode="&#x625;" horiz-adv-x="222" arabic-form="isolated" 
d="M80 0v753c0 10 2.66699 18.167 8 24.5s14 9.5 26 9.5c5.33301 0 10.833 -0.833008 16.5 -2.5s9.5 -3.16699 11.5 -4.5v-780h-62zM25 -224l0.000976562 41.999h49c-8 7.33301 -13.833 15.833 -17.5 25.5s-5.5 18.834 -5.5 27.501c0 18 4.66699 32.667 14 44
s20.833 19.5 34.5 24.5s27.5 7.5 41.5 7.5c14.667 0 27.667 -2.83301 39 -8.5s17 -13.167 17 -22.5c0 -8 -4.33301 -16.667 -13 -26c-11.333 10 -25.333 15 -42 15c-11.333 0 -21.333 -3.16699 -30 -9.5s-13 -16.5 -13 -30.5c0 -11.333 4.16699 -22 12.5 -32
s21.166 -15 38.499 -15h49v-42h-174z" />
    <glyph glyph-name="uniFE88" unicode="&#x625;" horiz-adv-x="274" arabic-form="final" 
d="M80 0l0.000976562 753c0 10 2.66699 18.167 8 24.5s14 9.5 26 9.5c5.33301 0 10.666 -0.833008 15.999 -2.5s9.33301 -3.16699 12 -4.5v-722h147v-58h-209zM87.001 -224l0.000976562 41.999h49c-8 7.33301 -13.833 15.833 -17.5 25.5s-5.5 18.834 -5.5 27.501
c0 18 4.66699 32.667 14 44s20.833 19.5 34.5 24.5s27.5 7.5 41.5 7.5c14.667 0 27.667 -2.83301 39 -8.5s17 -13.167 17 -22.5c0 -8 -4.33301 -16.667 -13 -26c-11.333 10 -25.333 15 -42 15c-11.333 0 -21.333 -3.16699 -30 -9.5s-13 -16.5 -13 -30.5
c0 -11.333 4.16699 -22 12.5 -32s21.166 -15 38.499 -15h49v-42h-174z" />
    <glyph glyph-name="uniFE89" unicode="&#x626;" horiz-adv-x="716" arabic-form="isolated" 
d="M530 -230h-231.998c-50.667 0 -92.834 7.83301 -126.501 23.5s-60 36.5 -79 62.5s-32.5 54.833 -40.5 86.5s-12 63.167 -12 94.5c0 16 1.16699 37.667 3.5 65s7.5 53 15.5 77c3.33301 10 7.83301 17.667 13.5 23s13.5 8 23.5 8c4.66699 0 10.167 -0.666992 16.5 -2
s11.833 -3.33301 16.5 -6c-8.66699 -26.667 -15 -53.334 -19 -80.001s-6 -52.667 -6 -78c0 -42 6.16699 -79.167 18.5 -111.5s32.333 -57.833 60 -76.5s63.834 -28 108.501 -28h177v586c18.667 8.66699 41.334 15.5 68.001 20.5s52 7.5 76 7.5c23.333 0 43.166 -3 59.499 -9
s24.5 -16 24.5 -30c0 -10 -5 -20.333 -15 -31c-10.667 4.66699 -21.167 7.83398 -31.5 9.50098s-20.833 2.5 -31.5 2.5c-14.667 0 -29.334 -1.5 -44.001 -4.5s-29.334 -6.5 -44.001 -10.5v-599zM181.002 329l0.000976562 41.999h49c-8 7.33301 -13.833 15.833 -17.5 25.5
s-5.5 18.834 -5.5 27.501c0 18 4.66699 32.667 14 44s20.833 19.5 34.5 24.5s27.5 7.5 41.5 7.5c14.667 0 27.667 -2.83301 39 -8.5s17 -13.167 17 -22.5c0 -8 -4.33301 -16.667 -13 -26c-11.333 10 -25.333 15 -42 15c-11.333 0 -21.333 -3.16699 -30 -9.5
s-13 -16.5 -13 -30.5c0 -11.333 4.16699 -22 12.5 -32s21.166 -15 38.499 -15h49v-42h-174z" />
    <glyph glyph-name="uniFE8A" unicode="&#x626;" horiz-adv-x="959" arabic-form="final" 
d="M530 -230l-232.001 0.000976562c-50.667 0 -92.834 7.83301 -126.501 23.5s-60 36.5 -79 62.5s-32.5 54.833 -40.5 86.5s-12 63.167 -12 94.5c0 16 1.16699 37.667 3.5 65s7.5 53 15.5 77c3.33301 10 7.83301 17.667 13.5 23s13.5 8 23.5 8
c4.66699 0 10.167 -0.666992 16.5 -2s11.833 -3.33301 16.5 -6c-8.66699 -26.667 -15 -53.334 -19 -80.001s-6 -52.667 -6 -78c0 -42 6.16699 -79.167 18.5 -111.5s32.333 -57.833 60 -76.5s63.834 -28 108.501 -28h177v575c9.33301 4 23.833 9.16699 43.5 15.5
s42 11.833 67 16.5s50.5 7 76.5 7c64.667 0 111.834 -16 141.501 -48s44.5 -79.333 44.5 -142v-194h133v-58h-195v224c0 58 -8.66699 99.167 -26 123.5s-50 36.5 -98 36.5c-28.667 0 -54.5 -3.33301 -77.5 -10s-38.833 -11.667 -47.5 -15v-589zM195.999 339.001
l0.000976562 41.999h49c-8 7.33301 -13.833 15.833 -17.5 25.5s-5.5 18.834 -5.5 27.501c0 18 4.66699 32.667 14 44s20.833 19.5 34.5 24.5s27.5 7.5 41.5 7.5c14.667 0 27.667 -2.83301 39 -8.5s17 -13.167 17 -22.5c0 -8 -4.33301 -16.667 -13 -26
c-11.333 10 -25.333 15 -42 15c-11.333 0 -21.333 -3.16699 -30 -9.5s-13 -16.5 -13 -30.5c0 -11.333 4.16699 -22 12.5 -32s21.166 -15 38.499 -15h49v-42h-174z" />
    <glyph glyph-name="uniFE8B" unicode="&#x626;" horiz-adv-x="264" arabic-form="initial" 
d="M132 58v350c0 10 2.66699 18.167 8 24.5s14 9.5 26 9.5c5.33301 0 10.833 -0.833008 16.5 -2.5s9.5 -3.16699 11.5 -4.5v-435h-209v58h147zM76 535l0.000976562 41.999h49c-8 7.33301 -13.833 15.833 -17.5 25.5s-5.5 18.834 -5.5 27.501c0 18 4.66699 32.667 14 44
s20.833 19.5 34.5 24.5s27.5 7.5 41.5 7.5c14.667 0 27.667 -2.83301 39 -8.5s17 -13.167 17 -22.5c0 -8 -4.33301 -16.667 -13 -26c-11.333 10 -25.333 15 -42 15c-11.333 0 -21.333 -3.16699 -30 -9.5s-13 -16.5 -13 -30.5c0 -11.333 4.16699 -22 12.5 -32
s21.166 -15 38.499 -15h49v-42h-174z" />
    <glyph glyph-name="uniFE8C" unicode="&#x626;" horiz-adv-x="346" arabic-form="medial" 
d="M171 76c-16.667 -28 -36.666 -47.667 -59.999 -59s-54 -17 -92 -17h-34v58h34c35.333 0 61.5 7 78.5 21s28.333 33.667 34 59s8.5 55.333 8.5 90v180c0 10 2.66699 18.167 8 24.5s14 9.5 26 9.5c5.33301 0 10.833 -0.833008 16.5 -2.5s9.5 -3.16699 11.5 -4.5v-208
c0 -34 2.83301 -63.667 8.5 -89s17 -45 34 -59s43.167 -21 78.5 -21h38v-58h-38c-38.667 0 -70.834 7 -96.501 21s-44.167 32.333 -55.5 55zM85.001 535l0.000976562 41.999h49c-8 7.33301 -13.833 15.833 -17.5 25.5s-5.5 18.834 -5.5 27.501c0 18 4.66699 32.667 14 44
s20.833 19.5 34.5 24.5s27.5 7.5 41.5 7.5c14.667 0 27.667 -2.83301 39 -8.5s17 -13.167 17 -22.5c0 -8 -4.33301 -16.667 -13 -26c-11.333 10 -25.333 15 -42 15c-11.333 0 -21.333 -3.16699 -30 -9.5s-13 -16.5 -13 -30.5c0 -11.333 4.16699 -22 12.5 -32
s21.166 -15 38.499 -15h49v-42h-174z" />
    <glyph glyph-name="uniFE8D" unicode="&#x627;" horiz-adv-x="222" arabic-form="isolated" 
d="M80 0v753c0 10 2.66699 18.167 8 24.5s14 9.5 26 9.5c5.33301 0 10.833 -0.833008 16.5 -2.5s9.5 -3.16699 11.5 -4.5v-780h-62z" />
    <glyph glyph-name="uniFE8E" unicode="&#x627;" horiz-adv-x="274" arabic-form="final" 
d="M80 0l0.000976562 753c0 10 2.66699 18.167 8 24.5s14 9.5 26 9.5c5.33301 0 10.666 -0.833008 15.999 -2.5s9.33301 -3.16699 12 -4.5v-722h147v-58h-209z" />
    <glyph glyph-name="uniFE8F" unicode="&#x628;" horiz-adv-x="810" arabic-form="isolated" 
d="M136 345c-5.33301 -16.667 -9.00098 -32.5 -11.001 -47.5s-3 -29.5 -3 -43.5c0 -59.333 19.333 -106.833 58 -142.5s102.667 -53.5 192 -53.5h306v350c0 10 2.83301 18.167 8.5 24.5s14.167 9.5 25.5 9.5c6 0 11.5 -0.833008 16.5 -2.5s8.83301 -3.16699 11.5 -4.5v-435
h-384c-59.333 0 -108.166 8 -146.499 24s-68.5 36.833 -90.5 62.5s-37.333 53.167 -46 82.5s-13 57.333 -13 84c0 38.667 4.16699 65 12.5 79s18.5 21 30.5 21c11.333 0 22.333 -2.66699 33 -8zM386.999 -130c0 14 4.66699 25.833 14 35.5s20.333 14.5 33 14.5
c13.333 0 24.666 -4.83301 33.999 -14.5s14 -21.5 14 -35.5s-4.66699 -25.833 -14 -35.5s-20.666 -14.5 -33.999 -14.5c-12.667 0 -23.667 4.83301 -33 14.5s-14 21.5 -14 35.5z" />
    <glyph glyph-name="uniFE90" unicode="&#x628;" horiz-adv-x="873" arabic-form="final" 
d="M136 345c-5.33301 -16.667 -9.00098 -32.5 -11.001 -47.5s-3 -29.5 -3 -43.5c0 -59.333 19.333 -106.833 58 -142.5s102.667 -53.5 192 -53.5h306v350c0 10 2.83301 18.167 8.5 24.5s14.167 9.5 25.5 9.5c6 0 11.5 -0.833008 16.5 -2.5s8.83301 -3.16699 11.5 -4.5v-377
h148v-58h-532c-59.333 0 -108.166 8 -146.499 24s-68.5 36.833 -90.5 62.5s-37.333 53.167 -46 82.5s-13 57.333 -13 84c0 38.667 4.16699 65 12.5 79s18.5 21 30.5 21c11.333 0 22.333 -2.66699 33 -8zM386.999 -130c0 14 4.66699 25.833 14 35.5s20.333 14.5 33 14.5
c13.333 0 24.666 -4.83301 33.999 -14.5s14 -21.5 14 -35.5s-4.66699 -25.833 -14 -35.5s-20.666 -14.5 -33.999 -14.5c-12.667 0 -23.667 4.83301 -33 14.5s-14 21.5 -14 35.5z" />
    <glyph glyph-name="uniFE91" unicode="&#x628;" horiz-adv-x="264" arabic-form="initial" 
d="M132 58v350c0 10 2.66699 18.167 8 24.5s14 9.5 26 9.5c5.33301 0 10.833 -0.833008 16.5 -2.5s9.5 -3.16699 11.5 -4.5v-435h-209v58h147zM60 -130c0 14 4.66699 25.833 14 35.5s20.333 14.5 33 14.5c13.333 0 24.666 -4.83301 33.999 -14.5s14 -21.5 14 -35.5
s-4.66699 -25.833 -14 -35.5s-20.666 -14.5 -33.999 -14.5c-12.667 0 -23.667 4.83301 -33 14.5s-14 21.5 -14 35.5z" />
    <glyph glyph-name="uniFE92" unicode="&#x628;" horiz-adv-x="346" arabic-form="medial" 
d="M171 76c-16.667 -28 -36.666 -47.667 -59.999 -59s-54 -17 -92 -17h-34v58h34c35.333 0 61.5 7 78.5 21s28.333 33.667 34 59s8.5 55.333 8.5 90v180c0 10 2.66699 18.167 8 24.5s14 9.5 26 9.5c5.33301 0 10.833 -0.833008 16.5 -2.5s9.5 -3.16699 11.5 -4.5v-208
c0 -34 2.83301 -63.667 8.5 -89s17 -45 34 -59s43.167 -21 78.5 -21h38v-58h-38c-38.667 0 -70.834 7 -96.501 21s-44.167 32.333 -55.5 55zM125.001 -130c0 14 4.66699 25.833 14 35.5s20.333 14.5 33 14.5c13.333 0 24.666 -4.83301 33.999 -14.5s14 -21.5 14 -35.5
s-4.66699 -25.833 -14 -35.5s-20.666 -14.5 -33.999 -14.5c-12.667 0 -23.667 4.83301 -33 14.5s-14 21.5 -14 35.5z" />
    <glyph glyph-name="uniFE93" unicode="&#x629;" horiz-adv-x="534" arabic-form="isolated" 
d="M464 0l-168 0.000976562c-81.333 0 -141 19.333 -179 58s-57 91.334 -57 158.001c0 49.333 11.5 90.666 34.5 123.999s54 58.666 93 75.999s81.833 26 128.5 26h148v-442zM402 58.001v326h-90c-34.667 0 -66 -6 -94 -18s-50.333 -30.333 -67 -55s-25 -56.334 -25 -95.001
c0 -33.333 5.66699 -62.5 17 -87.5s36 -44.5 74 -58.5c9.33301 -3.33301 21.5 -6.16602 36.5 -8.49902s29.833 -3.5 44.5 -3.5h104zM186 570.001c0 14 4.66699 25.833 14 35.5s20.666 14.5 33.999 14.5s24.5 -4.83301 33.5 -14.5s13.5 -21.5 13.5 -35.5
s-4.5 -25.833 -13.5 -35.5s-20.167 -14.5 -33.5 -14.5s-24.666 4.83301 -33.999 14.5s-14 21.5 -14 35.5zM335 570.001c0 14 4.66699 25.833 14 35.5s20.666 14.5 33.999 14.5s24.5 -4.83301 33.5 -14.5s13.5 -21.5 13.5 -35.5s-4.5 -25.833 -13.5 -35.5
s-20.167 -14.5 -33.5 -14.5s-24.666 4.83301 -33.999 14.5s-14 21.5 -14 35.5z" />
    <glyph glyph-name="uniFE94" unicode="&#x629;" horiz-adv-x="582" arabic-form="final" 
d="M597 0l-301 0.000976562c-81.333 0 -141 19.333 -179 58s-57 91.334 -57 158.001c0 49.333 11.5 90.666 34.5 123.999s54 58.666 93 75.999s81.833 26 128.5 26h148v-384h133v-58zM402 58.001v326h-90c-34.667 0 -66 -6 -94 -18s-50.333 -30.333 -67 -55
s-25 -56.334 -25 -95.001c0 -33.333 5.66699 -62.5 17 -87.5s36 -44.5 74 -58.5c9.33301 -3.33301 21.5 -6.16602 36.5 -8.49902s29.833 -3.5 44.5 -3.5h104zM196 570.001c0 14 4.66699 25.833 14 35.5s20.666 14.5 33.999 14.5s24.5 -4.83301 33.5 -14.5
s13.5 -21.5 13.5 -35.5s-4.5 -25.833 -13.5 -35.5s-20.167 -14.5 -33.5 -14.5s-24.666 4.83301 -33.999 14.5s-14 21.5 -14 35.5zM345 570.001c0 14 4.66699 25.833 14 35.5s20.666 14.5 33.999 14.5s24.5 -4.83301 33.5 -14.5s13.5 -21.5 13.5 -35.5
s-4.5 -25.833 -13.5 -35.5s-20.167 -14.5 -33.5 -14.5s-24.666 4.83301 -33.999 14.5s-14 21.5 -14 35.5z" />
    <glyph glyph-name="uniFE95" unicode="&#x62a;" horiz-adv-x="810" arabic-form="isolated" 
d="M136 345c-5.33301 -16.667 -9.00098 -32.5 -11.001 -47.5s-3 -29.5 -3 -43.5c0 -59.333 19.333 -106.833 58 -142.5s102.667 -53.5 192 -53.5h306v350c0 10 2.83301 18.167 8.5 24.5s14.167 9.5 25.5 9.5c6 0 11.5 -0.833008 16.5 -2.5s8.83301 -3.16699 11.5 -4.5v-435
h-384c-59.333 0 -108.166 8 -146.499 24s-68.5 36.833 -90.5 62.5s-37.333 53.167 -46 82.5s-13 57.333 -13 84c0 38.667 4.16699 65 12.5 79s18.5 21 30.5 21c11.333 0 22.333 -2.66699 33 -8zM294.999 570c0 14 4.66699 25.833 14 35.5s20.666 14.5 33.999 14.5
s24.5 -4.83301 33.5 -14.5s13.5 -21.5 13.5 -35.5s-4.5 -25.833 -13.5 -35.5s-20.167 -14.5 -33.5 -14.5s-24.666 4.83301 -33.999 14.5s-14 21.5 -14 35.5zM443.999 570c0 14 4.66699 25.833 14 35.5s20.666 14.5 33.999 14.5s24.5 -4.83301 33.5 -14.5
s13.5 -21.5 13.5 -35.5s-4.5 -25.833 -13.5 -35.5s-20.167 -14.5 -33.5 -14.5s-24.666 4.83301 -33.999 14.5s-14 21.5 -14 35.5z" />
    <glyph glyph-name="uniFE96" unicode="&#x62a;" horiz-adv-x="872" arabic-form="final" 
d="M136 345c-5.33301 -16.667 -9.00098 -32.5 -11.001 -47.5s-3 -29.5 -3 -43.5c0 -59.333 19.333 -106.833 58 -142.5s102.667 -53.5 192 -53.5h306v350c0 10 2.83301 18.167 8.5 24.5s14.167 9.5 25.5 9.5c6 0 11.5 -0.833008 16.5 -2.5s8.83301 -3.16699 11.5 -4.5v-377
h148v-58h-532c-59.333 0 -108.166 8 -146.499 24s-68.5 36.833 -90.5 62.5s-37.333 53.167 -46 82.5s-13 57.333 -13 84c0 38.667 4.16699 65 12.5 79s18.5 21 30.5 21c11.333 0 22.333 -2.66699 33 -8zM294.999 570c0 14 4.66699 25.833 14 35.5s20.666 14.5 33.999 14.5
s24.5 -4.83301 33.5 -14.5s13.5 -21.5 13.5 -35.5s-4.5 -25.833 -13.5 -35.5s-20.167 -14.5 -33.5 -14.5s-24.666 4.83301 -33.999 14.5s-14 21.5 -14 35.5zM443.999 570c0 14 4.66699 25.833 14 35.5s20.666 14.5 33.999 14.5s24.5 -4.83301 33.5 -14.5
s13.5 -21.5 13.5 -35.5s-4.5 -25.833 -13.5 -35.5s-20.167 -14.5 -33.5 -14.5s-24.666 4.83301 -33.999 14.5s-14 21.5 -14 35.5z" />
    <glyph glyph-name="uniFE97" unicode="&#x62a;" horiz-adv-x="321" arabic-form="initial" 
d="M132 58v350c0 10 2.66699 18.167 8 24.5s14 9.5 26 9.5c5.33301 0 10.833 -0.833008 16.5 -2.5s9.5 -3.16699 11.5 -4.5v-435h-209v58h147zM42 570c0 14 4.66699 25.833 14 35.5s20.666 14.5 33.999 14.5s24.5 -4.83301 33.5 -14.5s13.5 -21.5 13.5 -35.5
s-4.5 -25.833 -13.5 -35.5s-20.167 -14.5 -33.5 -14.5s-24.666 4.83301 -33.999 14.5s-14 21.5 -14 35.5zM191 570c0 14 4.66699 25.833 14 35.5s20.666 14.5 33.999 14.5s24.5 -4.83301 33.5 -14.5s13.5 -21.5 13.5 -35.5s-4.5 -25.833 -13.5 -35.5
s-20.167 -14.5 -33.5 -14.5s-24.666 4.83301 -33.999 14.5s-14 21.5 -14 35.5z" />
    <glyph glyph-name="uniFE98" unicode="&#x62a;" horiz-adv-x="346" arabic-form="medial" 
d="M171 76c-16.667 -28 -36.666 -47.667 -59.999 -59s-54 -17 -92 -17h-34v58h34c35.333 0 61.5 7 78.5 21s28.333 33.667 34 59s8.5 55.333 8.5 90v180c0 10 2.66699 18.167 8 24.5s14 9.5 26 9.5c5.33301 0 10.833 -0.833008 16.5 -2.5s9.5 -3.16699 11.5 -4.5v-208
c0 -34 2.83301 -63.667 8.5 -89s17 -45 34 -59s43.167 -21 78.5 -21h38v-58h-38c-38.667 0 -70.834 7 -96.501 21s-44.167 32.333 -55.5 55zM51.001 570c0 14 4.66699 25.833 14 35.5s20.666 14.5 33.999 14.5s24.5 -4.83301 33.5 -14.5s13.5 -21.5 13.5 -35.5
s-4.5 -25.833 -13.5 -35.5s-20.167 -14.5 -33.5 -14.5s-24.666 4.83301 -33.999 14.5s-14 21.5 -14 35.5zM200.001 570c0 14 4.66699 25.833 14 35.5s20.666 14.5 33.999 14.5s24.5 -4.83301 33.5 -14.5s13.5 -21.5 13.5 -35.5s-4.5 -25.833 -13.5 -35.5
s-20.167 -14.5 -33.5 -14.5s-24.666 4.83301 -33.999 14.5s-14 21.5 -14 35.5z" />
    <glyph glyph-name="uniFE99" unicode="&#x62b;" horiz-adv-x="810" arabic-form="isolated" 
d="M136 345c-5.33301 -16.667 -9.00098 -32.5 -11.001 -47.5s-3 -29.5 -3 -43.5c0 -59.333 19.333 -106.833 58 -142.5s102.667 -53.5 192 -53.5h306v350c0 10 2.83301 18.167 8.5 24.5s14.167 9.5 25.5 9.5c6 0 11.5 -0.833008 16.5 -2.5s8.83301 -3.16699 11.5 -4.5v-435
h-384c-59.333 0 -108.166 8 -146.499 24s-68.5 36.833 -90.5 62.5s-37.333 53.167 -46 82.5s-13 57.333 -13 84c0 38.667 4.16699 65 12.5 79s18.5 21 30.5 21c11.333 0 22.333 -2.66699 33 -8zM369.999 700c0 14 4.66699 25.833 14 35.5s20.666 14.5 33.999 14.5
s24.5 -4.83301 33.5 -14.5s13.5 -21.5 13.5 -35.5s-4.5 -25.833 -13.5 -35.5s-20.167 -14.5 -33.5 -14.5s-24.666 4.83301 -33.999 14.5s-14 21.5 -14 35.5zM442.999 570c0 14 4.66699 25.833 14 35.5s20.666 14.5 33.999 14.5s24.5 -4.83301 33.5 -14.5
s13.5 -21.5 13.5 -35.5s-4.5 -25.833 -13.5 -35.5s-20.167 -14.5 -33.5 -14.5s-24.666 4.83301 -33.999 14.5s-14 21.5 -14 35.5zM293.999 570c0 14 4.66699 25.833 14 35.5s20.666 14.5 33.999 14.5s24.5 -4.83301 33.5 -14.5s13.5 -21.5 13.5 -35.5
s-4.5 -25.833 -13.5 -35.5s-20.167 -14.5 -33.5 -14.5s-24.666 4.83301 -33.999 14.5s-14 21.5 -14 35.5z" />
    <glyph glyph-name="uniFE9A" unicode="&#x62b;" horiz-adv-x="872" arabic-form="final" 
d="M136 345c-5.33301 -16.667 -9.00098 -32.5 -11.001 -47.5s-3 -29.5 -3 -43.5c0 -59.333 19.333 -106.833 58 -142.5s102.667 -53.5 192 -53.5h306v350c0 10 2.83301 18.167 8.5 24.5s14.167 9.5 25.5 9.5c6 0 11.5 -0.833008 16.5 -2.5s8.83301 -3.16699 11.5 -4.5v-377
h148v-58h-532c-59.333 0 -108.166 8 -146.499 24s-68.5 36.833 -90.5 62.5s-37.333 53.167 -46 82.5s-13 57.333 -13 84c0 38.667 4.16699 65 12.5 79s18.5 21 30.5 21c11.333 0 22.333 -2.66699 33 -8zM368.999 700c0 14 4.66699 25.833 14 35.5s20.666 14.5 33.999 14.5
s24.5 -4.83301 33.5 -14.5s13.5 -21.5 13.5 -35.5s-4.5 -25.833 -13.5 -35.5s-20.167 -14.5 -33.5 -14.5s-24.666 4.83301 -33.999 14.5s-14 21.5 -14 35.5zM441.999 570c0 14 4.66699 25.833 14 35.5s20.666 14.5 33.999 14.5s24.5 -4.83301 33.5 -14.5
s13.5 -21.5 13.5 -35.5s-4.5 -25.833 -13.5 -35.5s-20.167 -14.5 -33.5 -14.5s-24.666 4.83301 -33.999 14.5s-14 21.5 -14 35.5zM292.999 570c0 14 4.66699 25.833 14 35.5s20.666 14.5 33.999 14.5s24.5 -4.83301 33.5 -14.5s13.5 -21.5 13.5 -35.5
s-4.5 -25.833 -13.5 -35.5s-20.167 -14.5 -33.5 -14.5s-24.666 4.83301 -33.999 14.5s-14 21.5 -14 35.5z" />
    <glyph glyph-name="uniFE9B" unicode="&#x62b;" horiz-adv-x="264" arabic-form="initial" 
d="M132 58v350c0 10 2.66699 18.167 8 24.5s14 9.5 26 9.5c5.33301 0 10.833 -0.833008 16.5 -2.5s9.5 -3.16699 11.5 -4.5v-435h-209v58h147zM119 700c0 14 4.66699 25.833 14 35.5s20.666 14.5 33.999 14.5s24.5 -4.83301 33.5 -14.5s13.5 -21.5 13.5 -35.5
s-4.5 -25.833 -13.5 -35.5s-20.167 -14.5 -33.5 -14.5s-24.666 4.83301 -33.999 14.5s-14 21.5 -14 35.5zM192 570c0 14 4.66699 25.833 14 35.5s20.666 14.5 33.999 14.5s24.5 -4.83301 33.5 -14.5s13.5 -21.5 13.5 -35.5s-4.5 -25.833 -13.5 -35.5
s-20.167 -14.5 -33.5 -14.5s-24.666 4.83301 -33.999 14.5s-14 21.5 -14 35.5zM43 570c0 14 4.66699 25.833 14 35.5s20.666 14.5 33.999 14.5s24.5 -4.83301 33.5 -14.5s13.5 -21.5 13.5 -35.5s-4.5 -25.833 -13.5 -35.5s-20.167 -14.5 -33.5 -14.5
s-24.666 4.83301 -33.999 14.5s-14 21.5 -14 35.5z" />
    <glyph glyph-name="uniFE9C" unicode="&#x62b;" horiz-adv-x="346" arabic-form="medial" 
d="M171 76c-16.667 -28 -36.666 -47.667 -59.999 -59s-54 -17 -92 -17h-34v58h34c35.333 0 61.5 7 78.5 21s28.333 33.667 34 59s8.5 55.333 8.5 90v180c0 10 2.66699 18.167 8 24.5s14 9.5 26 9.5c5.33301 0 10.833 -0.833008 16.5 -2.5s9.5 -3.16699 11.5 -4.5v-208
c0 -34 2.83301 -63.667 8.5 -89s17 -45 34 -59s43.167 -21 78.5 -21h38v-58h-38c-38.667 0 -70.834 7 -96.501 21s-44.167 32.333 -55.5 55zM124.001 700c0 14 4.66699 25.833 14 35.5s20.666 14.5 33.999 14.5s24.5 -4.83301 33.5 -14.5s13.5 -21.5 13.5 -35.5
s-4.5 -25.833 -13.5 -35.5s-20.167 -14.5 -33.5 -14.5s-24.666 4.83301 -33.999 14.5s-14 21.5 -14 35.5zM197.001 570c0 14 4.66699 25.833 14 35.5s20.666 14.5 33.999 14.5s24.5 -4.83301 33.5 -14.5s13.5 -21.5 13.5 -35.5s-4.5 -25.833 -13.5 -35.5
s-20.167 -14.5 -33.5 -14.5s-24.666 4.83301 -33.999 14.5s-14 21.5 -14 35.5zM48.001 570c0 14 4.66699 25.833 14 35.5s20.666 14.5 33.999 14.5s24.5 -4.83301 33.5 -14.5s13.5 -21.5 13.5 -35.5s-4.5 -25.833 -13.5 -35.5s-20.167 -14.5 -33.5 -14.5
s-24.666 4.83301 -33.999 14.5s-14 21.5 -14 35.5z" />
    <glyph glyph-name="uniFE9D" unicode="&#x62c;" horiz-adv-x="613" arabic-form="isolated" 
d="M205 442c32.667 0 63.998 -8.66992 93.998 -26.0029s58.167 -40.166 84.5 -68.499s50.666 -59.5 72.999 -93.5s42.5 -68.167 60.5 -102.5s33.333 -65.5 46 -93.5v-58h-241c-143.333 0 -215 -60.667 -215 -182c0 -41.333 9.83301 -75 29.5 -101s45.5 -45.167 77.5 -57.5
s67 -18.5 105 -18.5c72 0 142.333 19.667 211 59l29 -47c-28.667 -18.667 -64.667 -34.667 -108 -48s-87.666 -20 -132.999 -20c-35.333 0 -69.5 4.33301 -102.5 13s-62.667 22.167 -89 40.5s-47.333 42.333 -63 72s-23.5 65.834 -23.5 108.501
c0 74.667 22.833 133.167 68.5 175.5s112.834 63.5 201.501 63.5h185c-36 68.667 -69.833 127.334 -101.5 176.001s-63.167 85.834 -94.5 111.501s-64.666 38.5 -99.999 38.5c-23.333 0 -42.333 -4 -57 -12c-10 10.667 -15 21 -15 31c0 11.333 7 20.666 21 27.999
s33 11 57 11zM281.998 -170.003c0 14 4.66699 25.833 14 35.5s20.333 14.5 33 14.5c13.333 0 24.666 -4.83301 33.999 -14.5s14 -21.5 14 -35.5s-4.66699 -25.833 -14 -35.5s-20.666 -14.5 -33.999 -14.5c-12.667 0 -23.667 4.83301 -33 14.5s-14 21.5 -14 35.5z" />
    <glyph glyph-name="uniFE9E" unicode="&#x62c;" horiz-adv-x="650" arabic-form="final" 
d="M205 442c32.667 0 63.998 -8.66992 93.998 -26.0029s58.167 -40.166 84.5 -68.499s50.666 -59.5 72.999 -93.5s42.5 -68.167 60.5 -102.5s33.333 -65.5 46 -93.5h102v-58h-343c-143.333 0 -215 -60.667 -215 -182c0 -41.333 9.83301 -75 29.5 -101
s45.5 -45.167 77.5 -57.5s67 -18.5 105 -18.5c72 0 142.333 19.667 211 59l29 -47c-28.667 -18.667 -64.667 -34.667 -108 -48s-87.666 -20 -132.999 -20c-35.333 0 -69.5 4.33301 -102.5 13s-62.667 22.167 -89 40.5s-47.333 42.333 -63 72s-23.5 65.834 -23.5 108.501
c0 74.667 22.833 133.167 68.5 175.5s112.834 63.5 201.501 63.5h185c-36 68.667 -69.833 127.334 -101.5 176.001s-63.167 85.834 -94.5 111.501s-64.666 38.5 -99.999 38.5c-23.333 0 -42.333 -4 -57 -12c-10 10.667 -15 21 -15 31c0 11.333 7 20.666 21 27.999
s33 11 57 11zM280.998 -170.003c0 14 4.66699 25.833 14 35.5s20.333 14.5 33 14.5c13.333 0 24.666 -4.83301 33.999 -14.5s14 -21.5 14 -35.5s-4.66699 -25.833 -14 -35.5s-20.666 -14.5 -33.999 -14.5c-12.667 0 -23.667 4.83301 -33 14.5s-14 21.5 -14 35.5z" />
    <glyph glyph-name="uniFE9F" unicode="&#x62c;" horiz-adv-x="534" arabic-form="initial" 
d="M-15 58h426.998c-21.333 38.667 -43.166 76 -65.499 112s-43.166 65.667 -62.499 89c-34.667 41.333 -65.667 72.5 -93 93.5s-57.333 31.5 -90 31.5c-23.333 0 -42.333 -4 -57 -12c-10 10.667 -15 21 -15 31c0 11.333 8.16699 20.666 24.5 27.999s36.5 11 60.5 11
c44 0 84.5 -15.167 121.5 -45.5s72.833 -67.166 107.5 -110.499c18 -22.667 36 -48.167 54 -76.5s34.333 -56.333 49 -84l38 -72.5v-53h-499v58zM162.998 -130c0 14 4.66699 25.833 14 35.5s20.333 14.5 33 14.5c13.333 0 24.666 -4.83301 33.999 -14.5s14 -21.5 14 -35.5
s-4.66699 -25.833 -14 -35.5s-20.666 -14.5 -33.999 -14.5c-12.667 0 -23.667 4.83301 -33 14.5s-14 21.5 -14 35.5z" />
    <glyph glyph-name="uniFEA0" unicode="&#x62c;" horiz-adv-x="559" arabic-form="medial" 
d="M-15 58h434.001c-20.667 38.667 -42.334 76 -65.001 112s-43.667 65.667 -63 89c-35.333 41.333 -66.333 72.5 -93 93.5s-56.667 31.5 -90 31.5c-22.667 0 -41.667 -4 -57 -12c-10 10.667 -15 21 -15 31c0 11.333 8.16699 20.666 24.5 27.999s36.5 11 60.5 11
c44 0 84.5 -15.167 121.5 -45.5s72.833 -67.166 107.5 -110.499c18.667 -22.667 36.667 -47.667 54 -75s33.333 -54.333 48 -81s27 -50.667 37 -72h85v-58h-589v58zM170.001 -130c0 14 4.66699 25.833 14 35.5s20.333 14.5 33 14.5c13.333 0 24.666 -4.83301 33.999 -14.5
s14 -21.5 14 -35.5s-4.66699 -25.833 -14 -35.5s-20.666 -14.5 -33.999 -14.5c-12.667 0 -23.667 4.83301 -33 14.5s-14 21.5 -14 35.5z" />
    <glyph glyph-name="uniFEA1" unicode="&#x62d;" horiz-adv-x="613" arabic-form="isolated" 
d="M205 442c32.667 0 63.998 -8.66992 93.998 -26.0029s58.167 -40.166 84.5 -68.499s50.666 -59.5 72.999 -93.5s42.5 -68.167 60.5 -102.5s33.333 -65.5 46 -93.5v-58h-241c-143.333 0 -215 -60.667 -215 -182c0 -41.333 9.83301 -75 29.5 -101s45.5 -45.167 77.5 -57.5
s67 -18.5 105 -18.5c72 0 142.333 19.667 211 59l29 -47c-28.667 -18.667 -64.667 -34.667 -108 -48s-87.666 -20 -132.999 -20c-35.333 0 -69.5 4.33301 -102.5 13s-62.667 22.167 -89 40.5s-47.333 42.333 -63 72s-23.5 65.834 -23.5 108.501
c0 74.667 22.833 133.167 68.5 175.5s112.834 63.5 201.501 63.5h185c-36 68.667 -69.833 127.334 -101.5 176.001s-63.167 85.834 -94.5 111.501s-64.666 38.5 -99.999 38.5c-23.333 0 -42.333 -4 -57 -12c-10 10.667 -15 21 -15 31c0 11.333 7 20.666 21 27.999
s33 11 57 11z" />
    <glyph glyph-name="uniFEA2" unicode="&#x62d;" horiz-adv-x="650" arabic-form="final" 
d="M205 442c32.667 0 63.998 -8.66992 93.998 -26.0029s58.167 -40.166 84.5 -68.499s50.666 -59.5 72.999 -93.5s42.5 -68.167 60.5 -102.5s33.333 -65.5 46 -93.5h102v-58h-343c-143.333 0 -215 -60.667 -215 -182c0 -41.333 9.83301 -75 29.5 -101
s45.5 -45.167 77.5 -57.5s67 -18.5 105 -18.5c72 0 142.333 19.667 211 59l29 -47c-28.667 -18.667 -64.667 -34.667 -108 -48s-87.666 -20 -132.999 -20c-35.333 0 -69.5 4.33301 -102.5 13s-62.667 22.167 -89 40.5s-47.333 42.333 -63 72s-23.5 65.834 -23.5 108.501
c0 74.667 22.833 133.167 68.5 175.5s112.834 63.5 201.501 63.5h185c-36 68.667 -69.833 127.334 -101.5 176.001s-63.167 85.834 -94.5 111.501s-64.666 38.5 -99.999 38.5c-23.333 0 -42.333 -4 -57 -12c-10 10.667 -15 21 -15 31c0 11.333 7 20.666 21 27.999
s33 11 57 11z" />
    <glyph glyph-name="uniFEA3" unicode="&#x62d;" horiz-adv-x="534" arabic-form="initial" 
d="M-15 58h426.998c-21.333 38.667 -43.166 76 -65.499 112s-43.166 65.667 -62.499 89c-34.667 41.333 -65.667 72.5 -93 93.5s-57.333 31.5 -90 31.5c-23.333 0 -42.333 -4 -57 -12c-10 10.667 -15 21 -15 31c0 11.333 8.16699 20.666 24.5 27.999s36.5 11 60.5 11
c44 0 84.5 -15.167 121.5 -45.5s72.833 -67.166 107.5 -110.499c18 -22.667 36 -48.167 54 -76.5s34.333 -56.333 49 -84l38 -72.5v-53h-499v58z" />
    <glyph glyph-name="uniFEA4" unicode="&#x62d;" horiz-adv-x="559" arabic-form="medial" 
d="M-15 58h434.001c-20.667 38.667 -42.334 76 -65.001 112s-43.667 65.667 -63 89c-35.333 41.333 -66.333 72.5 -93 93.5s-56.667 31.5 -90 31.5c-22.667 0 -41.667 -4 -57 -12c-10 10.667 -15 21 -15 31c0 11.333 8.16699 20.666 24.5 27.999s36.5 11 60.5 11
c44 0 84.5 -15.167 121.5 -45.5s72.833 -67.166 107.5 -110.499c18.667 -22.667 36.667 -47.667 54 -75s33.333 -54.333 48 -81s27 -50.667 37 -72h85v-58h-589v58z" />
    <glyph glyph-name="uniFEA5" unicode="&#x62e;" horiz-adv-x="613" arabic-form="isolated" 
d="M205 442c32.667 0 63.998 -8.66992 93.998 -26.0029s58.167 -40.166 84.5 -68.499s50.666 -59.5 72.999 -93.5s42.5 -68.167 60.5 -102.5s33.333 -65.5 46 -93.5v-58h-241c-143.333 0 -215 -60.667 -215 -182c0 -41.333 9.83301 -75 29.5 -101s45.5 -45.167 77.5 -57.5
s67 -18.5 105 -18.5c72 0 142.333 19.667 211 59l29 -47c-28.667 -18.667 -64.667 -34.667 -108 -48s-87.666 -20 -132.999 -20c-35.333 0 -69.5 4.33301 -102.5 13s-62.667 22.167 -89 40.5s-47.333 42.333 -63 72s-23.5 65.834 -23.5 108.501
c0 74.667 22.833 133.167 68.5 175.5s112.834 63.5 201.501 63.5h185c-36 68.667 -69.833 127.334 -101.5 176.001s-63.167 85.834 -94.5 111.501s-64.666 38.5 -99.999 38.5c-23.333 0 -42.333 -4 -57 -12c-10 10.667 -15 21 -15 31c0 11.333 7 20.666 21 27.999
s33 11 57 11zM165.998 550.997c0 14 4.66699 25.833 14 35.5s20.666 14.5 33.999 14.5s24.5 -4.83301 33.5 -14.5s13.5 -21.5 13.5 -35.5s-4.5 -25.833 -13.5 -35.5s-20.167 -14.5 -33.5 -14.5s-24.666 4.83301 -33.999 14.5s-14 21.5 -14 35.5z" />
    <glyph glyph-name="uniFEA6" unicode="&#x62e;" horiz-adv-x="650" arabic-form="final" 
d="M205 442c32.667 0 63.998 -8.66992 93.998 -26.0029s58.167 -40.166 84.5 -68.499s50.666 -59.5 72.999 -93.5s42.5 -68.167 60.5 -102.5s33.333 -65.5 46 -93.5h102v-58h-343c-143.333 0 -215 -60.667 -215 -182c0 -41.333 9.83301 -75 29.5 -101
s45.5 -45.167 77.5 -57.5s67 -18.5 105 -18.5c72 0 142.333 19.667 211 59l29 -47c-28.667 -18.667 -64.667 -34.667 -108 -48s-87.666 -20 -132.999 -20c-35.333 0 -69.5 4.33301 -102.5 13s-62.667 22.167 -89 40.5s-47.333 42.333 -63 72s-23.5 65.834 -23.5 108.501
c0 74.667 22.833 133.167 68.5 175.5s112.834 63.5 201.501 63.5h185c-36 68.667 -69.833 127.334 -101.5 176.001s-63.167 85.834 -94.5 111.501s-64.666 38.5 -99.999 38.5c-23.333 0 -42.333 -4 -57 -12c-10 10.667 -15 21 -15 31c0 11.333 7 20.666 21 27.999
s33 11 57 11zM164.998 550.997c0 14 4.66699 25.833 14 35.5s20.666 14.5 33.999 14.5s24.5 -4.83301 33.5 -14.5s13.5 -21.5 13.5 -35.5s-4.5 -25.833 -13.5 -35.5s-20.167 -14.5 -33.5 -14.5s-24.666 4.83301 -33.999 14.5s-14 21.5 -14 35.5z" />
    <glyph glyph-name="uniFEA7" unicode="&#x62e;" horiz-adv-x="534" arabic-form="initial" 
d="M-15 58h426.998c-21.333 38.667 -43.166 76 -65.499 112s-43.166 65.667 -62.499 89c-34.667 41.333 -65.667 72.5 -93 93.5s-57.333 31.5 -90 31.5c-23.333 0 -42.333 -4 -57 -12c-10 10.667 -15 21 -15 31c0 11.333 8.16699 20.666 24.5 27.999s36.5 11 60.5 11
c44 0 84.5 -15.167 121.5 -45.5s72.833 -67.166 107.5 -110.499c18 -22.667 36 -48.167 54 -76.5s34.333 -56.333 49 -84l38 -72.5v-53h-499v58zM67.998 551c0 14 4.66699 25.833 14 35.5s20.666 14.5 33.999 14.5s24.5 -4.83301 33.5 -14.5s13.5 -21.5 13.5 -35.5
s-4.5 -25.833 -13.5 -35.5s-20.167 -14.5 -33.5 -14.5s-24.666 4.83301 -33.999 14.5s-14 21.5 -14 35.5z" />
    <glyph glyph-name="uniFEA8" unicode="&#x62e;" horiz-adv-x="559" arabic-form="medial" 
d="M-15 58h434.001c-20.667 38.667 -42.334 76 -65.001 112s-43.667 65.667 -63 89c-35.333 41.333 -66.333 72.5 -93 93.5s-56.667 31.5 -90 31.5c-22.667 0 -41.667 -4 -57 -12c-10 10.667 -15 21 -15 31c0 11.333 8.16699 20.666 24.5 27.999s36.5 11 60.5 11
c44 0 84.5 -15.167 121.5 -45.5s72.833 -67.166 107.5 -110.499c18.667 -22.667 36.667 -47.667 54 -75s33.333 -54.333 48 -81s27 -50.667 37 -72h85v-58h-589v58zM75.001 551c0 14 4.66699 25.833 14 35.5s20.666 14.5 33.999 14.5s24.5 -4.83301 33.5 -14.5
s13.5 -21.5 13.5 -35.5s-4.5 -25.833 -13.5 -35.5s-20.167 -14.5 -33.5 -14.5s-24.666 4.83301 -33.999 14.5s-14 21.5 -14 35.5z" />
    <glyph glyph-name="uniFEA9" unicode="&#x62f;" horiz-adv-x="602" arabic-form="isolated" 
d="M480 58l-0.00292969 73.998c0 49.333 -6.83301 90.333 -20.5 123s-31.667 58.334 -54 77.001s-47.166 32 -74.499 40s-54.666 12 -81.999 12c-23.333 0 -45.666 -2.66699 -66.999 -8s-40.333 -12.333 -57 -21c-6.66699 6.66699 -11 12.834 -13 18.501s-3 11.167 -3 16.5
c0 15.333 13.167 27.833 39.5 37.5s58.5 14.5 96.5 14.5c32 0 65.167 -4.5 99.5 -13.5s66.5 -24.5 96.5 -46.5s54.333 -51.833 73 -89.5s28 -85.5 28 -143.5v-149h-492v58h430z" />
    <glyph glyph-name="uniFEAA" unicode="&#x62f;" horiz-adv-x="661" arabic-form="final" 
d="M480 58l-0.00292969 73.998c0 49.333 -6.83301 90.333 -20.5 123s-31.667 58.334 -54 77.001s-47.166 32 -74.499 40s-54.666 12 -81.999 12c-23.333 0 -45.666 -2.66699 -66.999 -8s-40.333 -12.333 -57 -21c-6.66699 6.66699 -11 12.834 -13 18.501s-3 11.167 -3 16.5
c0 15.333 13.167 27.833 39.5 37.5s58.5 14.5 96.5 14.5c32 0 65.167 -4.5 99.5 -13.5s66.5 -24.5 96.5 -46.5s54.333 -51.833 73 -89.5s28 -85.5 28 -143.5v-91h134v-58h-626v58h430z" />
    <glyph glyph-name="uniFEAB" unicode="&#x630;" horiz-adv-x="602" arabic-form="isolated" 
d="M480 58l-0.00292969 73.998c0 49.333 -6.83301 90.333 -20.5 123s-31.667 58.334 -54 77.001s-47.166 32 -74.499 40s-54.666 12 -81.999 12c-23.333 0 -45.666 -2.66699 -66.999 -8s-40.333 -12.333 -57 -21c-6.66699 6.66699 -11 12.834 -13 18.501s-3 11.167 -3 16.5
c0 15.333 13.167 27.833 39.5 37.5s58.5 14.5 96.5 14.5c32 0 65.167 -4.5 99.5 -13.5s66.5 -24.5 96.5 -46.5s54.333 -51.833 73 -89.5s28 -85.5 28 -143.5v-149h-492v58h430zM235.997 569.998c0 14 4.66699 25.833 14 35.5s20.666 14.5 33.999 14.5
s24.5 -4.83301 33.5 -14.5s13.5 -21.5 13.5 -35.5s-4.5 -25.833 -13.5 -35.5s-20.167 -14.5 -33.5 -14.5s-24.666 4.83301 -33.999 14.5s-14 21.5 -14 35.5z" />
    <glyph glyph-name="uniFEAC" unicode="&#x630;" horiz-adv-x="661" arabic-form="final" 
d="M480 58l-0.00292969 73.998c0 49.333 -6.83301 90.333 -20.5 123s-31.667 58.334 -54 77.001s-47.166 32 -74.499 40s-54.666 12 -81.999 12c-23.333 0 -45.666 -2.66699 -66.999 -8s-40.333 -12.333 -57 -21c-6.66699 6.66699 -11 12.834 -13 18.501s-3 11.167 -3 16.5
c0 15.333 13.167 27.833 39.5 37.5s58.5 14.5 96.5 14.5c32 0 65.167 -4.5 99.5 -13.5s66.5 -24.5 96.5 -46.5s54.333 -51.833 73 -89.5s28 -85.5 28 -143.5v-91h134v-58h-626v58h430zM235.997 569.998c0 14 4.66699 25.833 14 35.5s20.666 14.5 33.999 14.5
s24.5 -4.83301 33.5 -14.5s13.5 -21.5 13.5 -35.5s-4.5 -25.833 -13.5 -35.5s-20.167 -14.5 -33.5 -14.5s-24.666 4.83301 -33.999 14.5s-14 21.5 -14 35.5z" />
    <glyph glyph-name="uniFEAD" unicode="&#x631;" horiz-adv-x="341" arabic-form="isolated" 
d="M199 -67l0.000976562 475.001c0 10 2.66699 18.167 8 24.5s14 9.5 26 9.5c5.33301 0 10.833 -0.833008 16.5 -2.5s9.5 -3.16699 11.5 -4.5v-499c0 -42.667 -7.5 -76.167 -22.5 -100.5s-34.5 -41.333 -58.5 -51s-49 -14.5 -75 -14.5c-20.667 0 -39.5 2.16699 -56.5 6.5
s-29.833 8.16602 -38.5 11.499l17 52c7.33301 -2.66699 17 -5.66699 29 -9s26.667 -5 44 -5c14.667 0 29.667 2.33301 45 7s28.166 14.5 38.499 29.5s15.5 38.5 15.5 70.5z" />
    <glyph glyph-name="uniFEAE" unicode="&#x631;" horiz-adv-x="413" arabic-form="final" 
d="M199 -67l0.000976562 475.001c0 10 2.66699 18.167 8 24.5s14 9.5 26 9.5c5.33301 0 10.833 -0.833008 16.5 -2.5s9.5 -3.16699 11.5 -4.5v-377h167v-58h-167v-64c0 -42.667 -7.5 -76.167 -22.5 -100.5s-34.5 -41.333 -58.5 -51s-49 -14.5 -75 -14.5
c-20.667 0 -39.5 2.16699 -56.5 6.5s-29.833 8.16602 -38.5 11.499l17 52c7.33301 -2.66699 17 -5.66699 29 -9s26.667 -5 44 -5c14.667 0 29.667 2.33301 45 7s28.166 14.5 38.499 29.5s15.5 38.5 15.5 70.5z" />
    <glyph glyph-name="uniFEAF" unicode="&#x632;" horiz-adv-x="361" arabic-form="isolated" 
d="M199 -67l0.000976562 475.001c0 10 2.66699 18.167 8 24.5s14 9.5 26 9.5c5.33301 0 10.833 -0.833008 16.5 -2.5s9.5 -3.16699 11.5 -4.5v-499c0 -42.667 -7.5 -76.167 -22.5 -100.5s-34.5 -41.333 -58.5 -51s-49 -14.5 -75 -14.5c-20.667 0 -39.5 2.16699 -56.5 6.5
s-29.833 8.16602 -38.5 11.499l17 52c7.33301 -2.66699 17 -5.66699 29 -9s26.667 -5 44 -5c14.667 0 29.667 2.33301 45 7s28.166 14.5 38.499 29.5s15.5 38.5 15.5 70.5zM186.001 570.001c0 14 4.66699 25.833 14 35.5s20.666 14.5 33.999 14.5s24.5 -4.83301 33.5 -14.5
s13.5 -21.5 13.5 -35.5s-4.5 -25.833 -13.5 -35.5s-20.167 -14.5 -33.5 -14.5s-24.666 4.83301 -33.999 14.5s-14 21.5 -14 35.5z" />
    <glyph glyph-name="uniFEB0" unicode="&#x632;" horiz-adv-x="413" arabic-form="final" 
d="M199 -67l0.000976562 475.001c0 10 2.66699 18.167 8 24.5s14 9.5 26 9.5c5.33301 0 10.833 -0.833008 16.5 -2.5s9.5 -3.16699 11.5 -4.5v-377h167v-58h-167v-64c0 -42.667 -7.5 -76.167 -22.5 -100.5s-34.5 -41.333 -58.5 -51s-49 -14.5 -75 -14.5
c-20.667 0 -39.5 2.16699 -56.5 6.5s-29.833 8.16602 -38.5 11.499l17 52c7.33301 -2.66699 17 -5.66699 29 -9s26.667 -5 44 -5c14.667 0 29.667 2.33301 45 7s28.166 14.5 38.499 29.5s15.5 38.5 15.5 70.5zM186.001 570.001c0 14 4.66699 25.833 14 35.5
s20.666 14.5 33.999 14.5s24.5 -4.83301 33.5 -14.5s13.5 -21.5 13.5 -35.5s-4.5 -25.833 -13.5 -35.5s-20.167 -14.5 -33.5 -14.5s-24.666 4.83301 -33.999 14.5s-14 21.5 -14 35.5z" />
    <glyph glyph-name="uniFEB1" unicode="&#x633;" horiz-adv-x="1165" arabic-form="isolated" 
d="M648 50c32 0 55.8408 7.83301 71.5078 23.5s26.167 37 31.5 64s8 57.167 8 90.5v180c0 10 2.66699 18.167 8 24.5s14 9.5 26 9.5c5.33301 0 10.833 -0.833008 16.5 -2.5s9.5 -3.16699 11.5 -4.5v-208c0 -34 2.66699 -63.667 8 -89s16.166 -45 32.499 -59
s41.166 -21 74.499 -21h97v350c0 10 2.66699 18.167 8 24.5s14 9.5 26 9.5c5.33301 0 10.666 -0.833008 15.999 -2.5s9.33301 -3.16699 12 -4.5v-435h-159c-37.333 0 -68.333 7 -93 21s-42.334 32.333 -53.001 55c-31.333 -56 -78.333 -84 -141 -84
c-18.667 0 -37.667 3.33301 -57 10s-35.666 18.334 -48.999 35.001c-4 -84 -26.833 -149.333 -68.5 -196s-101.834 -70 -180.501 -70c-50 0 -91.5 7.83301 -124.5 23.5s-58.833 36.5 -77.5 62.5s-32 54.667 -40 86s-12 62.666 -12 93.999c0 16 1.16699 37.667 3.5 65
s7.5 53 15.5 77c3.33301 10 7.83301 17.667 13.5 23s13.5 8 23.5 8c4.66699 0 10.167 -0.666992 16.5 -2s11.833 -3.33301 16.5 -6c-8.66699 -26.667 -15.334 -53.334 -20.001 -80.001s-7 -52.667 -7 -78c0 -42 6.16699 -79.5 18.5 -112.5s32.666 -58.833 60.999 -77.5
s66.166 -28 113.499 -28c25.333 0 49.333 3.33301 72 10s42.834 19 60.501 37s31.667 44 42 78s15.5 78.333 15.5 133v324c0 10 2.66699 18.167 8 24.5s14 9.5 26 9.5c5.33301 0 10.666 -0.833008 15.999 -2.5s9.33301 -3.16699 12 -4.5v-208
c0 -36.667 2.33301 -68.167 7 -94.5s14.167 -46.666 28.5 -60.999s36.166 -21.5 65.499 -21.5z" />
    <glyph glyph-name="uniFEB2" unicode="&#x633;" horiz-adv-x="1242" arabic-form="final" 
d="M649 -8c-18.667 0 -37.6621 3.33203 -56.9951 9.99902s-35.666 18.334 -48.999 35.001c-4 -84 -26.833 -149.333 -68.5 -196s-101.834 -70 -180.501 -70c-50 0 -91.5 7.83301 -124.5 23.5s-58.833 36.5 -77.5 62.5s-32 54.667 -40 86s-12 62.666 -12 93.999
c0 16 1.16699 37.667 3.5 65s7.5 53 15.5 77c3.33301 10 7.83301 17.667 13.5 23s13.5 8 23.5 8c4.66699 0 10.167 -0.666992 16.5 -2s11.833 -3.33301 16.5 -6c-8.66699 -26.667 -15.334 -53.334 -20.001 -80.001s-7 -52.667 -7 -78c0 -42 6.16699 -79.5 18.5 -112.5
s32.666 -58.833 60.999 -77.5s66.166 -28 113.499 -28c25.333 0 49.333 3.33301 72 10s42.834 19 60.501 37s31.667 44 42 78s15.5 78.333 15.5 133v324c0 10 2.66699 18.167 8 24.5s14 9.5 26 9.5c5.33301 0 10.666 -0.833008 15.999 -2.5s9.33301 -3.16699 12 -4.5v-208
c0 -36.667 2.33301 -68.167 7 -94.5s14.167 -46.666 28.5 -60.999s36.166 -21.5 65.499 -21.5c32 0 55.833 7.83301 71.5 23.5s26.167 37 31.5 64s8 57.167 8 90.5v180c0 10 2.66699 18.167 8 24.5s14 9.5 26 9.5c5.33301 0 10.833 -0.833008 16.5 -2.5
s9.5 -3.16699 11.5 -4.5v-208c0 -34 2.16699 -64.333 6.5 -91s14.5 -47.667 30.5 -63s40.667 -23 74 -23c29.333 0 51.166 7.16699 65.499 21.5s23.833 34.666 28.5 60.999s7 57.833 7 94.5v181c0 10 2.66699 18.167 8 24.5s14 9.5 26 9.5
c5.33301 0 10.833 -0.833008 16.5 -2.5s9.5 -3.16699 11.5 -4.5v-208c0 -55.333 8.16699 -97.333 24.5 -126s48.5 -43 96.5 -43h41v-58h-41c-38.667 0 -70 7.33301 -94 22s-41.667 33.667 -53 57c-12.667 -27.333 -29.834 -48.666 -51.501 -63.999s-50.167 -23 -85.5 -23
c-37.333 0 -67.666 8.33301 -90.999 25s-40.333 36.334 -51 59.001c-31.333 -56 -78.333 -84 -141 -84z" />
    <glyph glyph-name="uniFEB3" unicode="&#x633;" horiz-adv-x="827" arabic-form="initial" 
d="M172 78c-11.333 -25.333 -28.8281 -44.667 -52.4951 -58s-54.5 -20 -92.5 -20h-42v58h42c32 0 56.667 7.33301 74 22s29.333 34.667 36 60s10 54.333 10 87v181c0 10 2.66699 18.167 8 24.5s14 9.5 26 9.5c5.33301 0 10.666 -0.833008 15.999 -2.5
s9.33301 -3.16699 12 -4.5v-208c0 -36.667 2.33301 -68.167 7 -94.5s14.167 -46.666 28.5 -60.999s36.166 -21.5 65.499 -21.5c32 0 55.833 7.83301 71.5 23.5s26.167 37 31.5 64s8 57.167 8 90.5v180c0 10 2.66699 18.167 8 24.5s14 9.5 26 9.5
c5.33301 0 10.833 -0.833008 16.5 -2.5s9.5 -3.16699 11.5 -4.5v-208c0 -34 2.5 -63.667 7.5 -89s15.833 -45 32.5 -59s41.667 -21 75 -21h97v350c0 10 2.66699 18.167 8 24.5s14 9.5 26 9.5c5.33301 0 10.666 -0.833008 15.999 -2.5s9.33301 -3.16699 12 -4.5v-435h-159
c-37.333 0 -68.333 7 -93 21s-42.334 32.333 -53.001 55c-31.333 -56 -78.333 -84 -141 -84c-12.667 0 -27.834 1.66699 -45.501 5s-35 11.166 -52 23.499s-30.833 31.5 -41.5 57.5z" />
    <glyph glyph-name="uniFEB4" unicode="&#x633;" horiz-adv-x="904" arabic-form="medial" 
d="M594 -8c-37.333 0 -67.6621 8.33105 -90.9951 24.998s-40.333 36.334 -51 59.001c-31.333 -56 -78.333 -84 -141 -84c-12.667 0 -27.834 1.66699 -45.501 5s-35 11.166 -52 23.499s-30.833 31.5 -41.5 57.5c-11.333 -25.333 -28.833 -44.666 -52.5 -57.999
s-54.5 -20 -92.5 -20h-42v58h42c32 0 56.667 7.33301 74 22s29.333 34.667 36 60s10 54.333 10 87v181c0 10 2.66699 18.167 8 24.5s14 9.5 26 9.5c5.33301 0 10.666 -0.833008 15.999 -2.5s9.33301 -3.16699 12 -4.5v-208c0 -36.667 2.33301 -68.167 7 -94.5
s14.167 -46.666 28.5 -60.999s36.166 -21.5 65.499 -21.5c32 0 55.833 7.83301 71.5 23.5s26.167 37 31.5 64s8 57.167 8 90.5v180c0 10 2.66699 18.167 8 24.5s14 9.5 26 9.5c5.33301 0 10.833 -0.833008 16.5 -2.5s9.5 -3.16699 11.5 -4.5v-208
c0 -34 2.16699 -64.333 6.5 -91s14.5 -47.667 30.5 -63s40.667 -23 74 -23c29.333 0 51.166 7.16699 65.499 21.5s23.833 34.666 28.5 60.999s7 57.833 7 94.5v181c0 10 2.66699 18.167 8 24.5s14 9.5 26 9.5c5.33301 0 10.833 -0.833008 16.5 -2.5s9.5 -3.16699 11.5 -4.5
v-208c0 -55.333 8.16699 -97.333 24.5 -126s48.5 -43 96.5 -43h41v-58h-41c-38.667 0 -70 7.33301 -94 22s-41.667 33.667 -53 57c-12.667 -27.333 -29.834 -48.666 -51.501 -63.999s-50.167 -23 -85.5 -23z" />
    <glyph glyph-name="uniFEB5" unicode="&#x634;" horiz-adv-x="1165" arabic-form="isolated" 
d="M648 50c32 0 55.8408 7.83301 71.5078 23.5s26.167 37 31.5 64s8 57.167 8 90.5v180c0 10 2.66699 18.167 8 24.5s14 9.5 26 9.5c5.33301 0 10.833 -0.833008 16.5 -2.5s9.5 -3.16699 11.5 -4.5v-208c0 -34 2.66699 -63.667 8 -89s16.166 -45 32.499 -59
s41.166 -21 74.499 -21h97v350c0 10 2.66699 18.167 8 24.5s14 9.5 26 9.5c5.33301 0 10.666 -0.833008 15.999 -2.5s9.33301 -3.16699 12 -4.5v-435h-159c-37.333 0 -68.333 7 -93 21s-42.334 32.333 -53.001 55c-31.333 -56 -78.333 -84 -141 -84
c-18.667 0 -37.667 3.33301 -57 10s-35.666 18.334 -48.999 35.001c-4 -84 -26.833 -149.333 -68.5 -196s-101.834 -70 -180.501 -70c-50 0 -91.5 7.83301 -124.5 23.5s-58.833 36.5 -77.5 62.5s-32 54.667 -40 86s-12 62.666 -12 93.999c0 16 1.16699 37.667 3.5 65
s7.5 53 15.5 77c3.33301 10 7.83301 17.667 13.5 23s13.5 8 23.5 8c4.66699 0 10.167 -0.666992 16.5 -2s11.833 -3.33301 16.5 -6c-8.66699 -26.667 -15.334 -53.334 -20.001 -80.001s-7 -52.667 -7 -78c0 -42 6.16699 -79.5 18.5 -112.5s32.666 -58.833 60.999 -77.5
s66.166 -28 113.499 -28c25.333 0 49.333 3.33301 72 10s42.834 19 60.501 37s31.667 44 42 78s15.5 78.333 15.5 133v324c0 10 2.66699 18.167 8 24.5s14 9.5 26 9.5c5.33301 0 10.666 -0.833008 15.999 -2.5s9.33301 -3.16699 12 -4.5v-208
c0 -36.667 2.33301 -68.167 7 -94.5s14.167 -46.666 28.5 -60.999s36.166 -21.5 65.499 -21.5zM732.008 700c0 14 4.66699 25.833 14 35.5s20.666 14.5 33.999 14.5s24.5 -4.83301 33.5 -14.5s13.5 -21.5 13.5 -35.5s-4.5 -25.833 -13.5 -35.5s-20.167 -14.5 -33.5 -14.5
s-24.666 4.83301 -33.999 14.5s-14 21.5 -14 35.5zM805.008 570c0 14 4.66699 25.833 14 35.5s20.666 14.5 33.999 14.5s24.5 -4.83301 33.5 -14.5s13.5 -21.5 13.5 -35.5s-4.5 -25.833 -13.5 -35.5s-20.167 -14.5 -33.5 -14.5s-24.666 4.83301 -33.999 14.5
s-14 21.5 -14 35.5zM656.008 570c0 14 4.66699 25.833 14 35.5s20.666 14.5 33.999 14.5s24.5 -4.83301 33.5 -14.5s13.5 -21.5 13.5 -35.5s-4.5 -25.833 -13.5 -35.5s-20.167 -14.5 -33.5 -14.5s-24.666 4.83301 -33.999 14.5s-14 21.5 -14 35.5z" />
    <glyph glyph-name="uniFEB6" unicode="&#x634;" horiz-adv-x="1242" arabic-form="final" 
d="M649 -8c-18.667 0 -37.6621 3.33203 -56.9951 9.99902s-35.666 18.334 -48.999 35.001c-4 -84 -26.833 -149.333 -68.5 -196s-101.834 -70 -180.501 -70c-50 0 -91.5 7.83301 -124.5 23.5s-58.833 36.5 -77.5 62.5s-32 54.667 -40 86s-12 62.666 -12 93.999
c0 16 1.16699 37.667 3.5 65s7.5 53 15.5 77c3.33301 10 7.83301 17.667 13.5 23s13.5 8 23.5 8c4.66699 0 10.167 -0.666992 16.5 -2s11.833 -3.33301 16.5 -6c-8.66699 -26.667 -15.334 -53.334 -20.001 -80.001s-7 -52.667 -7 -78c0 -42 6.16699 -79.5 18.5 -112.5
s32.666 -58.833 60.999 -77.5s66.166 -28 113.499 -28c25.333 0 49.333 3.33301 72 10s42.834 19 60.501 37s31.667 44 42 78s15.5 78.333 15.5 133v324c0 10 2.66699 18.167 8 24.5s14 9.5 26 9.5c5.33301 0 10.666 -0.833008 15.999 -2.5s9.33301 -3.16699 12 -4.5v-208
c0 -36.667 2.33301 -68.167 7 -94.5s14.167 -46.666 28.5 -60.999s36.166 -21.5 65.499 -21.5c32 0 55.833 7.83301 71.5 23.5s26.167 37 31.5 64s8 57.167 8 90.5v180c0 10 2.66699 18.167 8 24.5s14 9.5 26 9.5c5.33301 0 10.833 -0.833008 16.5 -2.5
s9.5 -3.16699 11.5 -4.5v-208c0 -34 2.16699 -64.333 6.5 -91s14.5 -47.667 30.5 -63s40.667 -23 74 -23c29.333 0 51.166 7.16699 65.499 21.5s23.833 34.666 28.5 60.999s7 57.833 7 94.5v181c0 10 2.66699 18.167 8 24.5s14 9.5 26 9.5
c5.33301 0 10.833 -0.833008 16.5 -2.5s9.5 -3.16699 11.5 -4.5v-208c0 -55.333 8.16699 -97.333 24.5 -126s48.5 -43 96.5 -43h41v-58h-41c-38.667 0 -70 7.33301 -94 22s-41.667 33.667 -53 57c-12.667 -27.333 -29.834 -48.666 -51.501 -63.999s-50.167 -23 -85.5 -23
c-37.333 0 -67.666 8.33301 -90.999 25s-40.333 36.334 -51 59.001c-31.333 -56 -78.333 -84 -141 -84zM734.005 699.999c0 14 4.66699 25.833 14 35.5s20.666 14.5 33.999 14.5s24.5 -4.83301 33.5 -14.5s13.5 -21.5 13.5 -35.5s-4.5 -25.833 -13.5 -35.5
s-20.167 -14.5 -33.5 -14.5s-24.666 4.83301 -33.999 14.5s-14 21.5 -14 35.5zM807.005 569.999c0 14 4.66699 25.833 14 35.5s20.666 14.5 33.999 14.5s24.5 -4.83301 33.5 -14.5s13.5 -21.5 13.5 -35.5s-4.5 -25.833 -13.5 -35.5s-20.167 -14.5 -33.5 -14.5
s-24.666 4.83301 -33.999 14.5s-14 21.5 -14 35.5zM658.005 569.999c0 14 4.66699 25.833 14 35.5s20.666 14.5 33.999 14.5s24.5 -4.83301 33.5 -14.5s13.5 -21.5 13.5 -35.5s-4.5 -25.833 -13.5 -35.5s-20.167 -14.5 -33.5 -14.5s-24.666 4.83301 -33.999 14.5
s-14 21.5 -14 35.5z" />
    <glyph glyph-name="uniFEB7" unicode="&#x634;" horiz-adv-x="827" arabic-form="initial" 
d="M172 78c-11.333 -25.333 -28.8281 -44.667 -52.4951 -58s-54.5 -20 -92.5 -20h-42v58h42c32 0 56.667 7.33301 74 22s29.333 34.667 36 60s10 54.333 10 87v181c0 10 2.66699 18.167 8 24.5s14 9.5 26 9.5c5.33301 0 10.666 -0.833008 15.999 -2.5
s9.33301 -3.16699 12 -4.5v-208c0 -36.667 2.33301 -68.167 7 -94.5s14.167 -46.666 28.5 -60.999s36.166 -21.5 65.499 -21.5c32 0 55.833 7.83301 71.5 23.5s26.167 37 31.5 64s8 57.167 8 90.5v180c0 10 2.66699 18.167 8 24.5s14 9.5 26 9.5
c5.33301 0 10.833 -0.833008 16.5 -2.5s9.5 -3.16699 11.5 -4.5v-208c0 -34 2.5 -63.667 7.5 -89s15.833 -45 32.5 -59s41.667 -21 75 -21h97v350c0 10 2.66699 18.167 8 24.5s14 9.5 26 9.5c5.33301 0 10.666 -0.833008 15.999 -2.5s9.33301 -3.16699 12 -4.5v-435h-159
c-37.333 0 -68.333 7 -93 21s-42.334 32.333 -53.001 55c-31.333 -56 -78.333 -84 -141 -84c-12.667 0 -27.834 1.66699 -45.501 5s-35 11.166 -52 23.499s-30.833 31.5 -41.5 57.5zM394.005 699.999c0 14 4.66699 25.833 14 35.5s20.666 14.5 33.999 14.5
s24.5 -4.83301 33.5 -14.5s13.5 -21.5 13.5 -35.5s-4.5 -25.833 -13.5 -35.5s-20.167 -14.5 -33.5 -14.5s-24.666 4.83301 -33.999 14.5s-14 21.5 -14 35.5zM467.005 569.999c0 14 4.66699 25.833 14 35.5s20.666 14.5 33.999 14.5s24.5 -4.83301 33.5 -14.5
s13.5 -21.5 13.5 -35.5s-4.5 -25.833 -13.5 -35.5s-20.167 -14.5 -33.5 -14.5s-24.666 4.83301 -33.999 14.5s-14 21.5 -14 35.5zM318.005 569.999c0 14 4.66699 25.833 14 35.5s20.666 14.5 33.999 14.5s24.5 -4.83301 33.5 -14.5s13.5 -21.5 13.5 -35.5
s-4.5 -25.833 -13.5 -35.5s-20.167 -14.5 -33.5 -14.5s-24.666 4.83301 -33.999 14.5s-14 21.5 -14 35.5z" />
    <glyph glyph-name="uniFEB8" unicode="&#x634;" horiz-adv-x="904" arabic-form="medial" 
d="M594 -8c-37.333 0 -67.6621 8.33105 -90.9951 24.998s-40.333 36.334 -51 59.001c-31.333 -56 -78.333 -84 -141 -84c-12.667 0 -27.834 1.66699 -45.501 5s-35 11.166 -52 23.499s-30.833 31.5 -41.5 57.5c-11.333 -25.333 -28.833 -44.666 -52.5 -57.999
s-54.5 -20 -92.5 -20h-42v58h42c32 0 56.667 7.33301 74 22s29.333 34.667 36 60s10 54.333 10 87v181c0 10 2.66699 18.167 8 24.5s14 9.5 26 9.5c5.33301 0 10.666 -0.833008 15.999 -2.5s9.33301 -3.16699 12 -4.5v-208c0 -36.667 2.33301 -68.167 7 -94.5
s14.167 -46.666 28.5 -60.999s36.166 -21.5 65.499 -21.5c32 0 55.833 7.83301 71.5 23.5s26.167 37 31.5 64s8 57.167 8 90.5v180c0 10 2.66699 18.167 8 24.5s14 9.5 26 9.5c5.33301 0 10.833 -0.833008 16.5 -2.5s9.5 -3.16699 11.5 -4.5v-208
c0 -34 2.16699 -64.333 6.5 -91s14.5 -47.667 30.5 -63s40.667 -23 74 -23c29.333 0 51.166 7.16699 65.499 21.5s23.833 34.666 28.5 60.999s7 57.833 7 94.5v181c0 10 2.66699 18.167 8 24.5s14 9.5 26 9.5c5.33301 0 10.833 -0.833008 16.5 -2.5s9.5 -3.16699 11.5 -4.5
v-208c0 -55.333 8.16699 -97.333 24.5 -126s48.5 -43 96.5 -43h41v-58h-41c-38.667 0 -70 7.33301 -94 22s-41.667 33.667 -53 57c-12.667 -27.333 -29.834 -48.666 -51.501 -63.999s-50.167 -23 -85.5 -23zM395.004 699.998c0 14 4.66699 25.833 14 35.5
s20.666 14.5 33.999 14.5s24.5 -4.83301 33.5 -14.5s13.5 -21.5 13.5 -35.5s-4.5 -25.833 -13.5 -35.5s-20.167 -14.5 -33.5 -14.5s-24.666 4.83301 -33.999 14.5s-14 21.5 -14 35.5zM468.004 569.998c0 14 4.66699 25.833 14 35.5s20.666 14.5 33.999 14.5
s24.5 -4.83301 33.5 -14.5s13.5 -21.5 13.5 -35.5s-4.5 -25.833 -13.5 -35.5s-20.167 -14.5 -33.5 -14.5s-24.666 4.83301 -33.999 14.5s-14 21.5 -14 35.5zM319.004 569.998c0 14 4.66699 25.833 14 35.5s20.666 14.5 33.999 14.5s24.5 -4.83301 33.5 -14.5
s13.5 -21.5 13.5 -35.5s-4.5 -25.833 -13.5 -35.5s-20.167 -14.5 -33.5 -14.5s-24.666 4.83301 -33.999 14.5s-14 21.5 -14 35.5z" />
    <glyph glyph-name="uniFEB9" unicode="&#x635;" horiz-adv-x="1118" arabic-form="isolated" 
d="M485 83l-0.000976562 325.002c0 10 2.66699 18.167 8 24.5s14 9.5 26 9.5c5.33301 0 10.833 -0.833008 16.5 -2.5s9.5 -3.16699 11.5 -4.5v-165c14.667 39.333 35.334 71.666 62.001 96.999s56.834 44.166 90.501 56.499s68.834 18.5 105.501 18.5
c27.333 0 55.666 -4.16699 84.999 -12.5s56.833 -22.666 82.5 -42.999s46.334 -48.5 62.001 -84.5s23.5 -81.667 23.5 -137v-165h-518c-18.667 -152 -100.667 -228 -246 -228c-50 0 -91.5 7.83301 -124.5 23.5s-58.833 36.5 -77.5 62.5s-32 54.667 -40 86s-12 62.333 -12 93
c0 16 1.16699 37.667 3.5 65s7.5 53 15.5 77c3.33301 10 7.83301 17.667 13.5 23s13.5 8 23.5 8c4.66699 0 10.167 -0.666992 16.5 -2s11.833 -3.33301 16.5 -6c-8.66699 -26.667 -15.334 -53.334 -20.001 -80.001s-7 -52.667 -7 -78c0 -42 6.16699 -79.333 18.5 -112
s32.666 -58.334 60.999 -77.001s66.166 -28 113.499 -28c24.667 0 48.334 3.16699 71.001 9.5s43 18.5 61 36.5s32.167 43.833 42.5 77.5s15.5 77.834 15.5 132.501zM546.999 58.002l448.999 -0.000976562v97c0 79.333 -17 137.333 -51 174s-81.667 55 -143 55
c-53.333 0 -99.166 -14.667 -137.499 -44s-67.5 -68.666 -87.5 -117.999s-30 -104 -30 -164z" />
    <glyph glyph-name="uniFEBA" unicode="&#x635;" horiz-adv-x="1176" arabic-form="final" 
d="M1191 0l-651.001 0.00195312c-18.667 -152 -100.667 -228 -246 -228c-50 0 -91.5 7.83301 -124.5 23.5s-58.833 36.5 -77.5 62.5s-32 54.667 -40 86s-12 62.333 -12 93c0 16 1.16699 37.667 3.5 65s7.5 53 15.5 77c3.33301 10 7.83301 17.667 13.5 23s13.5 8 23.5 8
c4.66699 0 10.167 -0.666992 16.5 -2s11.833 -3.33301 16.5 -6c-8.66699 -26.667 -15.334 -53.334 -20.001 -80.001s-7 -52.667 -7 -78c0 -42 6.16699 -79.333 18.5 -112s32.666 -58.334 60.999 -77.001s66.166 -28 113.499 -28c24.667 0 48.334 3.16699 71.001 9.5
s43 18.5 61 36.5s32.167 43.833 42.5 77.5s15.5 77.834 15.5 132.501v325c0 10 2.66699 18.167 8 24.5s14 9.5 26 9.5c5.33301 0 10.833 -0.833008 16.5 -2.5s9.5 -3.16699 11.5 -4.5v-165c14.667 39.333 35.334 71.666 62.001 96.999s56.834 44.166 90.501 56.499
s68.834 18.5 105.501 18.5c27.333 0 55.666 -4.16699 84.999 -12.5s56.833 -22.666 82.5 -42.999s46.334 -48.5 62.001 -84.5s23.5 -81.667 23.5 -137v-107h133v-58zM546.999 58.002l448.999 -0.000976562v97c0 79.333 -17 137.333 -51 174s-81.667 55 -143 55
c-53.333 0 -99.166 -14.667 -137.499 -44s-67.5 -68.666 -87.5 -117.999s-30 -104 -30 -164z" />
    <glyph glyph-name="uniFEBB" unicode="&#x635;" horiz-adv-x="766" arabic-form="initial" 
d="M-15 58l147.997 0.000976562v350c0 10 2.66699 18.167 8 24.5s14 9.5 26 9.5c5.33301 0 10.833 -0.833008 16.5 -2.5s9.5 -3.16699 11.5 -4.5v-165c14.667 39.333 35.334 71.666 62.001 96.999s56.834 44.166 90.501 56.499s68.834 18.5 105.501 18.5
c27.333 0 55.666 -4.16699 84.999 -12.5s56.833 -22.666 82.5 -42.999s46.334 -48.5 62.001 -84.5s23.5 -81.667 23.5 -137v-165h-721v58zM194.997 58.001l448.999 -0.000976562v97c0 79.333 -17 137.333 -51 174s-81.667 55 -143 55
c-53.333 0 -99.166 -14.667 -137.499 -44s-67.5 -68.666 -87.5 -117.999s-30 -104 -30 -164z" />
    <glyph glyph-name="uniFEBC" unicode="&#x635;" horiz-adv-x="824" arabic-form="medial" 
d="M839 0l-854.003 0.000976562v58h148v350c0 10 2.66699 18.167 8 24.5s14 9.5 26 9.5c5.33301 0 10.833 -0.833008 16.5 -2.5s9.5 -3.16699 11.5 -4.5v-165c14.667 39.333 35.334 71.666 62.001 96.999s56.834 44.166 90.501 56.499s68.834 18.5 105.501 18.5
c27.333 0 55.666 -4.16699 84.999 -12.5s56.833 -22.666 82.5 -42.999s46.334 -48.5 62.001 -84.5s23.5 -81.667 23.5 -137v-107h133v-58zM194.997 58.001l448.999 -0.000976562v97c0 79.333 -17 137.333 -51 174s-81.667 55 -143 55
c-53.333 0 -99.166 -14.667 -137.499 -44s-67.5 -68.666 -87.5 -117.999s-30 -104 -30 -164z" />
    <glyph glyph-name="uniFEBD" unicode="&#x636;" horiz-adv-x="1118" arabic-form="isolated" 
d="M485 83l-0.000976562 325.002c0 10 2.66699 18.167 8 24.5s14 9.5 26 9.5c5.33301 0 10.833 -0.833008 16.5 -2.5s9.5 -3.16699 11.5 -4.5v-165c14.667 39.333 35.334 71.666 62.001 96.999s56.834 44.166 90.501 56.499s68.834 18.5 105.501 18.5
c27.333 0 55.666 -4.16699 84.999 -12.5s56.833 -22.666 82.5 -42.999s46.334 -48.5 62.001 -84.5s23.5 -81.667 23.5 -137v-165h-518c-18.667 -152 -100.667 -228 -246 -228c-50 0 -91.5 7.83301 -124.5 23.5s-58.833 36.5 -77.5 62.5s-32 54.667 -40 86s-12 62.333 -12 93
c0 16 1.16699 37.667 3.5 65s7.5 53 15.5 77c3.33301 10 7.83301 17.667 13.5 23s13.5 8 23.5 8c4.66699 0 10.167 -0.666992 16.5 -2s11.833 -3.33301 16.5 -6c-8.66699 -26.667 -15.334 -53.334 -20.001 -80.001s-7 -52.667 -7 -78c0 -42 6.16699 -79.333 18.5 -112
s32.666 -58.334 60.999 -77.001s66.166 -28 113.499 -28c24.667 0 48.334 3.16699 71.001 9.5s43 18.5 61 36.5s32.167 43.833 42.5 77.5s15.5 77.834 15.5 132.501zM546.999 58.002l448.999 -0.000976562v97c0 79.333 -17 137.333 -51 174s-81.667 55 -143 55
c-53.333 0 -99.166 -14.667 -137.499 -44s-67.5 -68.666 -87.5 -117.999s-30 -104 -30 -164zM750.998 570.001c0 14 4.66699 25.833 14 35.5s20.666 14.5 33.999 14.5s24.5 -4.83301 33.5 -14.5s13.5 -21.5 13.5 -35.5s-4.5 -25.833 -13.5 -35.5s-20.167 -14.5 -33.5 -14.5
s-24.666 4.83301 -33.999 14.5s-14 21.5 -14 35.5z" />
    <glyph glyph-name="uniFEBE" unicode="&#x636;" horiz-adv-x="1176" arabic-form="final" 
d="M1191 0l-651.001 0.00195312c-18.667 -152 -100.667 -228 -246 -228c-50 0 -91.5 7.83301 -124.5 23.5s-58.833 36.5 -77.5 62.5s-32 54.667 -40 86s-12 62.333 -12 93c0 16 1.16699 37.667 3.5 65s7.5 53 15.5 77c3.33301 10 7.83301 17.667 13.5 23s13.5 8 23.5 8
c4.66699 0 10.167 -0.666992 16.5 -2s11.833 -3.33301 16.5 -6c-8.66699 -26.667 -15.334 -53.334 -20.001 -80.001s-7 -52.667 -7 -78c0 -42 6.16699 -79.333 18.5 -112s32.666 -58.334 60.999 -77.001s66.166 -28 113.499 -28c24.667 0 48.334 3.16699 71.001 9.5
s43 18.5 61 36.5s32.167 43.833 42.5 77.5s15.5 77.834 15.5 132.501v325c0 10 2.66699 18.167 8 24.5s14 9.5 26 9.5c5.33301 0 10.833 -0.833008 16.5 -2.5s9.5 -3.16699 11.5 -4.5v-165c14.667 39.333 35.334 71.666 62.001 96.999s56.834 44.166 90.501 56.499
s68.834 18.5 105.501 18.5c27.333 0 55.666 -4.16699 84.999 -12.5s56.833 -22.666 82.5 -42.999s46.334 -48.5 62.001 -84.5s23.5 -81.667 23.5 -137v-107h133v-58zM546.999 58.002l448.999 -0.000976562v97c0 79.333 -17 137.333 -51 174s-81.667 55 -143 55
c-53.333 0 -99.166 -14.667 -137.499 -44s-67.5 -68.666 -87.5 -117.999s-30 -104 -30 -164zM760.998 570.001c0 14 4.66699 25.833 14 35.5s20.666 14.5 33.999 14.5s24.5 -4.83301 33.5 -14.5s13.5 -21.5 13.5 -35.5s-4.5 -25.833 -13.5 -35.5s-20.167 -14.5 -33.5 -14.5
s-24.666 4.83301 -33.999 14.5s-14 21.5 -14 35.5z" />
    <glyph glyph-name="uniFEBF" unicode="&#x636;" horiz-adv-x="766" arabic-form="initial" 
d="M-15 58l147.997 0.000976562v350c0 10 2.66699 18.167 8 24.5s14 9.5 26 9.5c5.33301 0 10.833 -0.833008 16.5 -2.5s9.5 -3.16699 11.5 -4.5v-165c14.667 39.333 35.334 71.666 62.001 96.999s56.834 44.166 90.501 56.499s68.834 18.5 105.501 18.5
c27.333 0 55.666 -4.16699 84.999 -12.5s56.833 -22.666 82.5 -42.999s46.334 -48.5 62.001 -84.5s23.5 -81.667 23.5 -137v-165h-721v58zM194.997 58.001l448.999 -0.000976562v97c0 79.333 -17 137.333 -51 174s-81.667 55 -143 55
c-53.333 0 -99.166 -14.667 -137.499 -44s-67.5 -68.666 -87.5 -117.999s-30 -104 -30 -164zM405.996 570c0 14 4.66699 25.833 14 35.5s20.666 14.5 33.999 14.5s24.5 -4.83301 33.5 -14.5s13.5 -21.5 13.5 -35.5s-4.5 -25.833 -13.5 -35.5s-20.167 -14.5 -33.5 -14.5
s-24.666 4.83301 -33.999 14.5s-14 21.5 -14 35.5z" />
    <glyph glyph-name="uniFEC0" unicode="&#x636;" horiz-adv-x="824" arabic-form="medial" 
d="M839 0l-854.003 0.000976562v58h148v350c0 10 2.66699 18.167 8 24.5s14 9.5 26 9.5c5.33301 0 10.833 -0.833008 16.5 -2.5s9.5 -3.16699 11.5 -4.5v-165c14.667 39.333 35.334 71.666 62.001 96.999s56.834 44.166 90.501 56.499s68.834 18.5 105.501 18.5
c27.333 0 55.666 -4.16699 84.999 -12.5s56.833 -22.666 82.5 -42.999s46.334 -48.5 62.001 -84.5s23.5 -81.667 23.5 -137v-107h133v-58zM194.997 58.001l448.999 -0.000976562v97c0 79.333 -17 137.333 -51 174s-81.667 55 -143 55
c-53.333 0 -99.166 -14.667 -137.499 -44s-67.5 -68.666 -87.5 -117.999s-30 -104 -30 -164zM406.996 570c0 14 4.66699 25.833 14 35.5s20.666 14.5 33.999 14.5s24.5 -4.83301 33.5 -14.5s13.5 -21.5 13.5 -35.5s-4.5 -25.833 -13.5 -35.5s-20.167 -14.5 -33.5 -14.5
s-24.666 4.83301 -33.999 14.5s-14 21.5 -14 35.5z" />
    <glyph glyph-name="uniFEC1" unicode="&#x637;" horiz-adv-x="807" arabic-form="isolated" 
d="M40 58l133.999 0.000976562v695c0 10 2.66699 18.167 8 24.5s14 9.5 26 9.5c5.33301 0 10.833 -0.833008 16.5 -2.5s9.5 -3.16699 11.5 -4.5v-510c14.667 39.333 35.334 71.666 62.001 96.999s57 44.166 91 56.499s69 18.5 105 18.5
c27.333 0 55.666 -4.16699 84.999 -12.5s56.833 -22.666 82.5 -42.999s46.334 -48.5 62.001 -84.5s23.5 -81.667 23.5 -137v-165h-707v58zM235.999 58.001l449 -0.000976562v97c0 79.333 -17 137.333 -51 174s-81.667 55 -143 55c-54 0 -100 -14.667 -138 -44
s-67 -68.666 -87 -117.999s-30 -104 -30 -164z" />
    <glyph glyph-name="uniFEC2" unicode="&#x637;" horiz-adv-x="847" arabic-form="final" 
d="M862 0l-822.003 0.000976562v58h115v695c0 10 2.66699 18.167 8 24.5s14 9.5 26 9.5c5.33301 0 10.833 -0.833008 16.5 -2.5s9.5 -3.16699 11.5 -4.5v-510c14.667 39.333 35.334 71.666 62.001 96.999s56.834 44.166 90.501 56.499s68.834 18.5 105.501 18.5
c27.333 0 55.666 -4.16699 84.999 -12.5s56.833 -22.666 82.5 -42.999s46.334 -48.5 62.001 -84.5s23.5 -81.667 23.5 -137v-107h134v-58zM216.997 58.001l448.999 -0.000976562v97c0 79.333 -17 137.333 -51 174s-81.667 55 -143 55
c-53.333 0 -99.166 -14.667 -137.499 -44s-67.5 -68.666 -87.5 -117.999s-30 -104 -30 -164z" />
    <glyph glyph-name="uniFEC3" unicode="&#x637;" horiz-adv-x="785" arabic-form="initial" 
d="M-15 58l166.999 0.000976562v695c0 10 2.66699 18.167 8 24.5s14 9.5 26 9.5c5.33301 0 10.833 -0.833008 16.5 -2.5s9.5 -3.16699 11.5 -4.5v-510c14.667 39.333 35.334 71.666 62.001 96.999s57 44.166 91 56.499s69 18.5 105 18.5
c27.333 0 55.666 -4.16699 84.999 -12.5s56.833 -22.666 82.5 -42.999s46.334 -48.5 62.001 -84.5s23.5 -81.667 23.5 -137v-165h-740v58zM213.999 58.001l449 -0.000976562v97c0 79.333 -17 137.333 -51 174s-81.667 55 -143 55c-54 0 -100 -14.667 -138 -44
s-67 -68.666 -87 -117.999s-30 -104 -30 -164z" />
    <glyph glyph-name="uniFEC4" unicode="&#x637;" horiz-adv-x="844" arabic-form="medial" 
d="M859 0l-874.001 0.000976562v58h167v695c0 10 2.66699 18.167 8 24.5s14 9.5 26 9.5c5.33301 0 10.833 -0.833008 16.5 -2.5s9.5 -3.16699 11.5 -4.5v-510c14.667 39.333 35.334 71.666 62.001 96.999s57 44.166 91 56.499s69 18.5 105 18.5
c27.333 0 55.666 -4.16699 84.999 -12.5s56.833 -22.666 82.5 -42.999s46.334 -48.5 62.001 -84.5s23.5 -81.667 23.5 -137v-107h134v-58zM213.999 58.001l449 -0.000976562v97c0 79.333 -17 137.333 -51 174s-81.667 55 -143 55c-54 0 -100 -14.667 -138 -44
s-67 -68.666 -87 -117.999s-30 -104 -30 -164z" />
    <glyph glyph-name="uniFEC5" unicode="&#x638;" horiz-adv-x="807" arabic-form="isolated" 
d="M40 58l133.999 0.000976562v695c0 10 2.66699 18.167 8 24.5s14 9.5 26 9.5c5.33301 0 10.833 -0.833008 16.5 -2.5s9.5 -3.16699 11.5 -4.5v-510c14.667 39.333 35.334 71.666 62.001 96.999s57 44.166 91 56.499s69 18.5 105 18.5
c27.333 0 55.666 -4.16699 84.999 -12.5s56.833 -22.666 82.5 -42.999s46.334 -48.5 62.001 -84.5s23.5 -81.667 23.5 -137v-165h-707v58zM235.999 58.001l449 -0.000976562v97c0 79.333 -17 137.333 -51 174s-81.667 55 -143 55c-54 0 -100 -14.667 -138 -44
s-67 -68.666 -87 -117.999s-30 -104 -30 -164zM430.999 570c0 14 4.66699 25.833 14 35.5s20.666 14.5 33.999 14.5s24.5 -4.83301 33.5 -14.5s13.5 -21.5 13.5 -35.5s-4.5 -25.833 -13.5 -35.5s-20.167 -14.5 -33.5 -14.5s-24.666 4.83301 -33.999 14.5s-14 21.5 -14 35.5z
" />
    <glyph glyph-name="uniFEC6" unicode="&#x638;" horiz-adv-x="847" arabic-form="final" 
d="M862 0l-822.003 0.000976562v58h115v695c0 10 2.66699 18.167 8 24.5s14 9.5 26 9.5c5.33301 0 10.833 -0.833008 16.5 -2.5s9.5 -3.16699 11.5 -4.5v-510c14.667 39.333 35.334 71.666 62.001 96.999s56.834 44.166 90.501 56.499s68.834 18.5 105.501 18.5
c27.333 0 55.666 -4.16699 84.999 -12.5s56.833 -22.666 82.5 -42.999s46.334 -48.5 62.001 -84.5s23.5 -81.667 23.5 -137v-107h134v-58zM216.997 58.001l448.999 -0.000976562v97c0 79.333 -17 137.333 -51 174s-81.667 55 -143 55
c-53.333 0 -99.166 -14.667 -137.499 -44s-67.5 -68.666 -87.5 -117.999s-30 -104 -30 -164zM432.996 570c0 14 4.66699 25.833 14 35.5s20.666 14.5 33.999 14.5s24.5 -4.83301 33.5 -14.5s13.5 -21.5 13.5 -35.5s-4.5 -25.833 -13.5 -35.5s-20.167 -14.5 -33.5 -14.5
s-24.666 4.83301 -33.999 14.5s-14 21.5 -14 35.5z" />
    <glyph glyph-name="uniFEC7" unicode="&#x638;" horiz-adv-x="785" arabic-form="initial" 
d="M-15 58l166.999 0.000976562v695c0 10 2.66699 18.167 8 24.5s14 9.5 26 9.5c5.33301 0 10.833 -0.833008 16.5 -2.5s9.5 -3.16699 11.5 -4.5v-510c14.667 39.333 35.334 71.666 62.001 96.999s57 44.166 91 56.499s69 18.5 105 18.5
c27.333 0 55.666 -4.16699 84.999 -12.5s56.833 -22.666 82.5 -42.999s46.334 -48.5 62.001 -84.5s23.5 -81.667 23.5 -137v-165h-740v58zM213.999 58.001l449 -0.000976562v97c0 79.333 -17 137.333 -51 174s-81.667 55 -143 55c-54 0 -100 -14.667 -138 -44
s-67 -68.666 -87 -117.999s-30 -104 -30 -164zM428.999 570c0 14 4.66699 25.833 14 35.5s20.666 14.5 33.999 14.5s24.5 -4.83301 33.5 -14.5s13.5 -21.5 13.5 -35.5s-4.5 -25.833 -13.5 -35.5s-20.167 -14.5 -33.5 -14.5s-24.666 4.83301 -33.999 14.5s-14 21.5 -14 35.5z
" />
    <glyph glyph-name="uniFEC8" unicode="&#x638;" horiz-adv-x="844" arabic-form="medial" 
d="M859 0l-874.001 0.000976562v58h167v695c0 10 2.66699 18.167 8 24.5s14 9.5 26 9.5c5.33301 0 10.833 -0.833008 16.5 -2.5s9.5 -3.16699 11.5 -4.5v-510c14.667 39.333 35.334 71.666 62.001 96.999s57 44.166 91 56.499s69 18.5 105 18.5
c27.333 0 55.666 -4.16699 84.999 -12.5s56.833 -22.666 82.5 -42.999s46.334 -48.5 62.001 -84.5s23.5 -81.667 23.5 -137v-107h134v-58zM213.999 58.001l449 -0.000976562v97c0 79.333 -17 137.333 -51 174s-81.667 55 -143 55c-54 0 -100 -14.667 -138 -44
s-67 -68.666 -87 -117.999s-30 -104 -30 -164zM429.999 570c0 14 4.66699 25.833 14 35.5s20.666 14.5 33.999 14.5s24.5 -4.83301 33.5 -14.5s13.5 -21.5 13.5 -35.5s-4.5 -25.833 -13.5 -35.5s-20.167 -14.5 -33.5 -14.5s-24.666 4.83301 -33.999 14.5s-14 21.5 -14 35.5z
" />
    <glyph glyph-name="uniFEC9" unicode="&#x639;" horiz-adv-x="558" arabic-form="isolated" 
d="M437 159c11.333 0 19.666 -3.16699 24.999 -9.5s8 -14.5 8 -24.5c0 -2.66699 -0.166992 -5.16699 -0.5 -7.5s-0.833008 -4.83301 -1.5 -7.5c-67.333 -5.33301 -123.666 -17 -168.999 -35s-81.333 -40 -108 -66s-45.834 -54 -57.501 -84s-17.5 -59.333 -17.5 -88
c0 -39.333 9 -73.666 27 -102.999s43.333 -52 76 -68s70.334 -24 113.001 -24c40 0 76.167 5.5 108.5 16.5s59.833 22.5 82.5 34.5l25 -48c-23.333 -13.333 -54.5 -26.333 -93.5 -39s-81.833 -19 -128.5 -19c-57.333 0 -106.666 10.833 -147.999 32.5s-73 51.167 -95 88.5
s-33 79.333 -33 126c0 61.333 14.5 112.666 43.5 153.999s64.833 75.333 107.5 102c-32.667 22.667 -56.834 49.5 -72.501 80.5s-23.5 62.167 -23.5 93.5c0 30.667 7.33301 59.667 22 87s36.334 49.333 65.001 66s64 25 106 25c20.667 0 43.167 -2.5 67.5 -7.5
s45.166 -12.667 62.499 -23s26 -23.5 26 -39.5c0 -13.333 -7 -26 -21 -38c-20 16.667 -41.667 29.167 -65 37.5s-46 12.5 -68 12.5c-28 0 -51.667 -6 -71 -18s-33.833 -27.667 -43.5 -47s-14.5 -40 -14.5 -62c0 -26.667 7 -52.5 21 -77.5s36 -45.167 66 -60.5
c22.667 8.66699 46 16 70 22s45.833 10.5 65.5 13.5s34.167 4.5 43.5 4.5z" />
    <glyph glyph-name="uniFECA" unicode="&#x639;" horiz-adv-x="603" arabic-form="final" 
d="M86 -221c0 47.333 10.499 89.501 31.499 126.501s48.5 71.833 82.5 104.5l19 19c-26.667 24 -50 50.833 -70 80.5s-36.5 59.5 -49.5 89.5s-22.833 58.333 -29.5 85s-10 49 -10 67c0 19.333 5.5 33.333 16.5 42s27.5 16.667 49.5 24s44.333 13.333 67 18s50.667 7 84 7
c34 0 62.333 -2.33301 85 -7s44.667 -10.667 66 -18c22.667 -7.33301 39.5 -15.333 50.5 -24s16.5 -22.667 16.5 -42c0 -26 -5.83301 -56.333 -17.5 -91s-27.834 -69.834 -48.501 -105.501s-44.334 -67.834 -71.001 -96.501h260v-58h-348
c-37.333 -34 -66.333 -67.167 -87 -99.5s-31 -71.833 -31 -118.5c0 -49.333 16.333 -85 49 -107s77 -33 133 -33c49.333 0 89.833 6.33301 121.5 19s58.834 25 81.501 37l24 -48c-23.333 -13.333 -54.166 -27.166 -92.499 -41.499s-84.166 -21.5 -137.499 -21.5
c-79.333 0 -140 17 -182 51s-63 81 -63 141zM118.999 352.001c6 -34 15.834 -68.999 29.501 -104.999s31 -70.333 52 -103s46.5 -61.334 76.5 -86.001c42.667 37.333 76.667 80.333 102 129s44.333 103.667 57 165c-22.667 9.33301 -48 17 -76 23s-55.667 9 -83 9
s-54.833 -3 -82.5 -9s-52.834 -13.667 -75.501 -23z" />
    <glyph glyph-name="uniFECB" unicode="&#x639;" horiz-adv-x="568" arabic-form="initial" 
d="M315 442c42 0 74.499 -5.33496 97.499 -16.002s37.167 -18.334 42.5 -23.001c4.66699 -3.33301 8.5 -7.66602 11.5 -12.999s4.5 -11.333 4.5 -18c0 -5.33301 -1.83301 -11.666 -5.5 -18.999s-8.83398 -13.666 -15.501 -18.999c-10.667 10 -26.667 20.833 -48 32.5
s-49.666 17.5 -84.999 17.5c-32.667 0 -59.5 -6.83301 -80.5 -20.5s-36.667 -31.5 -47 -53.5s-15.5 -46 -15.5 -72c0 -30 6.33301 -58.833 19 -86.5s31.334 -50.167 56.001 -67.5s54.667 -26 90 -26h169v-58h-523v58h215c-30.667 22.667 -53.667 49.5 -69 80.5
s-23 63.833 -23 98.5c0 36.667 7.83301 70.5 23.5 101.5s39 56 70 75s68.833 28.5 113.5 28.5z" />
    <glyph glyph-name="uniFECC" unicode="&#x639;" arabic-form="medial" 
d="M544 351c0 -16 -2.83496 -36 -8.50195 -60s-14.167 -49.833 -25.5 -77.5s-25.166 -55 -41.499 -82s-35.166 -51.5 -56.499 -73.5h255v-58h-682v58h255c-21.333 22 -40.333 46.5 -57 73.5s-30.5 54.333 -41.5 82s-19.333 53.5 -25 77.5s-8.5 44 -8.5 60
c0 19.333 5.5 33.333 16.5 42s27.833 16.667 50.5 24c22 7.33301 44.333 13.333 67 18s50.667 7 84 7s61.333 -2.33301 84 -7s45 -10.667 67 -18c22.667 -7.33301 39.5 -15.333 50.5 -24s16.5 -22.667 16.5 -42zM484.998 352c-23.333 9.33301 -49 17 -77 23s-55.333 9 -82 9
s-54 -3 -82 -9s-53.667 -13.667 -77 -23c6 -36 15.5 -72 28.5 -108s30 -70.167 51 -102.5s47.5 -60.5 79.5 -84.5c30.667 22 56.5 48.833 77.5 80.5s38 66 51 103s23.167 74.167 30.5 111.5z" />
    <glyph glyph-name="uniFECD" unicode="&#x63a;" horiz-adv-x="558" arabic-form="isolated" 
d="M437 159c11.333 0 19.666 -3.16699 24.999 -9.5s8 -14.5 8 -24.5c0 -2.66699 -0.166992 -5.16699 -0.5 -7.5s-0.833008 -4.83301 -1.5 -7.5c-67.333 -5.33301 -123.666 -17 -168.999 -35s-81.333 -40 -108 -66s-45.834 -54 -57.501 -84s-17.5 -59.333 -17.5 -88
c0 -39.333 9 -73.666 27 -102.999s43.333 -52 76 -68s70.334 -24 113.001 -24c40 0 76.167 5.5 108.5 16.5s59.833 22.5 82.5 34.5l25 -48c-23.333 -13.333 -54.5 -26.333 -93.5 -39s-81.833 -19 -128.5 -19c-57.333 0 -106.666 10.833 -147.999 32.5s-73 51.167 -95 88.5
s-33 79.333 -33 126c0 61.333 14.5 112.666 43.5 153.999s64.833 75.333 107.5 102c-32.667 22.667 -56.834 49.5 -72.501 80.5s-23.5 62.167 -23.5 93.5c0 30.667 7.33301 59.667 22 87s36.334 49.333 65.001 66s64 25 106 25c20.667 0 43.167 -2.5 67.5 -7.5
s45.166 -12.667 62.499 -23s26 -23.5 26 -39.5c0 -13.333 -7 -26 -21 -38c-20 16.667 -41.667 29.167 -65 37.5s-46 12.5 -68 12.5c-28 0 -51.667 -6 -71 -18s-33.833 -27.667 -43.5 -47s-14.5 -40 -14.5 -62c0 -26.667 7 -52.5 21 -77.5s36 -45.167 66 -60.5
c22.667 8.66699 46 16 70 22s45.833 10.5 65.5 13.5s34.167 4.5 43.5 4.5zM246 570c0 14 4.66699 25.833 14 35.5s20.666 14.5 33.999 14.5s24.5 -4.83301 33.5 -14.5s13.5 -21.5 13.5 -35.5s-4.5 -25.833 -13.5 -35.5s-20.167 -14.5 -33.5 -14.5
s-24.666 4.83301 -33.999 14.5s-14 21.5 -14 35.5z" />
    <glyph glyph-name="uniFECE" unicode="&#x63a;" horiz-adv-x="603" arabic-form="final" 
d="M86 -221c0 47.333 10.499 89.501 31.499 126.501s48.5 71.833 82.5 104.5l19 19c-26.667 24 -50 50.833 -70 80.5s-36.5 59.5 -49.5 89.5s-22.833 58.333 -29.5 85s-10 49 -10 67c0 19.333 5.5 33.333 16.5 42s27.5 16.667 49.5 24s44.333 13.333 67 18s50.667 7 84 7
c34 0 62.333 -2.33301 85 -7s44.667 -10.667 66 -18c22.667 -7.33301 39.5 -15.333 50.5 -24s16.5 -22.667 16.5 -42c0 -26 -5.83301 -56.333 -17.5 -91s-27.834 -69.834 -48.501 -105.501s-44.334 -67.834 -71.001 -96.501h260v-58h-348
c-37.333 -34 -66.333 -67.167 -87 -99.5s-31 -71.833 -31 -118.5c0 -49.333 16.333 -85 49 -107s77 -33 133 -33c49.333 0 89.833 6.33301 121.5 19s58.834 25 81.501 37l24 -48c-23.333 -13.333 -54.166 -27.166 -92.499 -41.499s-84.166 -21.5 -137.499 -21.5
c-79.333 0 -140 17 -182 51s-63 81 -63 141zM118.999 352.001c6 -34 15.834 -68.999 29.501 -104.999s31 -70.333 52 -103s46.5 -61.334 76.5 -86.001c42.667 37.333 76.667 80.333 102 129s44.333 103.667 57 165c-22.667 9.33301 -48 17 -76 23s-55.667 9 -83 9
s-54.833 -3 -82.5 -9s-52.834 -13.667 -75.501 -23zM234 570.002c0 14 4.66699 25.833 14 35.5s20.666 14.5 33.999 14.5s24.5 -4.83301 33.5 -14.5s13.5 -21.5 13.5 -35.5s-4.5 -25.833 -13.5 -35.5s-20.167 -14.5 -33.5 -14.5s-24.666 4.83301 -33.999 14.5
s-14 21.5 -14 35.5z" />
    <glyph glyph-name="uniFECF" unicode="&#x63a;" horiz-adv-x="568" arabic-form="initial" 
d="M315 442c42 0 74.499 -5.33496 97.499 -16.002s37.167 -18.334 42.5 -23.001c4.66699 -3.33301 8.5 -7.66602 11.5 -12.999s4.5 -11.333 4.5 -18c0 -5.33301 -1.83301 -11.666 -5.5 -18.999s-8.83398 -13.666 -15.501 -18.999c-10.667 10 -26.667 20.833 -48 32.5
s-49.666 17.5 -84.999 17.5c-32.667 0 -59.5 -6.83301 -80.5 -20.5s-36.667 -31.5 -47 -53.5s-15.5 -46 -15.5 -72c0 -30 6.33301 -58.833 19 -86.5s31.334 -50.167 56.001 -67.5s54.667 -26 90 -26h169v-58h-523v58h215c-30.667 22.667 -53.667 49.5 -69 80.5
s-23 63.833 -23 98.5c0 36.667 7.83301 70.5 23.5 101.5s39 56 70 75s68.833 28.5 113.5 28.5zM258.999 569.998c0 14 4.66699 25.833 14 35.5s20.666 14.5 33.999 14.5s24.5 -4.83301 33.5 -14.5s13.5 -21.5 13.5 -35.5s-4.5 -25.833 -13.5 -35.5
s-20.167 -14.5 -33.5 -14.5s-24.666 4.83301 -33.999 14.5s-14 21.5 -14 35.5z" />
    <glyph glyph-name="uniFED0" unicode="&#x63a;" arabic-form="medial" 
d="M544 351c0 -16 -2.83496 -36 -8.50195 -60s-14.167 -49.833 -25.5 -77.5s-25.166 -55 -41.499 -82s-35.166 -51.5 -56.499 -73.5h255v-58h-682v58h255c-21.333 22 -40.333 46.5 -57 73.5s-30.5 54.333 -41.5 82s-19.333 53.5 -25 77.5s-8.5 44 -8.5 60
c0 19.333 5.5 33.333 16.5 42s27.833 16.667 50.5 24c22 7.33301 44.333 13.333 67 18s50.667 7 84 7s61.333 -2.33301 84 -7s45 -10.667 67 -18c22.667 -7.33301 39.5 -15.333 50.5 -24s16.5 -22.667 16.5 -42zM484.998 352c-23.333 9.33301 -49 17 -77 23s-55.333 9 -82 9
s-54 -3 -82 -9s-53.667 -13.667 -77 -23c6 -36 15.5 -72 28.5 -108s30 -70.167 51 -102.5s47.5 -60.5 79.5 -84.5c30.667 22 56.5 48.833 77.5 80.5s38 66 51 103s23.167 74.167 30.5 111.5zM278.998 570c0 14 4.66699 25.833 14 35.5s20.666 14.5 33.999 14.5
s24.5 -4.83301 33.5 -14.5s13.5 -21.5 13.5 -35.5s-4.5 -25.833 -13.5 -35.5s-20.167 -14.5 -33.5 -14.5s-24.666 4.83301 -33.999 14.5s-14 21.5 -14 35.5z" />
    <glyph glyph-name="uniFED1" unicode="&#x641;" horiz-adv-x="948" arabic-form="isolated" 
d="M888 216l-0.00195312 -215.998h-552c-59.333 0 -108.166 8 -146.499 24s-68.5 36.833 -90.5 62.5s-37.333 53.167 -46 82.5s-13 57.333 -13 84c0 38.667 4.16699 65 12.5 79s18.5 21 30.5 21c11.333 0 22.333 -2.66699 33 -8c-5.33301 -16.667 -9 -32.5 -11 -47.5
s-3 -29.5 -3 -43.5c0 -59.333 19.333 -106.833 58 -142.5s102.667 -53.5 192 -53.5h182c-21.333 18.667 -38 41.334 -50 68.001s-18 56.667 -18 90c0 49.333 9.33301 90.666 28 123.999s44 58.666 76 75.999s68 26 108 26c41.333 0 77.833 -9.16699 109.5 -27.5
s56.334 -44.333 74.001 -78s26.5 -73.834 26.5 -120.501zM825.998 58.002l-0.00195312 148c0 59.333 -14 103.833 -42 133.5s-63.333 44.5 -106 44.5s-77.667 -13 -105 -39s-41 -69 -41 -129c0 -29.333 5.83301 -55.833 17.5 -79.5s28.334 -42.667 50.001 -57
s47.834 -21.5 78.501 -21.5h148zM633.996 570.002c0 14 4.66699 25.833 14 35.5s20.666 14.5 33.999 14.5s24.5 -4.83301 33.5 -14.5s13.5 -21.5 13.5 -35.5s-4.5 -25.833 -13.5 -35.5s-20.167 -14.5 -33.5 -14.5s-24.666 4.83301 -33.999 14.5s-14 21.5 -14 35.5z" />
    <glyph glyph-name="uniFED2" unicode="&#x641;" horiz-adv-x="1006" arabic-form="final" 
d="M1021 58l-0.00195312 -57.998h-685c-59.333 0 -108.166 8 -146.499 24s-68.5 36.833 -90.5 62.5s-37.333 53.167 -46 82.5s-13 57.333 -13 84c0 38.667 4.16699 65 12.5 79s18.5 21 30.5 21c11.333 0 22.333 -2.66699 33 -8c-5.33301 -16.667 -9 -32.5 -11 -47.5
s-3 -29.5 -3 -43.5c0 -59.333 19.333 -106.833 58 -142.5s102.667 -53.5 192 -53.5h182c-21.333 18.667 -38 41.334 -50 68.001s-18 56.667 -18 90c0 49.333 9.33301 90.666 28 123.999s44 58.666 76 75.999s68 26 108 26c41.333 0 77.833 -9.16699 109.5 -27.5
s56.334 -44.333 74.001 -78s26.5 -73.834 26.5 -120.501v-158h133zM825.998 58.002l-0.00195312 148c0 59.333 -14 103.833 -42 133.5s-63.333 44.5 -106 44.5s-77.667 -13 -105 -39s-41 -69 -41 -129c0 -29.333 5.83301 -55.833 17.5 -79.5s28.334 -42.667 50.001 -57
s47.834 -21.5 78.501 -21.5h148zM632.996 570.002c0 14 4.66699 25.833 14 35.5s20.666 14.5 33.999 14.5s24.5 -4.83301 33.5 -14.5s13.5 -21.5 13.5 -35.5s-4.5 -25.833 -13.5 -35.5s-20.167 -14.5 -33.5 -14.5s-24.666 4.83301 -33.999 14.5s-14 21.5 -14 35.5z" />
    <glyph glyph-name="uniFED3" unicode="&#x641;" horiz-adv-x="589" arabic-form="initial" 
d="M529 216v-215.998h-544v58h190c-21.333 18.667 -38 41.334 -50 68.001s-18 56.667 -18 90c0 49.333 9.33301 90.666 28 123.999s44 58.666 76 75.999s68 26 108 26c42 0 78.667 -9.16699 110 -27.5s55.833 -44.333 73.5 -78s26.5 -73.834 26.5 -120.501zM467 58.002
l-0.00195312 148c0 59.333 -13.833 103.833 -41.5 133.5s-63.167 44.5 -106.5 44.5s-78.5 -13 -105.5 -39s-40.5 -69 -40.5 -129c0 -29.333 5.83301 -55.833 17.5 -79.5s28.334 -42.667 50.001 -57s47.834 -21.5 78.501 -21.5h148zM273.998 570.002
c0 14 4.66699 25.833 14 35.5s20.666 14.5 33.999 14.5s24.5 -4.83301 33.5 -14.5s13.5 -21.5 13.5 -35.5s-4.5 -25.833 -13.5 -35.5s-20.167 -14.5 -33.5 -14.5s-24.666 4.83301 -33.999 14.5s-14 21.5 -14 35.5z" />
    <glyph glyph-name="uniFED4" unicode="&#x641;" horiz-adv-x="635" arabic-form="medial" 
d="M-15 0l0.000976562 58.002h189c-22.667 21.333 -39.5 45.666 -50.5 72.999s-16.5 56.333 -16.5 87c0 38 8.16699 74 24.5 108s40.166 61.833 71.499 83.5s69.333 32.5 114 32.5c46.667 0 85.667 -9.83301 117 -29.5s54.833 -46 70.5 -79s23.5 -69.167 23.5 -108.5
c0 -31.333 -5.66699 -61.333 -17 -90s-28.333 -54.334 -51 -77.001h190v-58h-665zM463.001 221.002c0 56 -13.333 97.167 -40 123.5s-62 39.5 -106 39.5c-32 0 -58.667 -7.5 -80 -22.5s-37.333 -35 -48 -60s-16 -52.5 -16 -82.5c0 -28 5.33301 -54.5 16 -79.5
s26.5 -45.167 47.5 -60.5s47.833 -23 80.5 -23c44 0 79.333 14.5 106 43.5s40 69.5 40 121.5zM268.001 570.002c0 14 4.66699 25.833 14 35.5s20.666 14.5 33.999 14.5s24.5 -4.83301 33.5 -14.5s13.5 -21.5 13.5 -35.5s-4.5 -25.833 -13.5 -35.5s-20.167 -14.5 -33.5 -14.5
s-24.666 4.83301 -33.999 14.5s-14 21.5 -14 35.5z" />
    <glyph glyph-name="uniFED5" unicode="&#x642;" horiz-adv-x="795" arabic-form="isolated" 
d="M725 -230l-427 0.000976562c-50.667 0 -92.834 7.83301 -126.501 23.5s-60 36.5 -79 62.5s-32.5 54.833 -40.5 86.5s-12 63.167 -12 94.5c0 16 1.16699 37.667 3.5 65s7.5 53 15.5 77c3.33301 10 7.83301 17.667 13.5 23s13.5 8 23.5 8
c4.66699 0 10.167 -0.666992 16.5 -2s11.833 -3.33301 16.5 -6c-8.66699 -26.667 -15 -53.334 -19 -80.001s-6 -52.667 -6 -78c0 -42 6.16699 -79.167 18.5 -111.5s32.333 -57.833 60 -76.5s63.834 -28 108.501 -28h372v172h-134c-44.667 -0 -84 8.33301 -118 25
s-60.5 40.667 -79.5 72s-28.5 69.333 -28.5 114c0 48.667 9.33301 90.334 28 125.001s44 61 76 79s68 27 108 27c42 0 78.667 -9.16699 110 -27.5s55.833 -44.333 73.5 -78s26.5 -73.834 26.5 -120.501v-446zM663 58.001v147.999c0 59.333 -13.833 103.833 -41.5 133.5
s-63.167 44.5 -106.5 44.5s-78.5 -13.833 -105.5 -41.5s-40.5 -71.5 -40.5 -131.5c0 -43.333 12.833 -79.666 38.5 -108.999s61.5 -44 107.5 -44h148zM402 570c0 14 4.66699 25.833 14 35.5s20.666 14.5 33.999 14.5s24.5 -4.83301 33.5 -14.5s13.5 -21.5 13.5 -35.5
s-4.5 -25.833 -13.5 -35.5s-20.167 -14.5 -33.5 -14.5s-24.666 4.83301 -33.999 14.5s-14 21.5 -14 35.5zM551 570c0 14 4.66699 25.833 14 35.5s20.666 14.5 33.999 14.5s24.5 -4.83301 33.5 -14.5s13.5 -21.5 13.5 -35.5s-4.5 -25.833 -13.5 -35.5
s-20.167 -14.5 -33.5 -14.5s-24.666 4.83301 -33.999 14.5s-14 21.5 -14 35.5z" />
    <glyph glyph-name="uniFED6" unicode="&#x642;" horiz-adv-x="843" arabic-form="final" 
d="M725 -230l-427 0.000976562c-50.667 0 -92.834 7.83301 -126.501 23.5s-60 36.5 -79 62.5s-32.5 54.833 -40.5 86.5s-12 63.167 -12 94.5c0 16 1.16699 37.667 3.5 65s7.5 53 15.5 77c3.33301 10 7.83301 17.667 13.5 23s13.5 8 23.5 8
c4.66699 0 10.167 -0.666992 16.5 -2s11.833 -3.33301 16.5 -6c-8.66699 -26.667 -15 -53.334 -19 -80.001s-6 -52.667 -6 -78c0 -42 6.16699 -79.167 18.5 -111.5s32.333 -57.833 60 -76.5s63.834 -28 108.501 -28h372v172h-134c-44.667 -0 -84 8.33301 -118 25
s-60.5 40.667 -79.5 72s-28.5 69.333 -28.5 114c0 48.667 9.33301 90.334 28 125.001s44 61 76 79s68 27 108 27c42 0 78.667 -9.16699 110 -27.5s55.833 -44.333 73.5 -78s26.5 -73.834 26.5 -120.501v-158h133v-58h-133v-230zM663 58.001v147.999
c0 59.333 -13.833 103.833 -41.5 133.5s-63.167 44.5 -106.5 44.5s-78.5 -13.833 -105.5 -41.5s-40.5 -71.5 -40.5 -131.5c0 -43.333 12.833 -79.666 38.5 -108.999s61.5 -44 107.5 -44h148zM402 570c0 14 4.66699 25.833 14 35.5s20.666 14.5 33.999 14.5
s24.5 -4.83301 33.5 -14.5s13.5 -21.5 13.5 -35.5s-4.5 -25.833 -13.5 -35.5s-20.167 -14.5 -33.5 -14.5s-24.666 4.83301 -33.999 14.5s-14 21.5 -14 35.5zM551 570c0 14 4.66699 25.833 14 35.5s20.666 14.5 33.999 14.5s24.5 -4.83301 33.5 -14.5s13.5 -21.5 13.5 -35.5
s-4.5 -25.833 -13.5 -35.5s-20.167 -14.5 -33.5 -14.5s-24.666 4.83301 -33.999 14.5s-14 21.5 -14 35.5z" />
    <glyph glyph-name="uniFED7" unicode="&#x642;" horiz-adv-x="589" arabic-form="initial" 
d="M529 216v-215.998h-544v58h190c-21.333 18.667 -38 41.334 -50 68.001s-18 56.667 -18 90c0 49.333 9.33301 90.666 28 123.999s44 58.666 76 75.999s68 26 108 26c42 0 78.667 -9.16699 110 -27.5s55.833 -44.333 73.5 -78s26.5 -73.834 26.5 -120.501zM467 58.002
l-0.00195312 148c0 59.333 -13.833 103.833 -41.5 133.5s-63.167 44.5 -106.5 44.5s-78.5 -13 -105.5 -39s-40.5 -69 -40.5 -129c0 -29.333 5.83301 -55.833 17.5 -79.5s28.334 -42.667 50.001 -57s47.834 -21.5 78.501 -21.5h148zM200.998 570.002
c0 14 4.66699 25.833 14 35.5s20.666 14.5 33.999 14.5s24.5 -4.83301 33.5 -14.5s13.5 -21.5 13.5 -35.5s-4.5 -25.833 -13.5 -35.5s-20.167 -14.5 -33.5 -14.5s-24.666 4.83301 -33.999 14.5s-14 21.5 -14 35.5zM349.998 570.002c0 14 4.66699 25.833 14 35.5
s20.666 14.5 33.999 14.5s24.5 -4.83301 33.5 -14.5s13.5 -21.5 13.5 -35.5s-4.5 -25.833 -13.5 -35.5s-20.167 -14.5 -33.5 -14.5s-24.666 4.83301 -33.999 14.5s-14 21.5 -14 35.5z" />
    <glyph glyph-name="uniFED8" unicode="&#x642;" horiz-adv-x="635" arabic-form="medial" 
d="M-15 0l0.000976562 58.002h189c-22.667 21.333 -39.5 45.666 -50.5 72.999s-16.5 56.333 -16.5 87c0 38 8.16699 74 24.5 108s40.166 61.833 71.499 83.5s69.333 32.5 114 32.5c46.667 0 85.667 -9.83301 117 -29.5s54.833 -46 70.5 -79s23.5 -69.167 23.5 -108.5
c0 -31.333 -5.66699 -61.333 -17 -90s-28.333 -54.334 -51 -77.001h190v-58h-665zM463.001 221.002c0 56 -13.333 97.167 -40 123.5s-62 39.5 -106 39.5c-32 0 -58.667 -7.5 -80 -22.5s-37.333 -35 -48 -60s-16 -52.5 -16 -82.5c0 -28 5.33301 -54.5 16 -79.5
s26.5 -45.167 47.5 -60.5s47.833 -23 80.5 -23c44 0 79.333 14.5 106 43.5s40 69.5 40 121.5zM198.001 570.002c0 14 4.66699 25.833 14 35.5s20.666 14.5 33.999 14.5s24.5 -4.83301 33.5 -14.5s13.5 -21.5 13.5 -35.5s-4.5 -25.833 -13.5 -35.5s-20.167 -14.5 -33.5 -14.5
s-24.666 4.83301 -33.999 14.5s-14 21.5 -14 35.5zM347.001 570.002c0 14 4.66699 25.833 14 35.5s20.666 14.5 33.999 14.5s24.5 -4.83301 33.5 -14.5s13.5 -21.5 13.5 -35.5s-4.5 -25.833 -13.5 -35.5s-20.167 -14.5 -33.5 -14.5s-24.666 4.83301 -33.999 14.5
s-14 21.5 -14 35.5z" />
    <glyph glyph-name="uniFED9" unicode="&#x643;" horiz-adv-x="800" arabic-form="isolated" 
d="M116 346c-5.33301 -16.667 -9.00098 -32.5 -11.001 -47.5s-3 -29.5 -3 -43.5c0 -59.333 19.333 -106.833 58 -142.5s102.667 -53.5 192 -53.5h306v695c0 10 2.83301 18.167 8.5 24.5s14.167 9.5 25.5 9.5c6 0 11.5 -0.833008 16.5 -2.5s8.83301 -3.16699 11.5 -4.5v-780
h-384c-59.333 0 -108.166 8 -146.499 24s-68.5 36.833 -90.5 62.5s-37.333 53.167 -46 82.5s-13 57.333 -13 84c0 38.667 4.16699 65 12.5 79s18.5 21 30.5 21c11.333 0 22.333 -2.66699 33 -8zM303.999 373l0.000976562 41.999h49c-8 7.33301 -13.833 15.833 -17.5 25.5
s-5.5 18.834 -5.5 27.501c0 18 4.66699 32.667 14 44s20.833 19.5 34.5 24.5s27.5 7.5 41.5 7.5c14.667 0 27.667 -2.83301 39 -8.5s17 -13.167 17 -22.5c0 -8 -4.33301 -16.667 -13 -26c-11.333 10 -25.333 15 -42 15c-11.333 0 -21.333 -3.16699 -30 -9.5
s-13 -16.5 -13 -30.5c0 -11.333 4.16699 -22 12.5 -32s21.166 -15 38.499 -15h49v-42h-174z" />
    <glyph glyph-name="uniFEDA" unicode="&#x643;" horiz-adv-x="852" arabic-form="final" 
d="M867 0h-531.001c-59.333 0 -108.166 8 -146.499 24s-68.5 36.833 -90.5 62.5s-37.333 53.167 -46 82.5s-13 57.333 -13 84c0 38.667 4.16699 65 12.5 79s18.5 21 30.5 21c11.333 0 22.333 -2.66699 33 -8c-5.33301 -16.667 -9 -32.5 -11 -47.5s-3 -29.5 -3 -43.5
c0 -59.333 19.333 -106.833 58 -142.5s102.667 -53.5 192 -53.5h306v695c0 10 2.83301 18.167 8.5 24.5s14.167 9.5 25.5 9.5c6 0 11.5 -0.833008 16.5 -2.5s8.83301 -3.16699 11.5 -4.5v-722h147v-58zM303.999 373l0.000976562 41.999h49
c-8 7.33301 -13.833 15.833 -17.5 25.5s-5.5 18.834 -5.5 27.501c0 18 4.66699 32.667 14 44s20.833 19.5 34.5 24.5s27.5 7.5 41.5 7.5c14.667 0 27.667 -2.83301 39 -8.5s17 -13.167 17 -22.5c0 -8 -4.33301 -16.667 -13 -26c-11.333 10 -25.333 15 -42 15
c-11.333 0 -21.333 -3.16699 -30 -9.5s-13 -16.5 -13 -30.5c0 -11.333 4.16699 -22 12.5 -32s21.166 -15 38.499 -15h49v-42h-174z" />
    <glyph glyph-name="uniFEDB" unicode="&#x643;" horiz-adv-x="537" arabic-form="initial" 
d="M505 765l-337.003 -323.002h12c32 0 65.167 -4.5 99.5 -13.5s66.5 -24.5 96.5 -46.5s54.333 -51.833 73 -89.5s28 -85.5 28 -143.5v-149h-492v58h430v74c0 49.333 -6.83301 90.333 -20.5 123s-31.667 58.334 -54 77.001s-47.166 32 -74.499 40s-54.666 12 -81.999 12
c-23.333 0 -45.666 -2.66699 -66.999 -8s-40.333 -12.333 -57 -21c-6.66699 6.66699 -11 12.834 -13 18.501s-3 11.167 -3 16.5c0 8 3.33301 15 10 21l361 354c11.333 10.667 20.666 17 27.999 19s14.333 3 21 3c16.667 0 30.334 -7.33301 41.001 -22z" />
    <glyph glyph-name="uniFEDC" unicode="&#x643;" horiz-adv-x="595" arabic-form="medial" 
d="M610 0l-625.003 -0.00195312v58h430v74c0 49.333 -6.83301 90.333 -20.5 123s-31.667 58.334 -54 77.001s-47.166 32 -74.499 40s-54.666 12 -81.999 12c-23.333 0 -45.666 -2.66699 -66.999 -8s-40.333 -12.333 -57 -21c-6.66699 6.66699 -11 12.834 -13 18.501
s-3 11.167 -3 16.5c0 8 3.33301 15 10 21l361 354c11.333 10.667 20.666 17 27.999 19s14.333 3 21 3c16.667 0 30.334 -7.33301 41.001 -22l-337 -323h12c32 0 65.167 -4.5 99.5 -13.5s66.5 -24.5 96.5 -46.5s54.333 -51.833 73 -89.5s28 -85.5 28 -143.5v-91h133v-58z" />
    <glyph glyph-name="uniFEDD" unicode="&#x644;" horiz-adv-x="627" arabic-form="isolated" 
d="M547 780v-711.999c0 -96.667 -21 -170.167 -63 -220.5s-105.333 -75.5 -190 -75.5c-50 0 -91.5 7.83301 -124.5 23.5s-58.833 36.334 -77.5 62.001s-32 54.167 -40 85.5s-12 62.666 -12 93.999c0 16 1.16699 37.667 3.5 65s7.5 53 15.5 77
c3.33301 10 7.83301 17.667 13.5 23s13.5 8 23.5 8c4.66699 0 10.167 -0.666992 16.5 -2s11.833 -3.33301 16.5 -6c-8.66699 -26.667 -15 -53.334 -19 -80.001s-6 -52.667 -6 -78c0 -42 6 -79.5 18 -112.5s32 -59 60 -78s65.667 -28.5 113 -28.5
c25.333 0 49.333 3.33301 72 10s42.834 19.167 60.501 37.5s31.667 44.5 42 78.5s15.5 78.333 15.5 133v669c0 10 2.66699 18.167 8 24.5s14 9.5 26 9.5c5.33301 0 10.666 -0.833008 15.999 -2.5s9.33301 -3.16699 12 -4.5z" />
    <glyph glyph-name="uniFEDE" unicode="&#x644;" horiz-adv-x="694" arabic-form="final" 
d="M547 780l0.00195312 -568c0 -31.333 3.16699 -58.5 9.5 -81.5s18.166 -40.833 35.499 -53.5s42.666 -19 75.999 -19h41v-58h-41c-29.333 -0 -54 3.33301 -74 10s-36 17.334 -48 32.001c-3.33301 -88 -26 -155 -68 -201s-103.333 -69 -184 -69
c-50 0 -91.5 7.83301 -124.5 23.5s-58.833 36.334 -77.5 62.001s-32 54.167 -40 85.5s-12 62.666 -12 93.999c0 16 1.16699 37.667 3.5 65s7.5 53 15.5 77c3.33301 10 7.83301 17.667 13.5 23s13.5 8 23.5 8c4.66699 0 10.167 -0.666992 16.5 -2s11.833 -3.33301 16.5 -6
c-8.66699 -26.667 -15 -53.334 -19 -80.001s-6 -52.667 -6 -78c0 -42 6 -79.5 18 -112.5s32 -59 60 -78s65.667 -28.5 113 -28.5c25.333 0 49.333 3.33301 72 10s42.834 19.167 60.501 37.5s31.667 44.5 42 78.5s15.5 78.333 15.5 133v669c0 10 2.66699 18.167 8 24.5
s14 9.5 26 9.5c5.33301 0 10.666 -0.833008 15.999 -2.5s9.33301 -3.16699 12 -4.5z" />
    <glyph glyph-name="uniFEDF" unicode="&#x644;" horiz-adv-x="274" arabic-form="initial" 
d="M132 58v695c0 10 2.66699 18.167 8 24.5s14 9.5 26 9.5c5.33301 0 10.833 -0.833008 16.5 -2.5s9.5 -3.16699 11.5 -4.5v-780h-209v58h147z" />
    <glyph glyph-name="uniFEE0" unicode="&#x644;" horiz-adv-x="346" arabic-form="medial" 
d="M169 76c-16.667 -28 -36.666 -47.667 -59.999 -59s-54 -17 -92 -17h-32v58h32c35.333 0 61.5 7 78.5 21s28.333 33.667 34 59s8.5 55.333 8.5 90v525c0 10 2.66699 18.167 8 24.5s14 9.5 26 9.5c5.33301 0 10.833 -0.833008 16.5 -2.5s9.5 -3.16699 11.5 -4.5v-553
c0 -34 2.83301 -63.667 8.5 -89s17 -45 34 -59s43.167 -21 78.5 -21h40v-58h-40c-38.667 0 -70.834 7 -96.501 21s-44.167 32.333 -55.5 55z" />
    <glyph glyph-name="uniFEE1" unicode="&#x645;" horiz-adv-x="610" arabic-form="isolated" 
d="M131 58h80.999c-26 18 -46.5 42.667 -61.5 74s-22.5 64 -22.5 98c0 40 9.33301 76 28 108s44 57.333 76 76s68 28 108 28c41.333 0 77.833 -9 109.5 -27s56.334 -42.5 74.001 -73.5s26.5 -66.5 26.5 -106.5v-235h-410c-21.333 0 -35.5 -6 -42.5 -18
s-10.5 -28.333 -10.5 -49v-163h-62v171c0 20 3 38.833 9 56.5s16.5 32.167 31.5 43.5s36.833 17 65.5 17zM487.999 58v167.001c0 49.333 -14 88.166 -42 116.499s-63.333 42.5 -106 42.5s-77.667 -14.5 -105 -43.5s-41 -65.833 -41 -110.5c0 -29.333 6.33301 -57 19 -83
s30 -47.333 52 -64s47 -25 75 -25h148z" />
    <glyph glyph-name="uniFEE2" unicode="&#x645;" horiz-adv-x="668" arabic-form="final" 
d="M131 58h80.999c-26 18 -46.5 42.667 -61.5 74s-22.5 64 -22.5 98c0 40 9.33301 76 28 108s44 57.333 76 76s68 28 108 28c41.333 0 77.833 -9 109.5 -27s56.334 -42.5 74.001 -73.5s26.5 -66.5 26.5 -106.5v-177h133v-58h-543c-21.333 0 -35.5 -6 -42.5 -18
s-10.5 -28.333 -10.5 -49v-163h-62v171c0 20 3 38.833 9 56.5s16.5 32.167 31.5 43.5s36.833 17 65.5 17zM487.999 58v167.001c0 49.333 -14 88.166 -42 116.499s-63.333 42.5 -106 42.5s-77.667 -14.5 -105 -43.5s-41 -65.833 -41 -110.5c0 -29.333 6.33301 -57 19 -83
s30 -47.333 52 -64s47 -25 75 -25h148z" />
    <glyph glyph-name="uniFEE3" unicode="&#x645;" horiz-adv-x="622" arabic-form="initial" 
d="M562 0h-199.002c-47.333 -0 -86 8.33301 -116 25s-53.333 38 -70 64c-15.333 -34 -36 -57.333 -62 -70s-58 -19 -96 -19h-34v58h34c35.333 0 61.333 6.5 78 19.5s27.834 31.333 33.501 55s8.83398 51.167 9.50098 82.5c1.33301 47.333 11.166 87.833 29.499 121.5
s43.333 59.667 75 78s67.5 27.5 107.5 27.5c41.333 0 77.833 -9 109.5 -27s56.334 -42.5 74.001 -73.5s26.5 -66.5 26.5 -106.5v-235zM499.998 58v167c0 49.333 -14 88.166 -42 116.499s-63.333 42.5 -106 42.5s-77.667 -14.667 -105 -44s-41 -68.666 -41 -117.999
c0 -61.333 15.333 -104 46 -128s72.667 -36 126 -36h122z" />
    <glyph glyph-name="uniFEE4" unicode="&#x645;" horiz-adv-x="615" arabic-form="medial" 
d="M630 0h-126c-10.667 -47.333 -33.667 -85.666 -69 -114.999s-79 -44 -131 -44c-52.667 0 -96.5 14.667 -131.5 44s-58.167 67.666 -69.5 114.999h-118v58h111v7c0 43.333 8.5 81.833 25.5 115.5s41.167 60.167 72.5 79.5s68 29 110 29c42.667 0 79.5 -9.66699 110.5 -29
s55 -45.833 72 -79.5s25.5 -72.167 25.5 -115.5v-7h118v-58zM160 65c0 -49.333 12.667 -89.333 38 -120s60.666 -46 105.999 -46s80.666 15.333 105.999 46s38 70.667 38 120c0 50 -12.667 90.167 -38 120.5s-60.666 45.5 -105.999 45.5s-80.666 -15.167 -105.999 -45.5
s-38 -70.5 -38 -120.5z" />
    <glyph glyph-name="uniFEE5" unicode="&#x646;" horiz-adv-x="617" arabic-form="isolated" 
d="M547 435v-366.999c0 -96.667 -21 -170.167 -63 -220.5s-105.333 -75.5 -190 -75.5c-50 0 -91.5 7.83301 -124.5 23.5s-58.833 36.334 -77.5 62.001s-32 54.167 -40 85.5s-12 62.666 -12 93.999c0 16 1.16699 37.667 3.5 65s7.5 53 15.5 77
c3.33301 10 7.83301 17.667 13.5 23s13.5 8 23.5 8c4.66699 0 10.167 -0.666992 16.5 -2s11.833 -3.33301 16.5 -6c-8.66699 -26.667 -15 -53.334 -19 -80.001s-6 -52.667 -6 -78c0 -42 6 -79.5 18 -112.5s32 -59 60 -78s65.667 -28.5 113 -28.5
c25.333 0 49.333 3.33301 72 10s42.834 19.167 60.501 37.5s31.667 44.5 42 78.5s15.5 78.333 15.5 133v324c0 10 2.66699 18.167 8 24.5s14 9.5 26 9.5c5.33301 0 10.666 -0.833008 15.999 -2.5s9.33301 -3.16699 12 -4.5zM248 570.001c0 14 4.66699 25.833 14 35.5
s20.666 14.5 33.999 14.5s24.5 -4.83301 33.5 -14.5s13.5 -21.5 13.5 -35.5s-4.5 -25.833 -13.5 -35.5s-20.167 -14.5 -33.5 -14.5s-24.666 4.83301 -33.999 14.5s-14 21.5 -14 35.5z" />
    <glyph glyph-name="uniFEE6" unicode="&#x646;" horiz-adv-x="694" arabic-form="final" 
d="M547 435l0.00195312 -223c0 -31.333 3.16699 -58.5 9.5 -81.5s18.166 -40.833 35.499 -53.5s42.666 -19 75.999 -19h41v-58h-41c-29.333 -0 -54 3.33301 -74 10s-36 17.334 -48 32.001c-3.33301 -88 -26 -155 -68 -201s-103.333 -69 -184 -69
c-50 0 -91.5 7.83301 -124.5 23.5s-58.833 36.334 -77.5 62.001s-32 54.167 -40 85.5s-12 62.666 -12 93.999c0 16 1.16699 37.667 3.5 65s7.5 53 15.5 77c3.33301 10 7.83301 17.667 13.5 23s13.5 8 23.5 8c4.66699 0 10.167 -0.666992 16.5 -2s11.833 -3.33301 16.5 -6
c-8.66699 -26.667 -15 -53.334 -19 -80.001s-6 -52.667 -6 -78c0 -42 6 -79.5 18 -112.5s32 -59 60 -78s65.667 -28.5 113 -28.5c25.333 0 49.333 3.33301 72 10s42.834 19.167 60.501 37.5s31.667 44.5 42 78.5s15.5 78.333 15.5 133v324c0 10 2.66699 18.167 8 24.5
s14 9.5 26 9.5c5.33301 0 10.666 -0.833008 15.999 -2.5s9.33301 -3.16699 12 -4.5zM248.002 570c0 14 4.66699 25.833 14 35.5s20.666 14.5 33.999 14.5s24.5 -4.83301 33.5 -14.5s13.5 -21.5 13.5 -35.5s-4.5 -25.833 -13.5 -35.5s-20.167 -14.5 -33.5 -14.5
s-24.666 4.83301 -33.999 14.5s-14 21.5 -14 35.5z" />
    <glyph glyph-name="uniFEE7" unicode="&#x646;" horiz-adv-x="264" arabic-form="initial" 
d="M132 58v350c0 10 2.66699 18.167 8 24.5s14 9.5 26 9.5c5.33301 0 10.833 -0.833008 16.5 -2.5s9.5 -3.16699 11.5 -4.5v-435h-209v58h147zM119 570c0 14 4.66699 25.833 14 35.5s20.666 14.5 33.999 14.5s24.5 -4.83301 33.5 -14.5s13.5 -21.5 13.5 -35.5
s-4.5 -25.833 -13.5 -35.5s-20.167 -14.5 -33.5 -14.5s-24.666 4.83301 -33.999 14.5s-14 21.5 -14 35.5z" />
    <glyph glyph-name="uniFEE8" unicode="&#x646;" horiz-adv-x="346" arabic-form="medial" 
d="M171 76c-16.667 -28 -36.666 -47.667 -59.999 -59s-54 -17 -92 -17h-34v58h34c35.333 0 61.5 7 78.5 21s28.333 33.667 34 59s8.5 55.333 8.5 90v180c0 10 2.66699 18.167 8 24.5s14 9.5 26 9.5c5.33301 0 10.833 -0.833008 16.5 -2.5s9.5 -3.16699 11.5 -4.5v-208
c0 -34 2.83301 -63.667 8.5 -89s17 -45 34 -59s43.167 -21 78.5 -21h38v-58h-38c-38.667 0 -70.834 7 -96.501 21s-44.167 32.333 -55.5 55zM125.001 570c0 14 4.66699 25.833 14 35.5s20.666 14.5 33.999 14.5s24.5 -4.83301 33.5 -14.5s13.5 -21.5 13.5 -35.5
s-4.5 -25.833 -13.5 -35.5s-20.167 -14.5 -33.5 -14.5s-24.666 4.83301 -33.999 14.5s-14 21.5 -14 35.5z" />
    <glyph glyph-name="uniFEE9" unicode="&#x647;" horiz-adv-x="534" arabic-form="isolated" 
d="M464 0l-168 0.000976562c-81.333 0 -141 19.333 -179 58s-57 91.334 -57 158.001c0 49.333 11.5 90.666 34.5 123.999s54 58.666 93 75.999s81.833 26 128.5 26h148v-442zM402 58.001v326h-90c-34.667 0 -66 -6 -94 -18s-50.333 -30.333 -67 -55s-25 -56.334 -25 -95.001
c0 -33.333 5.66699 -62.5 17 -87.5s36 -44.5 74 -58.5c9.33301 -3.33301 21.5 -6.16602 36.5 -8.49902s29.833 -3.5 44.5 -3.5h104z" />
    <glyph glyph-name="uniFEEA" unicode="&#x647;" horiz-adv-x="582" arabic-form="final" 
d="M597 0l-301 0.000976562c-81.333 0 -141 19.333 -179 58s-57 91.334 -57 158.001c0 49.333 11.5 90.666 34.5 123.999s54 58.666 93 75.999s81.833 26 128.5 26h148v-384h133v-58zM402 58.001v326h-90c-34.667 0 -66 -6 -94 -18s-50.333 -30.333 -67 -55
s-25 -56.334 -25 -95.001c0 -33.333 5.66699 -62.5 17 -87.5s36 -44.5 74 -58.5c9.33301 -3.33301 21.5 -6.16602 36.5 -8.49902s29.833 -3.5 44.5 -3.5h104z" />
    <glyph glyph-name="uniFEEB" unicode="&#x647;" horiz-adv-x="855" arabic-form="initial" 
d="M785 0l-800 0.00195312v58h188c-22 19.333 -38.5 42.5 -49.5 69.5s-16.5 56.5 -16.5 88.5c0 49.333 11.5 90.666 34.5 123.999s53.833 58.666 92.5 75.999s81.667 26 129 26h66v105c0 10 2.66699 18.167 8 24.5s14 9.5 26 9.5c5.33301 0 10.833 -0.833008 16.5 -2.5
s9.5 -3.16699 11.5 -4.5v-132h294v-442zM491 58.002h232v326h-232v-326zM429 58.002v326h-70c-34.667 0 -66 -6 -94 -18s-50.333 -30.333 -67 -55s-25 -56.334 -25 -95.001c0 -18.667 2.33301 -37.5 7 -56.5s13.5 -36.333 26.5 -52s32.167 -28.167 57.5 -37.5
c9.33301 -3.33301 21.5 -6.16602 36.5 -8.49902s29.833 -3.5 44.5 -3.5h84z" />
    <glyph glyph-name="uniFEEC" unicode="&#x647;" horiz-adv-x="917" arabic-form="medial" 
d="M932 0l-947 0.00195312v58h188c-22 19.333 -38.5 42.5 -49.5 69.5s-16.5 56.5 -16.5 88.5c0 49.333 11.5 90.666 34.5 123.999s53.833 58.666 92.5 75.999s81.667 26 129 26h66v105c0 10 2.66699 18.167 8 24.5s14 9.5 26 9.5c5.33301 0 10.833 -0.833008 16.5 -2.5
s9.5 -3.16699 11.5 -4.5v-132h294v-384h147v-58zM491 58.002h232v326h-232v-326zM429 58.002v326h-70c-34.667 0 -66 -6 -94 -18s-50.333 -30.333 -67 -55s-25 -56.334 -25 -95.001c0 -18.667 2.33301 -37.5 7 -56.5s13.5 -36.333 26.5 -52s32.167 -28.167 57.5 -37.5
c9.33301 -3.33301 21.5 -6.16602 36.5 -8.49902s29.833 -3.5 44.5 -3.5h84z" />
    <glyph glyph-name="uniFEED" unicode="&#x648;" horiz-adv-x="552" arabic-form="isolated" 
d="M482 216l-0.000976562 -241c0 -52 -10.167 -93.667 -30.5 -125s-46 -54 -77 -68s-62.167 -21 -93.5 -21c-28.667 0 -53.334 3.16699 -74.001 9.5s-36.334 12.5 -47.001 18.5l21 53c8.66699 -4.66699 21.334 -10.167 38.001 -16.5s37.334 -9.5 62.001 -9.5
c22 0 43.667 5.33301 65 16s39 28 53 52s21 56.667 21 98v18h-134c-44.667 -0 -84 8.33301 -118 25s-60.5 40.667 -79.5 72s-28.5 69.333 -28.5 114c0 48.667 9.33301 90.334 28 125.001s44 61 76 79s68 27 108 27c41.333 0 77.833 -9.16699 109.5 -27.5
s56.334 -44.333 74.001 -78s26.5 -73.834 26.5 -120.501zM419.999 58v147.999c0 59.333 -14 103.833 -42 133.5s-63.333 44.5 -106 44.5s-77.667 -13.833 -105 -41.5s-41 -71.5 -41 -131.5c0 -43.333 12.833 -79.666 38.5 -108.999s61.5 -44 107.5 -44h148z" />
    <glyph glyph-name="uniFEEE" unicode="&#x648;" horiz-adv-x="600" arabic-form="final" 
d="M482 0l-0.000976562 -25c0 -52 -10.167 -93.667 -30.5 -125s-46 -54 -77 -68s-62.167 -21 -93.5 -21c-28.667 0 -53.334 3.16699 -74.001 9.5s-36.334 12.5 -47.001 18.5l21 53c8.66699 -4.66699 21.334 -10.167 38.001 -16.5s37.334 -9.5 62.001 -9.5
c22 0 43.667 5.33301 65 16s39 28 53 52s21 56.667 21 98v18h-134c-44.667 -0 -84 8.33301 -118 25s-60.5 40.667 -79.5 72s-28.5 69.333 -28.5 114c0 48.667 9.33301 90.334 28 125.001s44 61 76 79s68 27 108 27c41.333 0 77.833 -9.16699 109.5 -27.5
s56.334 -44.333 74.001 -78s26.5 -73.834 26.5 -120.501v-158h133v-58h-133zM419.999 58v147.999c0 59.333 -14 103.833 -42 133.5s-63.333 44.5 -106 44.5s-77.667 -13.833 -105 -41.5s-41 -71.5 -41 -131.5c0 -43.333 12.833 -79.666 38.5 -108.999s61.5 -44 107.5 -44
h148z" />
    <glyph glyph-name="uniFEEF" unicode="&#x649;" horiz-adv-x="716" arabic-form="isolated" 
d="M530 -230h-231.998c-50.667 0 -92.834 7.83301 -126.501 23.5s-60 36.5 -79 62.5s-32.5 54.833 -40.5 86.5s-12 63.167 -12 94.5c0 16 1.16699 37.667 3.5 65s7.5 53 15.5 77c3.33301 10 7.83301 17.667 13.5 23s13.5 8 23.5 8c4.66699 0 10.167 -0.666992 16.5 -2
s11.833 -3.33301 16.5 -6c-8.66699 -26.667 -15 -53.334 -19 -80.001s-6 -52.667 -6 -78c0 -42 6.16699 -79.167 18.5 -111.5s32.333 -57.833 60 -76.5s63.834 -28 108.501 -28h177v586c18.667 8.66699 41.334 15.5 68.001 20.5s52 7.5 76 7.5c23.333 0 43.166 -3 59.499 -9
s24.5 -16 24.5 -30c0 -10 -5 -20.333 -15 -31c-10.667 4.66699 -21.167 7.83398 -31.5 9.50098s-20.833 2.5 -31.5 2.5c-14.667 0 -29.334 -1.5 -44.001 -4.5s-29.334 -6.5 -44.001 -10.5v-599z" />
    <glyph glyph-name="uniFEF0" unicode="&#x649;" horiz-adv-x="959" arabic-form="final" 
d="M530 -230l-232.001 0.000976562c-50.667 0 -92.834 7.83301 -126.501 23.5s-60 36.5 -79 62.5s-32.5 54.833 -40.5 86.5s-12 63.167 -12 94.5c0 16 1.16699 37.667 3.5 65s7.5 53 15.5 77c3.33301 10 7.83301 17.667 13.5 23s13.5 8 23.5 8
c4.66699 0 10.167 -0.666992 16.5 -2s11.833 -3.33301 16.5 -6c-8.66699 -26.667 -15 -53.334 -19 -80.001s-6 -52.667 -6 -78c0 -42 6.16699 -79.167 18.5 -111.5s32.333 -57.833 60 -76.5s63.834 -28 108.501 -28h177v575c9.33301 4 23.833 9.16699 43.5 15.5
s42 11.833 67 16.5s50.5 7 76.5 7c64.667 0 111.834 -16 141.501 -48s44.5 -79.333 44.5 -142v-194h133v-58h-195v224c0 58 -8.66699 99.167 -26 123.5s-50 36.5 -98 36.5c-28.667 0 -54.5 -3.33301 -77.5 -10s-38.833 -11.667 -47.5 -15v-589z" />
    <glyph glyph-name="uniFEF1" unicode="&#x64a;" horiz-adv-x="716" arabic-form="isolated" 
d="M530 -230h-231.998c-50.667 0 -92.834 7.83301 -126.501 23.5s-60 36.5 -79 62.5s-32.5 54.833 -40.5 86.5s-12 63.167 -12 94.5c0 16 1.16699 37.667 3.5 65s7.5 53 15.5 77c3.33301 10 7.83301 17.667 13.5 23s13.5 8 23.5 8c4.66699 0 10.167 -0.666992 16.5 -2
s11.833 -3.33301 16.5 -6c-8.66699 -26.667 -15 -53.334 -19 -80.001s-6 -52.667 -6 -78c0 -42 6.16699 -79.167 18.5 -111.5s32.333 -57.833 60 -76.5s63.834 -28 108.501 -28h177v586c18.667 8.66699 41.334 15.5 68.001 20.5s52 7.5 76 7.5c23.333 0 43.166 -3 59.499 -9
s24.5 -16 24.5 -30c0 -10 -5 -20.333 -15 -31c-10.667 4.66699 -21.167 7.83398 -31.5 9.50098s-20.833 2.5 -31.5 2.5c-14.667 0 -29.334 -1.5 -44.001 -4.5s-29.334 -6.5 -44.001 -10.5v-599zM222.002 -366c0 14 4.66699 25.833 14 35.5s20.666 14.5 33.999 14.5
s24.5 -4.83301 33.5 -14.5s13.5 -21.5 13.5 -35.5s-4.5 -25.833 -13.5 -35.5s-20.167 -14.5 -33.5 -14.5s-24.666 4.83301 -33.999 14.5s-14 21.5 -14 35.5zM371.002 -366c0 14 4.66699 25.833 14 35.5s20.666 14.5 33.999 14.5c12.667 0 23.667 -4.83301 33 -14.5
s14 -21.5 14 -35.5s-4.66699 -25.833 -14 -35.5s-20.333 -14.5 -33 -14.5c-13.333 0 -24.666 4.83301 -33.999 14.5s-14 21.5 -14 35.5z" />
    <glyph glyph-name="uniFEF2" unicode="&#x64a;" horiz-adv-x="959" arabic-form="final" 
d="M530 -230l-232.001 0.000976562c-50.667 0 -92.834 7.83301 -126.501 23.5s-60 36.5 -79 62.5s-32.5 54.833 -40.5 86.5s-12 63.167 -12 94.5c0 16 1.16699 37.667 3.5 65s7.5 53 15.5 77c3.33301 10 7.83301 17.667 13.5 23s13.5 8 23.5 8
c4.66699 0 10.167 -0.666992 16.5 -2s11.833 -3.33301 16.5 -6c-8.66699 -26.667 -15 -53.334 -19 -80.001s-6 -52.667 -6 -78c0 -42 6.16699 -79.167 18.5 -111.5s32.333 -57.833 60 -76.5s63.834 -28 108.501 -28h177v575c9.33301 4 23.833 9.16699 43.5 15.5
s42 11.833 67 16.5s50.5 7 76.5 7c64.667 0 111.834 -16 141.501 -48s44.5 -79.333 44.5 -142v-194h133v-58h-195v224c0 58 -8.66699 99.167 -26 123.5s-50 36.5 -98 36.5c-28.667 0 -54.5 -3.33301 -77.5 -10s-38.833 -11.667 -47.5 -15v-589zM219.999 -365.999
c0 14 4.66699 25.833 14 35.5s20.666 14.5 33.999 14.5s24.5 -4.83301 33.5 -14.5s13.5 -21.5 13.5 -35.5s-4.5 -25.833 -13.5 -35.5s-20.167 -14.5 -33.5 -14.5s-24.666 4.83301 -33.999 14.5s-14 21.5 -14 35.5zM368.999 -365.999c0 14 4.66699 25.833 14 35.5
s20.666 14.5 33.999 14.5c12.667 0 23.667 -4.83301 33 -14.5s14 -21.5 14 -35.5s-4.66699 -25.833 -14 -35.5s-20.333 -14.5 -33 -14.5c-13.333 0 -24.666 4.83301 -33.999 14.5s-14 21.5 -14 35.5z" />
    <glyph glyph-name="uniFEF3" unicode="&#x64a;" horiz-adv-x="264" arabic-form="initial" 
d="M132 58v350c0 10 2.66699 18.167 8 24.5s14 9.5 26 9.5c5.33301 0 10.833 -0.833008 16.5 -2.5s9.5 -3.16699 11.5 -4.5v-435h-209v58h147zM-13 -131c0 14 4.66699 25.833 14 35.5s20.666 14.5 33.999 14.5s24.5 -4.83301 33.5 -14.5s13.5 -21.5 13.5 -35.5
s-4.5 -25.833 -13.5 -35.5s-20.167 -14.5 -33.5 -14.5s-24.666 4.83301 -33.999 14.5s-14 21.5 -14 35.5zM136 -131c0 14 4.66699 25.833 14 35.5s20.666 14.5 33.999 14.5c12.667 0 23.667 -4.83301 33 -14.5s14 -21.5 14 -35.5s-4.66699 -25.833 -14 -35.5
s-20.333 -14.5 -33 -14.5c-13.333 0 -24.666 4.83301 -33.999 14.5s-14 21.5 -14 35.5z" />
    <glyph glyph-name="uniFEF4" unicode="&#x64a;" horiz-adv-x="346" arabic-form="medial" 
d="M171 76c-16.667 -28 -36.666 -47.667 -59.999 -59s-54 -17 -92 -17h-34v58h34c35.333 0 61.5 7 78.5 21s28.333 33.667 34 59s8.5 55.333 8.5 90v180c0 10 2.66699 18.167 8 24.5s14 9.5 26 9.5c5.33301 0 10.833 -0.833008 16.5 -2.5s9.5 -3.16699 11.5 -4.5v-208
c0 -34 2.83301 -63.667 8.5 -89s17 -45 34 -59s43.167 -21 78.5 -21h38v-58h-38c-38.667 0 -70.834 7 -96.501 21s-44.167 32.333 -55.5 55zM49.001 -131c0 14 4.66699 25.833 14 35.5s20.666 14.5 33.999 14.5s24.5 -4.83301 33.5 -14.5s13.5 -21.5 13.5 -35.5
s-4.5 -25.833 -13.5 -35.5s-20.167 -14.5 -33.5 -14.5s-24.666 4.83301 -33.999 14.5s-14 21.5 -14 35.5zM198.001 -131c0 14 4.66699 25.833 14 35.5s20.666 14.5 33.999 14.5c12.667 0 23.667 -4.83301 33 -14.5s14 -21.5 14 -35.5s-4.66699 -25.833 -14 -35.5
s-20.333 -14.5 -33 -14.5c-13.333 0 -24.666 4.83301 -33.999 14.5s-14 21.5 -14 35.5z" />
    <glyph glyph-name=".notdef" horiz-adv-x="500" 
d="M450 0h-400v750h400v-750zM100 50h300v650h-300v-650z" />
    <glyph glyph-name="glyph1" horiz-adv-x="0" 
 />
    <glyph glyph-name="glyph1" horiz-adv-x="0" 
 />
    <glyph glyph-name="uni000D" unicode="&#xd;" horiz-adv-x="250" 
 />
    <glyph glyph-name="space" unicode=" " horiz-adv-x="250" 
 />
    <glyph glyph-name="exclam" unicode="!" horiz-adv-x="241" 
d="M87 212l0.000976562 437.999c0 10.667 2.5 19.334 7.5 26.001s14.167 10 27.5 10c6.66699 0 12.667 -0.833008 18 -2.5s9.66602 -3.5 12.999 -5.5v-466h-66zM179.001 43.999c0 -16 -5.66699 -29.667 -17 -41s-25 -17 -41 -17c-16.667 0 -30.834 5.66699 -42.501 17
s-17.5 25 -17.5 41c0 16.667 5.83301 30.834 17.5 42.501s25.834 17.5 42.501 17.5c16 0 29.667 -5.83301 41 -17.5s17 -25.834 17 -42.501z" />
    <glyph glyph-name="quotedbl" unicode="&#x22;" horiz-adv-x="468" 
d="M172 467l-69.001 -0.000976562v234c0 10.667 2.83301 19.334 8.5 26.001s15.167 10 28.5 10c6.66699 0 12.834 -0.833008 18.501 -2.5s10.167 -3.5 13.5 -5.5v-262zM364.999 466.999l-69.001 -0.000976562v234c0 10.667 2.83301 19.334 8.5 26.001s15.167 10 28.5 10
c6.66699 0 12.834 -0.833008 18.501 -2.5s10.167 -3.5 13.5 -5.5v-262z" />
    <glyph glyph-name="numbersign" unicode="#" horiz-adv-x="785" 
d="M249 462l-99.998 -0.00195312c-13.333 0 -22.833 3 -28.5 9s-8.5 13.667 -8.5 23c0 11.333 2.66699 20.666 8 27.999h140l25 146c4 24 16.333 36 37 36c4.66699 0 9.16699 -0.666992 13.5 -2s8.16602 -2.66602 11.499 -3.99902l-30 -176h212l25 146c4 24 16.333 36 37 36
c4.66699 0 9.16699 -0.666992 13.5 -2s8.16602 -2.66602 11.499 -3.99902l-30 -176h99c13.333 0 22.833 -3 28.5 -9s8.5 -13.667 8.5 -23c0 -11.333 -2.66699 -20.666 -8 -27.999h-139l-38 -225h99c13.333 0 22.833 -3 28.5 -9s8.5 -13.667 8.5 -23
c0 -11.333 -2.66699 -20.666 -8 -27.999h-139l-30 -177h-57l30 177h-212l-30 -177h-57l30 177h-100c-13.333 0 -22.833 3 -28.5 9s-8.5 13.667 -8.5 23c0 11.333 2.66699 20.666 8 27.999h140zM306.002 461.998l-38 -225h212l38 225h-212z" />
    <glyph glyph-name="dollar" unicode="$" 
d="M525 644c10 -7.33301 16.1641 -14.0029 18.4971 -20.0029s3.5 -11.667 3.5 -17c0 -7.33301 -2 -14.5 -6 -21.5s-9 -13.167 -15 -18.5c-11.333 14 -32.166 28.833 -62.499 44.5s-69.833 25.5 -118.5 29.5v-262l42 -10c63.333 -14.667 111.333 -35.667 144 -63
s49 -65.666 49 -114.999c0 -52 -18.667 -95.5 -56 -130.5s-97 -56.167 -179 -63.5v-109h-55v109c-58 4 -106.667 14.167 -146 30.5s-68.666 31.833 -87.999 46.5l31 49c8.66699 -6 22 -14.167 40 -24.5s40.333 -20 67 -29s58.667 -14.833 96 -17.5v270l-35 9
c-33.333 8 -64.5 19.333 -93.5 34s-52.333 33.834 -70 57.501s-26.5 52.834 -26.5 87.501c0 30.667 7.16699 59.167 21.5 85.5s37.833 48.166 70.5 65.499s77 28.666 133 33.999v81c0 6.66699 2.5 12.334 7.5 17.001s12.167 7 21.5 7c6.66699 0 12.334 -0.666992 17.001 -2
s7.66699 -2.33301 9 -3v-101c35.333 -1.33301 65.5 -5.5 90.5 -12.5s45 -14.167 60 -21.5s24.833 -12.666 29.5 -15.999zM289.997 387.997v252.999c-52 -2.66699 -91.333 -14 -118 -34s-40 -50 -40 -90c0 -38 14.5 -66.667 43.5 -86s67.167 -33.666 114.5 -42.999z
M505.997 179.996c0 29.333 -6.66699 52.501 -20 69.501s-32 30.333 -56 40s-52.333 17.5 -85 23.5v-262c50 5.33301 89.333 18.166 118 38.499s43 50.5 43 90.5z" />
    <glyph glyph-name="percent" unicode="%" horiz-adv-x="939" 
d="M430 548c0 -34.667 -8.66699 -66.334 -26 -95.001s-40.666 -51.334 -69.999 -68.001s-61.666 -25 -96.999 -25s-67.666 8.33301 -96.999 25s-52.666 39.334 -69.999 68.001s-26 60.334 -26 95.001c0 36 8.66699 68.167 26 96.5s40.666 50.833 69.999 67.5
s61.666 25 96.999 25s67.666 -8.33301 96.999 -25s52.666 -39.167 69.999 -67.5s26 -60.5 26 -96.5zM227 0l413.001 710.999c3.33301 6.66699 7.5 12.667 12.5 18s13.833 8 26.5 8c8.66699 0 15.667 -1.66699 21 -5s9.66602 -6.66602 12.999 -9.99902l-419 -722h-67z
M373.001 547.999c0 25.333 -6 48.333 -18 69s-28.333 37.167 -49 49.5s-43.667 18.5 -69 18.5c-24.667 0 -47.334 -6.16699 -68.001 -18.5s-37 -28.833 -49 -49.5s-18 -43.667 -18 -69s6 -48.166 18 -68.499s28.333 -36.5 49 -48.5s43.334 -18 68.001 -18
c25.333 0 48.333 6 69 18s37 28.167 49 48.5s18 43.166 18 68.499zM895.001 176.999c0 -35.333 -8.66699 -67.166 -26 -95.499s-40.666 -50.833 -69.999 -67.5s-61.666 -25 -96.999 -25c-36 0 -68.5 8.33301 -97.5 25s-52.167 39.167 -69.5 67.5s-26 60.166 -26 95.499
s8.66699 67.333 26 96s40.5 51.334 69.5 68.001s61.5 25 97.5 25c35.333 0 67.666 -8.33301 96.999 -25s52.666 -39.334 69.999 -68.001s26 -60.667 26 -96zM838.001 176.999c0 25.333 -6 48.333 -18 69s-28.333 37.167 -49 49.5s-43.667 18.5 -69 18.5
s-48.166 -6.16699 -68.499 -18.5s-36.5 -28.833 -48.5 -49.5s-18 -43.667 -18 -69c0 -24.667 6 -47.334 18 -68.001s28.167 -37 48.5 -49s43.166 -18 68.499 -18s48.333 6 69 18s37 28.333 49 49s18 43.334 18 68.001z" />
    <glyph glyph-name="ampersand" unicode="&#x26;" horiz-adv-x="746" 
d="M687 324h-69.001v-329c-12.667 -1.33301 -40.5 -3.83301 -83.5 -7.5s-93.833 -5.5 -152.5 -5.5c-78 0 -138.833 8.66699 -182.5 26s-74.5 40.666 -92.5 69.999s-27 61.666 -27 96.999c0 40.667 9.5 76.5 28.5 107.5s52.5 54.833 100.5 71.5
c-42 17.333 -71.167 40.166 -87.5 68.499s-24.5 60.5 -24.5 96.5c0 34.667 9 66 27 94s44.5 50.167 79.5 66.5s77.833 24.5 128.5 24.5c52 0 90.667 -4.66699 116 -14s42 -16.666 50 -21.999s13.5 -10.666 16.5 -15.999s4.5 -11.333 4.5 -18c0 -12 -6 -23.667 -18 -35
c-12.667 10.667 -32.667 21.834 -60 33.501s-62.666 17.5 -105.999 17.5c-54 0 -96.167 -10.667 -126.5 -32s-45.5 -56 -45.5 -104c0 -33.333 8 -59.5 24 -78.5s38.167 -32.333 66.5 -40s60.833 -11.5 97.5 -11.5h312c9.33301 0 17.166 -2.33301 23.499 -7
s9.5 -12.334 9.5 -23.001c0 -7.33301 -1.16699 -13.666 -3.5 -18.999s-4.16602 -9 -5.49902 -11zM551.999 49v275h-230c-55.333 0 -97.666 -12.167 -126.999 -36.5s-44 -60.5 -44 -108.5c0 -52 20.167 -88.5 60.5 -109.5s98.166 -31.5 173.499 -31.5
c40.667 0 76 1.33301 106 4s50.333 5 61 7z" />
    <glyph glyph-name="quotesingle" unicode="'" horiz-adv-x="278" 
d="M173 467l-69.001 -0.000976562v234c0 10.667 2.83301 19.334 8.5 26.001s15.167 10 28.5 10c6.66699 0 12.834 -0.833008 18.501 -2.5s10.167 -3.5 13.5 -5.5v-262z" />
    <glyph glyph-name="parenleft" unicode="(" horiz-adv-x="367" 
d="M322 -72v-60.002c-46 10.667 -87.833 34.167 -125.5 70.5s-67.667 85 -90 146s-33.5 133.833 -33.5 218.5s11.167 157.334 33.5 218.001s52.333 109.167 90 145.5s79.5 59.833 125.5 70.5v-60c-61.333 -24 -106.166 -68.667 -134.499 -134s-42.5 -145.333 -42.5 -240
c0 -95.333 14.167 -175.666 42.5 -240.999s73.166 -110 134.499 -134z" />
    <glyph glyph-name="parenright" unicode=")" horiz-adv-x="367" 
d="M45 -132v60.002c60.667 24 105.334 68.667 134.001 134s43 145.666 43 240.999c0 94.667 -14.333 174.667 -43 240s-73.334 110 -134.001 134v60c46 -10.667 87.833 -34.167 125.5 -70.5s67.667 -84.833 90 -145.5s33.5 -133.334 33.5 -218.001
s-11.167 -157.5 -33.5 -218.5s-52.333 -109.667 -90 -146s-79.5 -59.833 -125.5 -70.5z" />
    <glyph glyph-name="asterisk" unicode="*" horiz-adv-x="549" 
d="M248 546l-5.99707 157c-0.666992 10 1.83301 18.167 7.5 24.5s14.834 9.5 27.501 9.5c6 0 11.667 -0.833008 17 -2.5s9.33301 -3.16699 12 -4.5l-5 -184l132 55c5.33301 2 9.66602 3.5 12.999 4.5s7.33301 1.5 12 1.5c7.33301 0 14.666 -3.16699 21.999 -9.5
s11 -18.166 11 -35.499v-4l-171 -54l111 -152l-50 -34l-106 161l-106 -161l-50 34l111 152l-171 54v4c0 17.333 3.66699 29.166 11 35.499s14.666 9.5 21.999 9.5c4.66699 0 8.66699 -0.5 12 -1.5s7.66602 -2.5 12.999 -4.5z" />
    <glyph glyph-name="plus" unicode="+" 
d="M294 373v185c0 10 2.66699 18.167 8 24.5s14.333 9.5 27 9.5c6 0 11.667 -0.833008 17 -2.5s9.33301 -3.16699 12 -4.5v-212h184c9.33301 0 17.166 -2.33301 23.499 -7s9.5 -12.334 9.5 -23.001c0 -7.33301 -1.16699 -13.666 -3.5 -18.999s-4.16602 -9 -5.49902 -11h-208
v-220h-64v220h-184c-9.33301 0 -17.166 2.33301 -23.499 7s-9.5 12.334 -9.5 23.001c0 7.33301 1.16699 13.666 3.5 18.999s4.16602 9 5.49902 11h208z" />
    <glyph glyph-name="comma" unicode="," horiz-adv-x="278" 
d="M100 -175l-37 30.002c1.33301 2 5.5 7.33301 12.5 16s15 19.5 24 32.5s17.167 27 24.5 42s12 29.5 14 43.5c-19.333 1.33301 -34 7.16602 -44 17.499s-15 23.833 -15 40.5c0 16 5.33301 29.5 16 40.5s24.667 16.5 42 16.5c16 0 30.5 -6.16699 43.5 -18.5
s19.5 -32.833 19.5 -61.5c0 -25.333 -4.66699 -49.333 -14 -72s-20.333 -43.334 -33 -62.001s-24.167 -33.667 -34.5 -45s-16.5 -18 -18.5 -20z" />
    <glyph glyph-name="hyphen" unicode="-" horiz-adv-x="349" 
d="M284 235l-188.001 -0.000976562c-13.333 0 -22.666 4 -27.999 12s-8 17 -8 27c0 10.667 2 21.334 6 32.001h187c14 0 23.5 -4 28.5 -12s7.5 -17 7.5 -27c0 -8 -1.66699 -18.667 -5 -32z" />
    <glyph glyph-name="period" unicode="." horiz-adv-x="278" 
d="M198 44c0 -16 -5.66699 -29.667 -17 -41s-25 -17 -41 -17c-16.667 0 -30.834 5.66699 -42.501 17s-17.5 25 -17.5 41c0 16.667 5.83301 30.834 17.5 42.501s25.834 17.5 42.501 17.5c16 0 29.667 -5.83301 41 -17.5s17 -25.834 17 -42.501z" />
    <glyph glyph-name="slash" unicode="/" horiz-adv-x="350" 
d="M330 726l-241.001 -744.001h-69l235 722c3.33301 10.667 7.83301 18.834 13.5 24.501s15.5 8.5 29.5 8.5c7.33301 0 13.833 -1.33301 19.5 -4s9.83398 -5 12.501 -7z" />
    <glyph glyph-name="zero" unicode="0" 
d="M590 334c0 -74 -10.667 -137.167 -32 -189.5s-51.833 -92.5 -91.5 -120.5s-86.5 -42 -140.5 -42s-100.667 14 -140 42s-69.833 68.167 -91.5 120.5s-32.5 115.5 -32.5 189.5c0 73.333 10.833 136.333 32.5 189s52.167 93 91.5 121s86 42 140 42s100.833 -14 140.5 -42
s70.167 -68.333 91.5 -121s32 -115.667 32 -189zM517 334c0 52 -6.5 100.5 -19.5 145.5s-33.5 81.167 -61.5 108.5s-64.667 41 -110 41s-82 -13.667 -110 -41s-48.5 -63.5 -61.5 -108.5s-19.5 -93.5 -19.5 -145.5s6.5 -100.5 19.5 -145.5s33.5 -81.167 61.5 -108.5
s64.667 -41 110 -41s82 13.667 110 41s48.5 63.5 61.5 108.5s19.5 93.5 19.5 145.5z" />
    <glyph glyph-name="one" unicode="1" 
d="M400 0h-68.998v594l-181 -133c-7.33301 2 -14.5 6 -21.5 12s-10.5 13.667 -10.5 23c0 5.33301 1.16699 10.666 3.5 15.999s7.83301 11.333 16.5 18l151 111c11.333 8.66699 22.166 15.334 32.499 20.001s22.166 7 35.499 7c12 0 21.333 -1 28 -3s11.667 -4.33301 15 -7
v-658z" />
    <glyph glyph-name="two" unicode="2" 
d="M430 272c-9.33301 -10.667 -22.502 -23.833 -39.502 -39.5s-35.833 -32.167 -56.5 -49.5l-62 -51l-57 -44.5l-40 -29.5h362v-58h-450v63l51 37.5l66 51l68.5 56c22.333 19 42.166 36.833 59.499 53.5c21.333 20.667 41.833 42.334 61.5 65.001s35.667 47 48 73
s18.5 54.667 18.5 86c0 24.667 -5 48 -15 70s-27 40 -51 54s-56.667 21 -98 21c-30 0 -55.167 -4.33301 -75.5 -13s-36.833 -19 -49.5 -31s-22 -23.333 -28 -34s-9.66699 -18 -11 -22c-11.333 2 -21 6 -29 12s-12 14 -12 24c0 8 1.5 15.5 4.5 22.5s7.16699 14.167 12.5 21.5
c4.66699 5.33301 14.334 14.166 29.001 26.499s35 23.666 61 33.999s58.667 15.5 98 15.5c54.667 0 99.334 -8.66699 134.001 -26s60.334 -41.166 77.001 -71.499s25 -64.833 25 -103.5c0 -30 -5.16699 -57.833 -15.5 -83.5s-23.333 -49.167 -39 -70.5s-31.5 -41 -47.5 -59z
" />
    </font>
</defs>
</svg>
