<?xml version="1.0" standalone="no"?>
<!DOCTYPE svg PUBLIC "-//W3C//DTD SVG 20010904//EN"
 "http://www.w3.org/TR/2001/REC-SVG-20010904/DTD/svg10.dtd">
<svg version="1.0" xmlns="http://www.w3.org/2000/svg"
 width="260.000000pt" height="260.000000pt" viewBox="0 0 260.000000 260.000000"
 preserveAspectRatio="xMidYMid meet">
<metadata>
Created by potrace 1.14, written by Peter Selinger 2001-2017
</metadata>
<g transform="translate(0.000000,260.000000) scale(0.100000,-0.100000)"
fill="#000000" stroke="none">
<path d="M1451 2127 c-57 -62 -82 -92 -109 -132 -15 -22 -30 -42 -34 -46 -15
-11 -145 -276 -166 -339 -23 -69 -46 -152 -56 -210 -3 -19 -8 -45 -10 -57 -6
-28 -18 -179 -18 -220 0 -35 -21 -46 -32 -17 -3 8 -10 12 -16 9 -5 -3 -10 -2
-10 3 0 10 -93 72 -109 72 -6 0 -11 5 -11 10 0 6 -7 10 -15 10 -8 0 -15 4 -15
10 0 5 -3 9 -7 8 -5 0 -44 16 -88 37 -44 21 -86 38 -92 38 -7 0 -13 5 -13 10
0 5 -7 7 -15 4 -8 -4 -17 -2 -20 2 -5 9 -137 45 -165 45 -12 1 -15 -16 -14
-94 3 -273 149 -533 386 -687 66 -43 180 -94 243 -110 117 -27 292 -36 374
-19 232 50 415 166 548 346 43 59 106 170 96 170 -3 0 -1 6 5 13 14 17 49 150
58 217 13 107 7 201 -21 335 -13 59 -88 229 -112 253 -7 7 -13 16 -13 20 0 8
-36 51 -93 111 -84 89 -218 171 -342 211 -22 7 -50 16 -62 21 -19 7 -28 3 -52
-24z"/>
</g>
</svg>
